<?xml version="1.0" encoding="UTF-8"?>
<svg xmlns="http://www.w3.org/2000/svg" xmlns:xlink="http://www.w3.org/1999/xlink" width="260pt" height="137pt" viewBox="0 0 260 137">
<defs>
<clipPath id="clip-0">
<path clip-rule="nonzero" d="M 63 0 L 259.199219 0 L 259.199219 131 L 63 131 Z M 63 0 "/>
</clipPath>
<clipPath id="clip-1">
<path clip-rule="nonzero" d="M 0 0 L 259.199219 0 L 259.199219 129 L 0 129 Z M 0 0 "/>
</clipPath>
<clipPath id="clip-2">
<path clip-rule="nonzero" d="M 0 63 L 259.199219 63 L 259.199219 66 L 0 66 Z M 0 63 "/>
</clipPath>
<clipPath id="clip-3">
<path clip-rule="nonzero" d="M 0 0 L 259.199219 0 L 259.199219 130 L 0 130 Z M 0 0 "/>
</clipPath>
<clipPath id="clip-4">
<path clip-rule="nonzero" d="M 64 0 L 259.199219 0 L 259.199219 131 L 64 131 Z M 64 0 "/>
</clipPath>
<clipPath id="clip-5">
<path clip-rule="nonzero" d="M 0 0 L 259.199219 0 L 259.199219 129 L 0 129 Z M 0 0 "/>
</clipPath>
<clipPath id="clip-6">
<path clip-rule="nonzero" d="M 0 63 L 259.199219 63 L 259.199219 66 L 0 66 Z M 0 63 "/>
</clipPath>
<clipPath id="clip-7">
<path clip-rule="nonzero" d="M 0 0 L 259.199219 0 L 259.199219 130 L 0 130 Z M 0 0 "/>
</clipPath>
<clipPath id="clip-8">
<path clip-rule="nonzero" d="M 0 129 L 259.199219 129 L 259.199219 130 L 0 130 Z M 0 129 "/>
</clipPath>
<clipPath id="clip-9">
<path clip-rule="nonzero" d="M 129 0 L 130 0 L 130 136.320312 L 129 136.320312 Z M 129 0 "/>
</clipPath>
</defs>
<path fill="none" stroke-width="1.2942" stroke-linecap="square" stroke-linejoin="miter" stroke="rgb(0%, 0%, 0%)" stroke-opacity="1" stroke-miterlimit="3.25" d="M 129.535156 129.597656 L 129.535156 128.277344 L 129.539062 127.585938 L 129.539062 125.058594 L 129.542969 122.859375 L 129.546875 119.257812 L 129.550781 113.855469 L 129.558594 106.292969 L 129.570312 93.945312 L 129.589844 76.574219 L 129.613281 51.347656 L 129.65625 10.242188 L 129.710938 -47.394531 "/>
<path fill="none" stroke-width="1.2942" stroke-linecap="square" stroke-linejoin="miter" stroke="rgb(0%, 0%, 0%)" stroke-opacity="1" stroke-miterlimit="3.25" d="M 102.722656 129.59375 L 102.722656 129.589844 L 102.726562 129.585938 L 102.726562 129.582031 L 102.730469 129.570312 L 102.738281 129.558594 L 102.746094 129.539062 L 102.757812 129.511719 L 102.796875 129.414062 L 102.835938 129.324219 L 102.886719 129.203125 L 102.957031 129.03125 L 103.066406 128.761719 L 103.21875 128.398438 L 103.460938 127.816406 L 103.808594 126.976562 L 104.285156 125.835938 L 105.03125 124.035156 L 106.050781 121.585938 L 107.664062 117.699219 L 110.007812 112.058594 L 113.1875 104.402344 L 118.222656 92.285156 L 125.085938 75.757812 L 134.757812 52.476562 L 150.03125 15.703125 L 170.792969 -34.28125 L 203.699219 -113.5 "/>
<g clip-path="url(#clip-0)">
<path fill="none" stroke-width="1.2942" stroke-linecap="square" stroke-linejoin="miter" stroke="rgb(0%, 0%, 0%)" stroke-opacity="1" stroke-miterlimit="3.25" d="M 64.816406 129.542969 L 64.890625 129.46875 L 64.933594 129.429688 L 64.992188 129.367188 L 65.066406 129.292969 L 65.175781 129.1875 L 65.320312 129.042969 L 65.496094 128.863281 L 65.753906 128.609375 L 67.089844 127.273438 L 67.835938 126.53125 L 68.917969 125.453125 L 70.347656 124.023438 L 72.121094 122.253906 L 74.683594 119.695312 L 77.878906 116.507812 L 82.515625 111.882812 L 88.652344 105.757812 L 96.277344 98.144531 L 107.316406 87.128906 L 121.09375 73.382812 L 138.914062 55.59375 L 164.683594 29.878906 L 196.746094 -2.121094 L 243.214844 -48.496094 L 304.714844 -109.875 "/>
</g>
<g clip-path="url(#clip-1)">
<path fill="none" stroke-width="1.2942" stroke-linecap="square" stroke-linejoin="miter" stroke="rgb(0%, 0%, 0%)" stroke-opacity="1" stroke-miterlimit="3.25" d="M -23.625 128.175781 L -23.613281 128.175781 L -23.589844 128.164062 L -23.558594 128.152344 L -23.492188 128.125 L -23.355469 128.066406 L -23.066406 127.949219 L -22.359375 127.65625 L -21.589844 127.335938 L -20.710938 126.976562 L -19.597656 126.515625 L -18.386719 126.015625 L -16.847656 125.378906 L -15.070312 124.644531 L -13.136719 123.847656 L -10.6875 122.835938 L -8.011719 121.730469 L -4.964844 120.472656 L -1.105469 118.878906 L 3.097656 117.140625 L 8.429688 114.9375 L 14.578125 112.398438 L 21.269531 109.636719 L 29.75 106.132812 L 39 102.3125 L 50.730469 97.46875 L 64.269531 91.875 L 79.019531 85.78125 L 97.714844 78.058594 L 118.132812 69.625 L 141.386719 60.019531 L 170.847656 47.851562 L 202.972656 34.585938 L 243.699219 17.761719 L 290.691406 -1.648438 L 341.847656 -22.777344 L 406.667969 -49.550781 L 477.421875 -78.773438 "/>
</g>
<g clip-path="url(#clip-2)">
<path fill="none" stroke-width="1.2942" stroke-linecap="square" stroke-linejoin="miter" stroke="rgb(0%, 0%, 0%)" stroke-opacity="1" stroke-miterlimit="3.25" d="M -254.285156 64.507812 L -228.496094 64.53125 L -203.222656 64.558594 L -175.816406 64.585938 L -150.25 64.609375 L -122.554688 64.636719 L -95.371094 64.664062 L -70.03125 64.691406 L -42.5625 64.71875 L -16.929688 64.742188 L 10.832031 64.769531 L 38.074219 64.796875 L 63.480469 64.824219 L 91.015625 64.851562 L 116.714844 64.878906 L 141.894531 64.902344 L 169.203125 64.929688 L 194.679688 64.957031 L 222.277344 64.984375 L 249.359375 65.007812 L 274.609375 65.035156 L 301.980469 65.0625 L 327.519531 65.089844 L 352.546875 65.113281 L 379.691406 65.140625 L 405.011719 65.164062 L 432.445312 65.191406 L 458.050781 65.21875 L 483.148438 65.242188 L 510.355469 65.269531 "/>
</g>
<g clip-path="url(#clip-3)">
<path fill="none" stroke-width="1.2942" stroke-linecap="square" stroke-linejoin="miter" stroke="rgb(0%, 0%, 0%)" stroke-opacity="1" stroke-miterlimit="3.25" d="M -222.414062 -81.332031 L -146.300781 -49.714844 L -85.589844 -24.496094 L -29.402344 -1.15625 L 17.476562 18.316406 L 54.890625 33.855469 L 89.578125 48.265625 L 117.234375 59.753906 L 140.550781 69.441406 L 162.207031 78.433594 L 179.484375 85.613281 L 195.484375 92.257812 L 208.839844 97.804688 L 219.5 102.234375 L 229.390625 106.339844 L 237.277344 109.617188 L 243.929688 112.382812 L 250.113281 114.949219 L 255.046875 117 L 259.621094 118.898438 L 263.265625 120.414062 L 266.335938 121.6875 L 269.1875 122.875 L 271.464844 123.820312 L 273.570312 124.691406 L 275.328125 125.421875 L 276.730469 126.007812 L 278.03125 126.546875 L 279.070312 126.976562 L 279.945312 127.339844 L 280.757812 127.679688 L 281.40625 127.949219 L 281.414062 127.953125 L 281.425781 127.957031 L 281.445312 127.964844 L 281.488281 127.980469 L 281.570312 128.015625 L 281.726562 128.082031 L 281.734375 128.085938 L 281.746094 128.089844 L 281.765625 128.097656 L 281.800781 128.113281 L 281.875 128.144531 L 281.886719 128.148438 L 281.894531 128.152344 L 281.914062 128.160156 L 281.949219 128.175781 L 281.957031 128.175781 L 281.96875 128.179688 L 281.984375 128.1875 L 281.996094 128.191406 L 282.019531 128.203125 "/>
</g>
<path fill="none" stroke-width="1.2942" stroke-linecap="square" stroke-linejoin="miter" stroke="rgb(0%, 0%, 0%)" stroke-opacity="1" stroke-miterlimit="3.25" d="M -42.296875 -107.347656 L 18.5625 -46.371094 L 61.125 -3.722656 L 95.703125 30.925781 L 119.824219 55.09375 L 137.726562 73.035156 L 152.308594 87.644531 L 162.5 97.855469 L 170.761719 106.136719 L 176.777344 112.160156 L 180.984375 116.375 L 184.40625 119.804688 L 186.792969 122.199219 L 188.566406 123.976562 L 191.027344 126.4375 L 191.847656 127.261719 L 192.417969 127.835938 L 192.84375 128.261719 L 193.191406 128.605469 L 193.429688 128.847656 L 193.769531 129.1875 L 193.867188 129.289062 L 193.949219 129.367188 L 194.007812 129.425781 L 194.046875 129.46875 L 194.082031 129.5 L 194.105469 129.527344 L 194.109375 129.527344 L 194.117188 129.535156 L 194.117188 129.539062 L 194.121094 129.539062 L 194.121094 129.542969 L 194.125 129.542969 L 194.125 129.546875 "/>
<path fill="none" stroke-width="1.2942" stroke-linecap="square" stroke-linejoin="miter" stroke="rgb(0%, 0%, 0%)" stroke-opacity="1" stroke-miterlimit="3.25" d="M 57.632812 -109.347656 L 87.636719 -36.703125 L 109.957031 17.335938 L 124.199219 51.8125 L 133.90625 75.3125 L 141.148438 92.851562 L 145.78125 104.066406 L 149.222656 112.394531 L 151.503906 117.921875 L 152.96875 121.464844 L 154.058594 124.101562 L 154.753906 125.785156 L 155.226562 126.933594 L 155.582031 127.792969 L 155.808594 128.34375 L 155.976562 128.753906 L 156.085938 129.011719 L 156.160156 129.191406 L 156.214844 129.324219 L 156.25 129.40625 L 156.273438 129.46875 L 156.292969 129.511719 L 156.300781 129.539062 L 156.3125 129.558594 L 156.316406 129.570312 L 156.324219 129.585938 L 156.324219 129.59375 "/>
<path fill="none" stroke-width="1.2942" stroke-linecap="square" stroke-linejoin="miter" stroke="rgb(0%, 0%, 0%)" stroke-opacity="1" stroke-miterlimit="3.25" d="M 129.714844 -50.074219 L 129.652344 12.152344 L 129.613281 50.632812 L 129.589844 76.089844 L 129.570312 94.519531 L 129.558594 105.941406 L 129.550781 114.164062 L 129.546875 119.449219 L 129.542969 122.734375 L 129.539062 125.105469 L 129.539062 127.546875 L 129.535156 128.253906 L 129.535156 129.597656 "/>
<path fill="none" stroke-width="1.2942" stroke-linecap="square" stroke-linejoin="miter" stroke="rgb(0%, 0%, 0%)" stroke-opacity="1" stroke-miterlimit="3.25" d="M 201.867188 -109.089844 L 171.746094 -36.574219 L 149.332031 17.386719 L 135.027344 51.828125 L 125.273438 75.304688 L 117.992188 92.835938 L 113.335938 104.046875 L 109.875 112.375 L 107.578125 117.902344 L 106.105469 121.449219 L 105.007812 124.089844 L 104.308594 125.777344 L 103.832031 126.929688 L 103.472656 127.789062 L 103.242188 128.339844 L 103.074219 128.75 L 102.964844 129.011719 L 102.890625 129.1875 L 102.835938 129.320312 L 102.800781 129.40625 L 102.773438 129.46875 L 102.757812 129.511719 L 102.746094 129.539062 L 102.738281 129.558594 L 102.730469 129.570312 L 102.730469 129.578125 L 102.726562 129.585938 L 102.722656 129.589844 L 102.722656 129.59375 "/>
<g clip-path="url(#clip-4)">
<path fill="none" stroke-width="1.2942" stroke-linecap="square" stroke-linejoin="miter" stroke="rgb(0%, 0%, 0%)" stroke-opacity="1" stroke-miterlimit="3.25" d="M 301.570312 -106.734375 L 240.730469 -46.019531 L 198.15625 -3.527344 L 163.550781 31.007812 L 139.394531 55.117188 L 121.453125 73.019531 L 106.835938 87.609375 L 96.613281 97.808594 L 88.320312 106.089844 L 82.28125 112.113281 L 78.050781 116.335938 L 74.613281 119.769531 L 72.210938 122.167969 L 70.421875 123.949219 L 68.964844 125.402344 L 67.945312 126.417969 L 67.121094 127.246094 L 66.542969 127.824219 L 66.113281 128.25 L 65.761719 128.597656 L 65.519531 128.84375 L 65.320312 129.039062 L 65.175781 129.183594 L 65.078125 129.285156 L 64.996094 129.367188 L 64.9375 129.421875 L 64.835938 129.523438 L 64.835938 129.527344 L 64.832031 129.527344 L 64.832031 129.53125 L 64.824219 129.535156 L 64.824219 129.539062 L 64.820312 129.539062 L 64.820312 129.542969 L 64.816406 129.542969 "/>
</g>
<g clip-path="url(#clip-5)">
<path fill="none" stroke-width="1.2942" stroke-linecap="square" stroke-linejoin="miter" stroke="rgb(0%, 0%, 0%)" stroke-opacity="1" stroke-miterlimit="3.25" d="M 480.714844 -80.136719 L 404.941406 -48.835938 L 344.453125 -23.855469 L 288.433594 -0.714844 L 241.660156 18.605469 L 204.296875 34.039062 L 169.632812 48.355469 L 141.972656 59.777344 L 118.636719 69.417969 L 96.949219 78.375 L 79.628906 85.53125 L 63.582031 92.160156 L 50.175781 97.695312 L 39.464844 102.121094 L 29.523438 106.226562 L 21.585938 109.503906 L 14.886719 112.269531 L 8.65625 114.84375 L 3.683594 116.898438 L -0.929688 118.804688 L -4.613281 120.324219 L -7.71875 121.609375 L -10.601562 122.800781 L -12.90625 123.75 L -15.039062 124.632812 L -16.820312 125.367188 L -18.242188 125.957031 L -19.5625 126.5 L -20.617188 126.9375 L -21.507812 127.304688 L -22.335938 127.644531 L -22.996094 127.917969 L -23.003906 127.921875 L -23.015625 127.925781 L -23.035156 127.933594 L -23.078125 127.953125 L -23.160156 127.988281 L -23.320312 128.054688 L -23.332031 128.058594 L -23.339844 128.0625 L -23.476562 128.117188 L -23.484375 128.121094 L -23.496094 128.125 L -23.511719 128.132812 L -23.550781 128.148438 L -23.558594 128.152344 L -23.570312 128.15625 L -23.585938 128.164062 L -23.597656 128.167969 L -23.613281 128.175781 L -23.625 128.175781 "/>
</g>
<g clip-path="url(#clip-6)">
<path fill="none" stroke-width="1.2942" stroke-linecap="square" stroke-linejoin="miter" stroke="rgb(0%, 0%, 0%)" stroke-opacity="1" stroke-miterlimit="3.25" d="M 511.21875 65.273438 L 485.726562 65.246094 L 460.722656 65.222656 L 433.582031 65.195312 L 408.246094 65.167969 L 380.773438 65.140625 L 353.792969 65.113281 L 328.617188 65.089844 L 301.304688 65.0625 L 275.800781 65.035156 L 248.152344 65.007812 L 220.996094 64.980469 L 195.652344 64.957031 L 168.160156 64.929688 L 142.484375 64.902344 L 117.300781 64.878906 L 89.972656 64.851562 L 64.457031 64.824219 L 36.792969 64.796875 L 9.621094 64.769531 L -15.734375 64.746094 L -43.238281 64.71875 L -68.925781 64.691406 L -94.117188 64.667969 L -121.464844 64.640625 L -146.988281 64.613281 L -174.667969 64.585938 L -200.527344 64.558594 L -225.890625 64.535156 L -253.410156 64.507812 "/>
</g>
<g clip-path="url(#clip-7)">
<path fill="none" stroke-width="1.2942" stroke-linecap="square" stroke-linejoin="miter" stroke="rgb(0%, 0%, 0%)" stroke-opacity="1" stroke-miterlimit="3.25" d="M 282.019531 128.203125 L 282.003906 128.195312 L 281.988281 128.191406 L 281.957031 128.175781 L 281.757812 128.09375 L 281.476562 127.976562 L 280.78125 127.6875 L 280.023438 127.375 L 279.160156 127.015625 L 278.066406 126.558594 L 276.871094 126.0625 L 275.351562 125.433594 L 273.601562 124.707031 L 271.691406 123.914062 L 269.273438 122.90625 L 266.628906 121.808594 L 263.613281 120.558594 L 259.792969 118.96875 L 255.625 117.238281 L 250.339844 115.042969 L 244.238281 112.507812 L 237.589844 109.75 L 229.164062 106.246094 L 219.964844 102.425781 L 208.289062 97.574219 L 194.796875 91.972656 L 180.09375 85.863281 L 161.441406 78.117188 L 141.054688 69.648438 L 117.820312 59.996094 L 88.359375 47.761719 L 56.214844 34.40625 L 15.429688 17.464844 L -31.667969 -2.097656 L -82.972656 -23.410156 L -148.039062 -50.4375 L -219.105469 -79.957031 "/>
</g>
<path fill="none" stroke-width="1.2942" stroke-linecap="square" stroke-linejoin="miter" stroke="rgb(0%, 0%, 0%)" stroke-opacity="1" stroke-miterlimit="3.25" d="M 194.125 129.546875 L 194.125 129.542969 L 194.121094 129.542969 L 194.117188 129.539062 L 194.109375 129.527344 L 194.082031 129.503906 L 194.050781 129.472656 L 194.011719 129.429688 L 193.878906 129.296875 L 193.769531 129.191406 L 193.628906 129.046875 L 193.199219 128.617188 L 192.882812 128.296875 L 192.46875 127.886719 L 191.875 127.289062 L 191.136719 126.550781 L 190.0625 125.472656 L 188.644531 124.050781 L 186.882812 122.285156 L 184.332031 119.730469 L 181.15625 116.546875 L 176.542969 111.929688 L 170.433594 105.804688 L 162.835938 98.191406 L 151.828125 87.164062 L 138.089844 73.398438 L 120.300781 55.574219 L 94.570312 29.792969 L 62.535156 -2.308594 L 16.078125 -48.859375 L -45.445312 -110.503906 "/>
<path fill="none" stroke-width="1.2942" stroke-linecap="square" stroke-linejoin="miter" stroke="rgb(0%, 0%, 0%)" stroke-opacity="1" stroke-miterlimit="3.25" d="M 156.324219 129.59375 L 156.324219 129.585938 L 156.320312 129.582031 L 156.316406 129.574219 L 156.3125 129.558594 L 156.304688 129.542969 L 156.292969 129.511719 L 156.273438 129.472656 L 156.25 129.414062 L 156.214844 129.328125 L 156.164062 129.207031 L 156.09375 129.035156 L 155.984375 128.765625 L 155.832031 128.402344 L 155.59375 127.820312 L 155.246094 126.984375 L 154.777344 125.84375 L 154.035156 124.046875 L 153.023438 121.601562 L 151.421875 117.71875 L 149.089844 112.074219 L 145.929688 104.421875 L 140.921875 92.300781 L 134.09375 75.769531 L 124.46875 52.464844 L 109.261719 15.648438 L 88.585938 -34.40625 L 55.808594 -113.765625 "/>
<g clip-path="url(#clip-8)">
<path fill="none" stroke-width="0.36" stroke-linecap="butt" stroke-linejoin="miter" stroke="rgb(0%, 0%, 0%)" stroke-opacity="1" stroke-miterlimit="3.25" d="M 0.179688 129.601562 L 259.019531 129.601562 "/>
</g>
<g clip-path="url(#clip-9)">
<path fill="none" stroke-width="0.36" stroke-linecap="butt" stroke-linejoin="miter" stroke="rgb(0%, 0%, 0%)" stroke-opacity="1" stroke-miterlimit="3.25" d="M 129.601562 136.070312 L 129.601562 0.179688 "/>
</g>
</svg>
