<?xml version="1.0" encoding="UTF-8"?>
<svg xmlns="http://www.w3.org/2000/svg" xmlns:xlink="http://www.w3.org/1999/xlink" width="260pt" height="137pt" viewBox="0 0 260 137">
<defs>
<clipPath id="clip-0">
<path clip-rule="nonzero" d="M 248 0 L 259.199219 0 L 259.199219 4 L 248 4 Z M 248 0 "/>
</clipPath>
<clipPath id="clip-1">
<path clip-rule="nonzero" d="M 0 129 L 259.199219 129 L 259.199219 130 L 0 130 Z M 0 129 "/>
</clipPath>
<clipPath id="clip-2">
<path clip-rule="nonzero" d="M 129 0 L 130 0 L 130 136.320312 L 129 136.320312 Z M 129 0 "/>
</clipPath>
</defs>
<path fill="none" stroke-width="1.2942" stroke-linecap="square" stroke-linejoin="miter" stroke="rgb(0.518799%, 9.823608%, 34.983826%)" stroke-opacity="1" stroke-miterlimit="3.25" d="M 129.601562 -129.238281 L 129.601562 129.601562 "/>
<path fill-rule="evenodd" fill="rgb(95.068359%, 61.663818%, 42.861938%)" fill-opacity="1" d="M 130.246094 129.601562 C 130.246094 129.773438 130.179688 129.9375 130.058594 130.058594 C 129.9375 130.179688 129.773438 130.246094 129.601562 130.246094 C 129.429688 130.246094 129.265625 130.179688 129.140625 130.058594 C 129.019531 129.9375 128.953125 129.773438 128.953125 129.601562 C 128.953125 129.429688 129.019531 129.265625 129.140625 129.140625 C 129.265625 129.019531 129.429688 128.953125 129.601562 128.953125 C 129.773438 128.953125 129.9375 129.019531 130.058594 129.140625 C 130.179688 129.265625 130.246094 129.429688 130.246094 129.601562 Z M 130.246094 129.601562 "/>
<path fill-rule="evenodd" fill="rgb(95.068359%, 61.663818%, 42.861938%)" fill-opacity="1" d="M 130.246094 123.128906 C 130.246094 123.300781 130.179688 123.464844 130.058594 123.585938 C 129.9375 123.707031 129.773438 123.777344 129.601562 123.777344 C 129.429688 123.777344 129.265625 123.707031 129.140625 123.585938 C 129.019531 123.464844 128.953125 123.300781 128.953125 123.128906 C 128.953125 122.957031 129.019531 122.792969 129.140625 122.671875 C 129.265625 122.550781 129.429688 122.480469 129.601562 122.480469 C 129.773438 122.480469 129.9375 122.550781 130.058594 122.671875 C 130.179688 122.792969 130.246094 122.957031 130.246094 123.128906 Z M 130.246094 123.128906 "/>
<path fill-rule="evenodd" fill="rgb(95.068359%, 61.663818%, 42.861938%)" fill-opacity="1" d="M 125.71875 120.40625 L 125.871094 120.714844 L 126.203125 121.457031 L 126.378906 121.90625 L 126.53125 122.355469 L 126.636719 122.773438 L 126.671875 123.128906 L 126.636719 123.449219 L 126.53125 123.863281 L 126.378906 124.328125 L 126.203125 124.804688 L 125.871094 125.617188 L 125.71875 125.960938 L 136.070312 123.128906 Z M 125.71875 120.40625 "/>
<path fill="none" stroke-width="1.2942" stroke-linecap="butt" stroke-linejoin="miter" stroke="rgb(95.068359%, 61.663818%, 42.861938%)" stroke-opacity="1" stroke-miterlimit="3.25" d="M 129.601562 116.65625 L 133.144531 116.65625 "/>
<path fill-rule="evenodd" fill="rgb(95.068359%, 61.663818%, 42.861938%)" fill-opacity="1" d="M 132.1875 113.933594 L 132.339844 114.242188 L 132.671875 114.988281 L 132.847656 115.433594 L 133 115.882812 L 133.109375 116.304688 L 133.144531 116.65625 L 133.109375 116.976562 L 133 117.390625 L 132.847656 117.859375 L 132.671875 118.332031 L 132.339844 119.144531 L 132.1875 119.492188 L 142.542969 116.65625 Z M 132.1875 113.933594 "/>
<path fill="none" stroke-width="1.2942" stroke-linecap="butt" stroke-linejoin="miter" stroke="rgb(95.068359%, 61.663818%, 42.861938%)" stroke-opacity="1" stroke-miterlimit="3.25" d="M 129.601562 110.1875 L 139.613281 110.1875 "/>
<path fill-rule="evenodd" fill="rgb(95.068359%, 61.663818%, 42.861938%)" fill-opacity="1" d="M 138.660156 107.460938 L 138.8125 107.773438 L 139.144531 108.515625 L 139.320312 108.960938 L 139.472656 109.414062 L 139.578125 109.832031 L 139.613281 110.1875 L 139.578125 110.507812 L 139.472656 110.921875 L 139.320312 111.386719 L 139.144531 111.863281 L 138.8125 112.675781 L 138.660156 113.019531 L 149.011719 110.1875 Z M 138.660156 107.460938 "/>
<path fill="none" stroke-width="1.2942" stroke-linecap="butt" stroke-linejoin="miter" stroke="rgb(95.068359%, 61.663818%, 42.861938%)" stroke-opacity="1" stroke-miterlimit="3.25" d="M 129.601562 103.714844 L 146.085938 103.714844 "/>
<path fill-rule="evenodd" fill="rgb(95.068359%, 61.663818%, 42.861938%)" fill-opacity="1" d="M 145.128906 100.992188 L 145.28125 101.300781 L 145.613281 102.042969 L 145.789062 102.492188 L 145.945312 102.941406 L 146.050781 103.363281 L 146.085938 103.714844 L 146.050781 104.035156 L 145.945312 104.449219 L 145.789062 104.917969 L 145.613281 105.390625 L 145.28125 106.203125 L 145.128906 106.550781 L 155.484375 103.714844 Z M 145.128906 100.992188 "/>
<path fill="none" stroke-width="1.2942" stroke-linecap="butt" stroke-linejoin="miter" stroke="rgb(95.068359%, 61.663818%, 42.861938%)" stroke-opacity="1" stroke-miterlimit="3.25" d="M 129.601562 97.246094 L 152.558594 97.246094 "/>
<path fill-rule="evenodd" fill="rgb(95.068359%, 61.663818%, 42.861938%)" fill-opacity="1" d="M 151.601562 94.519531 L 151.753906 94.832031 L 152.085938 95.574219 L 152.261719 96.019531 L 152.414062 96.472656 L 152.519531 96.890625 L 152.558594 97.246094 L 152.519531 97.566406 L 152.414062 97.980469 L 152.261719 98.445312 L 152.085938 98.921875 L 151.753906 99.734375 L 151.601562 100.078125 L 161.953125 97.246094 Z M 151.601562 94.519531 "/>
<path fill="none" stroke-width="1.2942" stroke-linecap="butt" stroke-linejoin="miter" stroke="rgb(95.068359%, 61.663818%, 42.861938%)" stroke-opacity="1" stroke-miterlimit="3.25" d="M 129.601562 90.773438 L 159.027344 90.773438 "/>
<path fill-rule="evenodd" fill="rgb(95.068359%, 61.663818%, 42.861938%)" fill-opacity="1" d="M 158.074219 88.050781 L 158.222656 88.359375 L 158.554688 89.101562 L 158.734375 89.550781 L 158.886719 90 L 158.992188 90.421875 L 159.027344 90.773438 L 158.992188 91.09375 L 158.886719 91.507812 L 158.734375 91.972656 L 158.554688 92.449219 L 158.222656 93.261719 L 158.074219 93.609375 L 168.425781 90.773438 Z M 158.074219 88.050781 "/>
<path fill="none" stroke-width="1.2942" stroke-linecap="butt" stroke-linejoin="miter" stroke="rgb(95.068359%, 61.663818%, 42.861938%)" stroke-opacity="1" stroke-miterlimit="3.25" d="M 129.601562 84.304688 L 165.5 84.304688 "/>
<path fill-rule="evenodd" fill="rgb(95.068359%, 61.663818%, 42.861938%)" fill-opacity="1" d="M 164.542969 81.578125 L 164.695312 81.886719 L 165.027344 82.632812 L 165.203125 83.078125 L 165.355469 83.53125 L 165.460938 83.949219 L 165.5 84.304688 L 165.460938 84.625 L 165.355469 85.039062 L 165.203125 85.503906 L 165.027344 85.980469 L 164.695312 86.792969 L 164.542969 87.136719 L 174.898438 84.304688 Z M 164.542969 81.578125 "/>
<path fill="none" stroke-width="1.2942" stroke-linecap="butt" stroke-linejoin="miter" stroke="rgb(95.068359%, 61.663818%, 42.861938%)" stroke-opacity="1" stroke-miterlimit="3.25" d="M 129.601562 77.832031 L 171.96875 77.832031 "/>
<path fill-rule="evenodd" fill="rgb(95.068359%, 61.663818%, 42.861938%)" fill-opacity="1" d="M 171.015625 75.105469 L 171.167969 75.417969 L 171.5 76.160156 L 171.675781 76.609375 L 171.828125 77.058594 L 171.933594 77.476562 L 171.96875 77.832031 L 171.933594 78.152344 L 171.828125 78.566406 L 171.675781 79.03125 L 171.5 79.507812 L 171.167969 80.320312 L 171.015625 80.664062 L 181.367188 77.832031 Z M 171.015625 75.105469 "/>
<path fill="none" stroke-width="1.2942" stroke-linecap="butt" stroke-linejoin="miter" stroke="rgb(95.068359%, 61.663818%, 42.861938%)" stroke-opacity="1" stroke-miterlimit="3.25" d="M 129.601562 71.359375 L 178.441406 71.359375 "/>
<path fill-rule="evenodd" fill="rgb(95.068359%, 61.663818%, 42.861938%)" fill-opacity="1" d="M 177.484375 68.636719 L 177.636719 68.945312 L 177.96875 69.691406 L 178.144531 70.136719 L 178.296875 70.585938 L 178.40625 71.007812 L 178.441406 71.359375 L 178.40625 71.679688 L 178.296875 72.09375 L 178.144531 72.5625 L 177.96875 73.035156 L 177.636719 73.847656 L 177.484375 74.195312 L 187.839844 71.359375 Z M 177.484375 68.636719 "/>
<path fill="none" stroke-width="1.2942" stroke-linecap="butt" stroke-linejoin="miter" stroke="rgb(95.068359%, 61.663818%, 42.861938%)" stroke-opacity="1" stroke-miterlimit="3.25" d="M 129.601562 64.890625 L 184.910156 64.890625 "/>
<path fill-rule="evenodd" fill="rgb(95.068359%, 61.663818%, 42.861938%)" fill-opacity="1" d="M 183.957031 62.164062 L 184.109375 62.476562 L 184.441406 63.21875 L 184.617188 63.664062 L 184.769531 64.117188 L 184.875 64.535156 L 184.910156 64.890625 L 184.875 65.210938 L 184.769531 65.625 L 184.617188 66.089844 L 184.441406 66.566406 L 184.109375 67.378906 L 183.957031 67.722656 L 194.308594 64.890625 Z M 183.957031 62.164062 "/>
<path fill="none" stroke-width="1.2942" stroke-linecap="butt" stroke-linejoin="miter" stroke="rgb(95.068359%, 61.663818%, 42.861938%)" stroke-opacity="1" stroke-miterlimit="3.25" d="M 129.601562 58.417969 L 191.382812 58.417969 "/>
<path fill-rule="evenodd" fill="rgb(95.068359%, 61.663818%, 42.861938%)" fill-opacity="1" d="M 190.425781 55.695312 L 190.578125 56.003906 L 190.910156 56.746094 L 191.085938 57.195312 L 191.242188 57.644531 L 191.347656 58.066406 L 191.382812 58.417969 L 191.347656 58.738281 L 191.242188 59.152344 L 191.085938 59.621094 L 190.910156 60.09375 L 190.578125 60.90625 L 190.425781 61.253906 L 200.78125 58.417969 Z M 190.425781 55.695312 "/>
<path fill="none" stroke-width="1.2942" stroke-linecap="butt" stroke-linejoin="miter" stroke="rgb(95.068359%, 61.663818%, 42.861938%)" stroke-opacity="1" stroke-miterlimit="3.25" d="M 129.601562 51.949219 L 197.855469 51.949219 "/>
<path fill-rule="evenodd" fill="rgb(95.068359%, 61.663818%, 42.861938%)" fill-opacity="1" d="M 196.898438 49.222656 L 197.050781 49.535156 L 197.382812 50.277344 L 197.558594 50.722656 L 197.710938 51.175781 L 197.816406 51.59375 L 197.855469 51.949219 L 197.816406 52.269531 L 197.710938 52.683594 L 197.558594 53.148438 L 197.382812 53.625 L 197.050781 54.4375 L 196.898438 54.78125 L 207.253906 51.949219 Z M 196.898438 49.222656 "/>
<path fill="none" stroke-width="1.2942" stroke-linecap="butt" stroke-linejoin="miter" stroke="rgb(95.068359%, 61.663818%, 42.861938%)" stroke-opacity="1" stroke-miterlimit="3.25" d="M 129.601562 45.476562 L 204.324219 45.476562 "/>
<path fill-rule="evenodd" fill="rgb(95.068359%, 61.663818%, 42.861938%)" fill-opacity="1" d="M 203.371094 42.753906 L 203.519531 43.0625 L 203.851562 43.804688 L 204.03125 44.253906 L 204.183594 44.703125 L 204.289062 45.125 L 204.324219 45.476562 L 204.289062 45.796875 L 204.183594 46.210938 L 204.03125 46.675781 L 203.851562 47.152344 L 203.519531 47.964844 L 203.371094 48.3125 L 213.722656 45.476562 Z M 203.371094 42.753906 "/>
<path fill="none" stroke-width="1.2942" stroke-linecap="butt" stroke-linejoin="miter" stroke="rgb(95.068359%, 61.663818%, 42.861938%)" stroke-opacity="1" stroke-miterlimit="3.25" d="M 129.601562 39.007812 L 210.796875 39.007812 "/>
<path fill-rule="evenodd" fill="rgb(95.068359%, 61.663818%, 42.861938%)" fill-opacity="1" d="M 209.839844 36.28125 L 209.992188 36.589844 L 210.324219 37.335938 L 210.5 37.78125 L 210.652344 38.234375 L 210.757812 38.652344 L 210.796875 39.007812 L 210.757812 39.324219 L 210.652344 39.742188 L 210.5 40.207031 L 210.324219 40.683594 L 209.992188 41.492188 L 209.839844 41.839844 L 220.195312 39.007812 Z M 209.839844 36.28125 "/>
<path fill="none" stroke-width="1.2942" stroke-linecap="butt" stroke-linejoin="miter" stroke="rgb(95.068359%, 61.663818%, 42.861938%)" stroke-opacity="1" stroke-miterlimit="3.25" d="M 129.601562 32.535156 L 217.265625 32.535156 "/>
<path fill-rule="evenodd" fill="rgb(95.068359%, 61.663818%, 42.861938%)" fill-opacity="1" d="M 216.3125 29.808594 L 216.464844 30.121094 L 216.796875 30.863281 L 216.972656 31.3125 L 217.125 31.761719 L 217.230469 32.179688 L 217.265625 32.535156 L 217.230469 32.855469 L 217.125 33.269531 L 216.972656 33.734375 L 216.796875 34.210938 L 216.464844 35.023438 L 216.3125 35.367188 L 226.664062 32.535156 Z M 216.3125 29.808594 "/>
<path fill="none" stroke-width="1.2942" stroke-linecap="butt" stroke-linejoin="miter" stroke="rgb(95.068359%, 61.663818%, 42.861938%)" stroke-opacity="1" stroke-miterlimit="3.25" d="M 129.601562 26.0625 L 223.738281 26.0625 "/>
<path fill-rule="evenodd" fill="rgb(95.068359%, 61.663818%, 42.861938%)" fill-opacity="1" d="M 222.78125 23.339844 L 222.933594 23.648438 L 223.265625 24.394531 L 223.441406 24.839844 L 223.59375 25.289062 L 223.703125 25.710938 L 223.738281 26.0625 L 223.703125 26.382812 L 223.59375 26.796875 L 223.441406 27.265625 L 223.265625 27.738281 L 222.933594 28.550781 L 222.78125 28.898438 L 233.136719 26.0625 Z M 222.78125 23.339844 "/>
<path fill="none" stroke-width="1.2942" stroke-linecap="butt" stroke-linejoin="miter" stroke="rgb(95.068359%, 61.663818%, 42.861938%)" stroke-opacity="1" stroke-miterlimit="3.25" d="M 129.601562 19.59375 L 230.210938 19.59375 "/>
<path fill-rule="evenodd" fill="rgb(95.068359%, 61.663818%, 42.861938%)" fill-opacity="1" d="M 229.253906 16.867188 L 229.40625 17.179688 L 229.738281 17.921875 L 229.914062 18.367188 L 230.066406 18.820312 L 230.171875 19.238281 L 230.210938 19.59375 L 230.171875 19.914062 L 230.066406 20.328125 L 229.914062 20.792969 L 229.738281 21.269531 L 229.40625 22.082031 L 229.253906 22.425781 L 239.605469 19.59375 Z M 229.253906 16.867188 "/>
<path fill="none" stroke-width="1.2942" stroke-linecap="butt" stroke-linejoin="miter" stroke="rgb(95.068359%, 61.663818%, 42.861938%)" stroke-opacity="1" stroke-miterlimit="3.25" d="M 129.601562 13.121094 L 236.679688 13.121094 "/>
<path fill-rule="evenodd" fill="rgb(95.068359%, 61.663818%, 42.861938%)" fill-opacity="1" d="M 235.722656 10.398438 L 235.875 10.707031 L 236.207031 11.449219 L 236.382812 11.898438 L 236.539062 12.347656 L 236.644531 12.769531 L 236.679688 13.121094 L 236.644531 13.441406 L 236.539062 13.855469 L 236.382812 14.320312 L 236.207031 14.796875 L 235.875 15.609375 L 235.722656 15.957031 L 246.078125 13.121094 Z M 235.722656 10.398438 "/>
<path fill="none" stroke-width="1.2942" stroke-linecap="butt" stroke-linejoin="miter" stroke="rgb(95.068359%, 61.663818%, 42.861938%)" stroke-opacity="1" stroke-miterlimit="3.25" d="M 129.601562 6.652344 L 243.152344 6.652344 "/>
<path fill-rule="evenodd" fill="rgb(95.068359%, 61.663818%, 42.861938%)" fill-opacity="1" d="M 242.195312 3.925781 L 242.347656 4.234375 L 242.679688 4.980469 L 242.855469 5.425781 L 243.007812 5.878906 L 243.113281 6.296875 L 243.152344 6.652344 L 243.113281 6.972656 L 243.007812 7.386719 L 242.855469 7.851562 L 242.679688 8.328125 L 242.347656 9.140625 L 242.195312 9.484375 L 252.550781 6.652344 Z M 242.195312 3.925781 "/>
<path fill="none" stroke-width="1.2942" stroke-linecap="butt" stroke-linejoin="miter" stroke="rgb(95.068359%, 61.663818%, 42.861938%)" stroke-opacity="1" stroke-miterlimit="3.25" d="M 129.601562 0.179688 L 249.621094 0.179688 "/>
<g clip-path="url(#clip-0)">
<path fill-rule="evenodd" fill="rgb(95.068359%, 61.663818%, 42.861938%)" fill-opacity="1" d="M 248.667969 -2.542969 L 248.816406 -2.234375 L 249.148438 -1.492188 L 249.328125 -1.042969 L 249.480469 -0.59375 L 249.585938 -0.171875 L 249.621094 0.179688 L 249.585938 0.5 L 249.480469 0.914062 L 249.328125 1.378906 L 249.148438 1.855469 L 248.816406 2.667969 L 248.667969 3.011719 L 259.019531 0.179688 Z M 248.667969 -2.542969 "/>
</g>
<g clip-path="url(#clip-1)">
<path fill="none" stroke-width="0.36" stroke-linecap="butt" stroke-linejoin="miter" stroke="rgb(0%, 0%, 0%)" stroke-opacity="1" stroke-miterlimit="3.25" d="M 0.179688 129.601562 L 259.019531 129.601562 "/>
</g>
<g clip-path="url(#clip-2)">
<path fill="none" stroke-width="0.36" stroke-linecap="butt" stroke-linejoin="miter" stroke="rgb(0%, 0%, 0%)" stroke-opacity="1" stroke-miterlimit="3.25" d="M 129.601562 136.070312 L 129.601562 0.179688 "/>
</g>
</svg>
