<?xml version="1.0" encoding="UTF-8"?>
<svg xmlns="http://www.w3.org/2000/svg" xmlns:xlink="http://www.w3.org/1999/xlink" width="260pt" height="217pt" viewBox="0 0 260 217">
<defs>
<clipPath id="clip-0">
<path clip-rule="nonzero" d="M 210 0 L 213 0 L 213 216.238281 L 210 216.238281 Z M 210 0 "/>
</clipPath>
</defs>
<path fill="none" stroke-width="1.944" stroke-linecap="square" stroke-linejoin="miter" stroke="rgb(0.518799%, 9.823608%, 34.983826%)" stroke-opacity="1" stroke-miterlimit="3.25" d="M 211.339844 108.054688 C 211.339844 135.394531 200.480469 161.613281 181.148438 180.941406 C 161.820312 200.273438 135.601562 211.132812 108.261719 211.132812 C 80.925781 211.132812 54.707031 200.273438 35.375 180.941406 C 16.042969 161.613281 5.183594 135.394531 5.183594 108.054688 C 5.183594 80.71875 16.042969 54.5 35.375 35.167969 C 54.707031 15.835938 80.925781 4.976562 108.261719 4.976562 C 135.601562 4.976562 161.820312 15.835938 181.148438 35.167969 C 200.480469 54.5 211.339844 80.71875 211.339844 108.054688 Z M 211.339844 108.054688 "/>
<g clip-path="url(#clip-0)">
<path fill="none" stroke-width="1.944" stroke-linecap="square" stroke-linejoin="miter" stroke="rgb(95.068359%, 61.663818%, 42.861938%)" stroke-opacity="1" stroke-miterlimit="3.25" d="M 211.339844 216.109375 L 211.339844 0 "/>
</g>
</svg>
