<?xml version="1.0" encoding="UTF-8"?>
<svg xmlns="http://www.w3.org/2000/svg" xmlns:xlink="http://www.w3.org/1999/xlink" width="260pt" height="87pt" viewBox="0 0 260 87">
<defs>
<clipPath id="clip-0">
<path clip-rule="nonzero" d="M 0 40 L 259.199219 40 L 259.199219 43 L 0 43 Z M 0 40 "/>
</clipPath>
<clipPath id="clip-1">
<path clip-rule="nonzero" d="M 254 71 L 259.199219 71 L 259.199219 83 L 254 83 Z M 254 71 "/>
</clipPath>
<clipPath id="clip-2">
<path clip-rule="nonzero" d="M 258 41 L 259.199219 41 L 259.199219 74 L 258 74 Z M 258 41 "/>
</clipPath>
<clipPath id="clip-3">
<path clip-rule="nonzero" d="M 256 72 L 259.199219 72 L 259.199219 83 L 256 83 Z M 256 72 "/>
</clipPath>
<clipPath id="clip-4">
<path clip-rule="nonzero" d="M 0 82 L 259.199219 82 L 259.199219 83 L 0 83 Z M 0 82 "/>
</clipPath>
<clipPath id="clip-5">
<path clip-rule="nonzero" d="M 129 0 L 130 0 L 130 86.878906 L 129 86.878906 Z M 129 0 "/>
</clipPath>
</defs>
<g clip-path="url(#clip-0)">
<path fill="none" stroke-width="1.2942" stroke-linecap="square" stroke-linejoin="miter" stroke="rgb(0.518799%, 9.823608%, 34.983826%)" stroke-opacity="1" stroke-miterlimit="3.25" d="M 0.179688 41.375 L 259.019531 41.375 "/>
</g>
<path fill="none" stroke-width="1.2942" stroke-linecap="butt" stroke-linejoin="miter" stroke="rgb(95.068359%, 61.663818%, 42.861938%)" stroke-opacity="1" stroke-miterlimit="3.25" d="M 0.179688 41.375 L 0.179688 73.171875 "/>
<path fill-rule="evenodd" fill="rgb(95.068359%, 61.663818%, 42.861938%)" fill-opacity="1" d="M 2.90625 72.21875 L 2.59375 72.371094 L 1.851562 72.703125 L 1.402344 72.878906 L 0.953125 73.03125 L 0.535156 73.136719 L 0.179688 73.171875 L -0.140625 73.136719 L -0.554688 73.03125 L -1.019531 72.878906 L -1.496094 72.703125 L -2.308594 72.371094 L -2.652344 72.21875 L 0.179688 82.570312 Z M 2.90625 72.21875 "/>
<path fill="none" stroke-width="1.2942" stroke-linecap="butt" stroke-linejoin="miter" stroke="rgb(95.068359%, 61.663818%, 42.861938%)" stroke-opacity="1" stroke-miterlimit="3.25" d="M 6.652344 41.375 L 1.675781 72.78125 "/>
<path fill-rule="evenodd" fill="rgb(95.068359%, 61.663818%, 42.861938%)" fill-opacity="1" d="M 4.515625 72.265625 L 4.1875 72.367188 L 3.402344 72.578125 L 2.933594 72.683594 L 2.460938 72.761719 L 2.03125 72.800781 L 1.675781 72.78125 L 1.367188 72.695312 L 0.972656 72.527344 L 0.539062 72.300781 L 0.09375 72.054688 L -0.65625 71.597656 L -0.972656 71.394531 L 0.207031 82.0625 Z M 4.515625 72.265625 "/>
<path fill="none" stroke-width="1.2942" stroke-linecap="butt" stroke-linejoin="miter" stroke="rgb(95.068359%, 61.663818%, 42.861938%)" stroke-opacity="1" stroke-miterlimit="3.25" d="M 13.121094 41.375 L 3.296875 71.617188 "/>
<path fill-rule="evenodd" fill="rgb(95.068359%, 61.663818%, 42.861938%)" fill-opacity="1" d="M 6.183594 71.550781 L 5.839844 71.597656 L 5.03125 71.683594 L 4.550781 71.714844 L 4.074219 71.71875 L 3.644531 71.691406 L 3.296875 71.617188 L 3.003906 71.484375 L 2.640625 71.253906 L 2.246094 70.964844 L 1.847656 70.652344 L 1.179688 70.082031 L 0.894531 69.832031 L 0.390625 80.554688 Z M 6.183594 71.550781 "/>
<path fill="none" stroke-width="1.2942" stroke-linecap="butt" stroke-linejoin="miter" stroke="rgb(95.068359%, 61.663818%, 42.861938%)" stroke-opacity="1" stroke-miterlimit="3.25" d="M 19.59375 41.375 L 5.15625 69.707031 "/>
<path fill-rule="evenodd" fill="rgb(95.068359%, 61.663818%, 42.861938%)" fill-opacity="1" d="M 8.019531 70.09375 L 7.671875 70.085938 L 6.859375 70.046875 L 6.382812 70 L 5.910156 69.933594 L 5.488281 69.835938 L 5.15625 69.707031 L 4.886719 69.53125 L 4.566406 69.246094 L 4.222656 68.898438 L 3.878906 68.527344 L 3.304688 67.863281 L 3.066406 67.570312 L 0.890625 78.082031 Z M 8.019531 70.09375 "/>
<path fill="none" stroke-width="1.2942" stroke-linecap="butt" stroke-linejoin="miter" stroke="rgb(95.068359%, 61.663818%, 42.861938%)" stroke-opacity="1" stroke-miterlimit="3.25" d="M 26.0625 41.375 L 7.375 67.101562 "/>
<path fill-rule="evenodd" fill="rgb(95.068359%, 61.663818%, 42.861938%)" fill-opacity="1" d="M 10.140625 67.929688 L 9.800781 67.871094 L 9.003906 67.703125 L 8.539062 67.582031 L 8.082031 67.441406 L 7.679688 67.277344 L 7.375 67.101562 L 7.136719 66.882812 L 6.863281 66.554688 L 6.578125 66.15625 L 6.296875 65.734375 L 5.832031 64.988281 L 5.644531 64.660156 L 1.851562 74.703125 Z M 10.140625 67.929688 "/>
<path fill="none" stroke-width="1.2942" stroke-linecap="butt" stroke-linejoin="miter" stroke="rgb(95.068359%, 61.663818%, 42.861938%)" stroke-opacity="1" stroke-miterlimit="3.25" d="M 32.535156 41.375 L 10.050781 63.859375 "/>
<path fill-rule="evenodd" fill="rgb(95.068359%, 61.663818%, 42.861938%)" fill-opacity="1" d="M 12.652344 65.109375 L 12.328125 65 L 11.566406 64.707031 L 11.125 64.515625 L 10.699219 64.304688 L 10.328125 64.085938 L 10.050781 63.859375 L 9.851562 63.609375 L 9.632812 63.238281 L 9.410156 62.800781 L 9.199219 62.339844 L 8.859375 61.53125 L 8.722656 61.179688 L 3.40625 70.503906 Z M 12.652344 65.109375 "/>
<path fill="none" stroke-width="1.2942" stroke-linecap="butt" stroke-linejoin="miter" stroke="rgb(95.068359%, 61.663818%, 42.861938%)" stroke-opacity="1" stroke-miterlimit="3.25" d="M 39.007812 41.375 L 13.28125 60.066406 "/>
<path fill-rule="evenodd" fill="rgb(95.068359%, 61.663818%, 42.861938%)" fill-opacity="1" d="M 15.65625 61.707031 L 15.351562 61.546875 L 14.644531 61.140625 L 14.238281 60.882812 L 13.851562 60.609375 L 13.519531 60.332031 L 13.28125 60.066406 L 13.121094 59.785156 L 12.964844 59.386719 L 12.816406 58.921875 L 12.675781 58.433594 L 12.46875 57.582031 L 12.390625 57.210938 L 5.679688 65.589844 Z M 15.65625 61.707031 "/>
<path fill="none" stroke-width="1.2942" stroke-linecap="butt" stroke-linejoin="miter" stroke="rgb(95.068359%, 61.663818%, 42.861938%)" stroke-opacity="1" stroke-miterlimit="3.25" d="M 45.476562 41.375 L 17.144531 55.8125 "/>
<path fill-rule="evenodd" fill="rgb(95.068359%, 61.663818%, 42.861938%)" fill-opacity="1" d="M 19.234375 57.804688 L 18.957031 57.597656 L 18.324219 57.085938 L 17.964844 56.769531 L 17.625 56.4375 L 17.339844 56.109375 L 17.144531 55.8125 L 17.03125 55.511719 L 16.9375 55.09375 L 16.863281 54.609375 L 16.804688 54.105469 L 16.730469 53.230469 L 16.710938 52.851562 L 8.769531 60.078125 Z M 19.234375 57.804688 "/>
<path fill="none" stroke-width="1.2942" stroke-linecap="butt" stroke-linejoin="miter" stroke="rgb(95.068359%, 61.663818%, 42.861938%)" stroke-opacity="1" stroke-miterlimit="3.25" d="M 51.949219 41.375 L 21.707031 51.203125 "/>
<path fill-rule="evenodd" fill="rgb(95.068359%, 61.663818%, 42.861938%)" fill-opacity="1" d="M 23.457031 53.496094 L 23.21875 53.25 L 22.671875 52.644531 L 22.367188 52.273438 L 22.082031 51.894531 L 21.851562 51.527344 L 21.707031 51.203125 L 21.640625 50.886719 L 21.617188 50.460938 L 21.617188 49.96875 L 21.636719 49.460938 L 21.703125 48.585938 L 21.738281 48.210938 L 12.769531 54.105469 Z M 23.457031 53.496094 "/>
<path fill="none" stroke-width="1.2942" stroke-linecap="butt" stroke-linejoin="miter" stroke="rgb(95.068359%, 61.663818%, 42.861938%)" stroke-opacity="1" stroke-miterlimit="3.25" d="M 58.417969 41.375 L 27.011719 46.351562 "/>
<path fill-rule="evenodd" fill="rgb(95.068359%, 61.663818%, 42.861938%)" fill-opacity="1" d="M 28.382812 48.890625 L 28.183594 48.609375 L 27.738281 47.925781 L 27.496094 47.511719 L 27.273438 47.089844 L 27.105469 46.695312 L 27.011719 46.351562 L 27 46.027344 L 27.039062 45.601562 L 27.117188 45.117188 L 27.214844 44.621094 L 27.417969 43.765625 L 27.511719 43.402344 L 17.730469 47.820312 Z M 28.382812 48.890625 "/>
<path fill="none" stroke-width="1.2942" stroke-linecap="butt" stroke-linejoin="miter" stroke="rgb(95.068359%, 61.663818%, 42.861938%)" stroke-opacity="1" stroke-miterlimit="3.25" d="M 64.890625 41.375 L 33.09375 41.375 "/>
<path fill-rule="evenodd" fill="rgb(95.068359%, 61.663818%, 42.861938%)" fill-opacity="1" d="M 34.046875 44.101562 L 33.894531 43.789062 L 33.5625 43.046875 L 33.386719 42.601562 L 33.234375 42.148438 L 33.128906 41.730469 L 33.09375 41.375 L 33.128906 41.054688 L 33.234375 40.640625 L 33.386719 40.175781 L 33.5625 39.699219 L 33.894531 38.886719 L 34.046875 38.542969 L 23.695312 41.375 Z M 34.046875 44.101562 "/>
<path fill="none" stroke-width="1.2942" stroke-linecap="butt" stroke-linejoin="miter" stroke="rgb(95.068359%, 61.663818%, 42.861938%)" stroke-opacity="1" stroke-miterlimit="3.25" d="M 71.359375 41.375 L 39.953125 36.402344 "/>
<path fill-rule="evenodd" fill="rgb(95.068359%, 61.663818%, 42.861938%)" fill-opacity="1" d="M 40.472656 39.242188 L 40.371094 38.914062 L 40.160156 38.125 L 40.054688 37.65625 L 39.976562 37.1875 L 39.933594 36.757812 L 39.953125 36.402344 L 40.039062 36.089844 L 40.210938 35.699219 L 40.433594 35.261719 L 40.683594 34.820312 L 41.136719 34.070312 L 41.34375 33.753906 L 30.671875 34.929688 Z M 40.472656 39.242188 "/>
<path fill="none" stroke-width="1.2942" stroke-linecap="butt" stroke-linejoin="miter" stroke="rgb(95.068359%, 61.663818%, 42.861938%)" stroke-opacity="1" stroke-miterlimit="3.25" d="M 77.832031 41.375 L 47.589844 31.550781 "/>
<path fill-rule="evenodd" fill="rgb(95.068359%, 61.663818%, 42.861938%)" fill-opacity="1" d="M 47.65625 34.4375 L 47.609375 34.09375 L 47.523438 33.285156 L 47.492188 32.804688 L 47.488281 32.328125 L 47.515625 31.898438 L 47.589844 31.550781 L 47.722656 31.257812 L 47.953125 30.894531 L 48.242188 30.5 L 48.558594 30.101562 L 49.125 29.433594 L 49.375 29.148438 L 38.652344 28.644531 Z M 47.65625 34.4375 "/>
<path fill="none" stroke-width="1.2942" stroke-linecap="butt" stroke-linejoin="miter" stroke="rgb(95.068359%, 61.663818%, 42.861938%)" stroke-opacity="1" stroke-miterlimit="3.25" d="M 84.304688 41.375 L 55.972656 26.941406 "/>
<path fill-rule="evenodd" fill="rgb(95.068359%, 61.663818%, 42.861938%)" fill-opacity="1" d="M 55.585938 29.800781 L 55.589844 29.457031 L 55.632812 28.644531 L 55.679688 28.164062 L 55.746094 27.695312 L 55.84375 27.269531 L 55.972656 26.941406 L 56.148438 26.671875 L 56.429688 26.351562 L 56.777344 26.003906 L 57.152344 25.660156 L 57.816406 25.085938 L 58.109375 24.847656 L 47.597656 22.671875 Z M 55.585938 29.800781 "/>
<path fill="none" stroke-width="1.2942" stroke-linecap="butt" stroke-linejoin="miter" stroke="rgb(95.068359%, 61.663818%, 42.861938%)" stroke-opacity="1" stroke-miterlimit="3.25" d="M 90.773438 41.375 L 65.050781 22.683594 "/>
<path fill-rule="evenodd" fill="rgb(95.068359%, 61.663818%, 42.861938%)" fill-opacity="1" d="M 64.222656 25.453125 L 64.28125 25.113281 L 64.449219 24.316406 L 64.570312 23.847656 L 64.710938 23.394531 L 64.871094 22.992188 L 65.050781 22.683594 L 65.265625 22.449219 L 65.597656 22.175781 L 65.992188 21.886719 L 66.414062 21.605469 L 67.160156 21.144531 L 67.488281 20.953125 L 57.445312 17.160156 Z M 64.222656 25.453125 "/>
<path fill="none" stroke-width="1.2942" stroke-linecap="butt" stroke-linejoin="miter" stroke="rgb(95.068359%, 61.663818%, 42.861938%)" stroke-opacity="1" stroke-miterlimit="3.25" d="M 97.246094 41.375 L 74.761719 18.890625 "/>
<path fill-rule="evenodd" fill="rgb(95.068359%, 61.663818%, 42.861938%)" fill-opacity="1" d="M 73.507812 21.492188 L 73.621094 21.167969 L 73.914062 20.40625 L 74.105469 19.964844 L 74.316406 19.539062 L 74.535156 19.167969 L 74.761719 18.890625 L 75.011719 18.691406 L 75.378906 18.472656 L 75.816406 18.25 L 76.277344 18.039062 L 77.089844 17.699219 L 77.441406 17.5625 L 68.117188 12.246094 Z M 73.507812 21.492188 "/>
<path fill="none" stroke-width="1.2942" stroke-linecap="butt" stroke-linejoin="miter" stroke="rgb(95.068359%, 61.663818%, 42.861938%)" stroke-opacity="1" stroke-miterlimit="3.25" d="M 103.714844 41.375 L 85.027344 15.652344 "/>
<path fill-rule="evenodd" fill="rgb(95.068359%, 61.663818%, 42.861938%)" fill-opacity="1" d="M 83.382812 18.027344 L 83.542969 17.71875 L 83.949219 17.015625 L 84.207031 16.609375 L 84.484375 16.21875 L 84.761719 15.886719 L 85.027344 15.652344 L 85.304688 15.492188 L 85.703125 15.335938 L 86.171875 15.183594 L 86.660156 15.046875 L 87.511719 14.839844 L 87.878906 14.757812 L 79.5 8.046875 Z M 83.382812 18.027344 "/>
<path fill="none" stroke-width="1.2942" stroke-linecap="butt" stroke-linejoin="miter" stroke="rgb(95.068359%, 61.663818%, 42.861938%)" stroke-opacity="1" stroke-miterlimit="3.25" d="M 110.1875 41.375 L 95.75 13.042969 "/>
<path fill-rule="evenodd" fill="rgb(95.068359%, 61.663818%, 42.861938%)" fill-opacity="1" d="M 93.757812 15.132812 L 93.964844 14.855469 L 94.476562 14.222656 L 94.792969 13.863281 L 95.125 13.523438 L 95.453125 13.238281 L 95.75 13.042969 L 96.054688 12.929688 L 96.46875 12.835938 L 96.953125 12.761719 L 97.457031 12.703125 L 98.332031 12.628906 L 98.710938 12.609375 L 91.484375 4.671875 Z M 93.757812 15.132812 "/>
<path fill="none" stroke-width="1.2942" stroke-linecap="butt" stroke-linejoin="miter" stroke="rgb(95.068359%, 61.663818%, 42.861938%)" stroke-opacity="1" stroke-miterlimit="3.25" d="M 116.65625 41.375 L 106.832031 11.132812 "/>
<path fill-rule="evenodd" fill="rgb(95.068359%, 61.663818%, 42.861938%)" fill-opacity="1" d="M 104.535156 12.886719 L 104.785156 12.644531 L 105.386719 12.097656 L 105.757812 11.792969 L 106.140625 11.507812 L 106.507812 11.277344 L 106.832031 11.132812 L 107.148438 11.070312 L 107.574219 11.042969 L 108.066406 11.042969 L 108.570312 11.066406 L 109.445312 11.128906 L 109.820312 11.167969 L 103.929688 2.195312 Z M 104.535156 12.886719 "/>
<path fill="none" stroke-width="1.2942" stroke-linecap="butt" stroke-linejoin="miter" stroke="rgb(95.068359%, 61.663818%, 42.861938%)" stroke-opacity="1" stroke-miterlimit="3.25" d="M 123.128906 41.375 L 118.15625 9.96875 "/>
<path fill-rule="evenodd" fill="rgb(95.068359%, 61.663818%, 42.861938%)" fill-opacity="1" d="M 115.613281 11.339844 L 115.894531 11.140625 L 116.578125 10.695312 L 116.992188 10.453125 L 117.414062 10.230469 L 117.8125 10.0625 L 118.15625 9.96875 L 118.476562 9.957031 L 118.902344 9.996094 L 119.386719 10.074219 L 119.882812 10.171875 L 120.738281 10.375 L 121.101562 10.46875 L 116.683594 0.6875 Z M 115.613281 11.339844 "/>
<path fill="none" stroke-width="1.2942" stroke-linecap="butt" stroke-linejoin="miter" stroke="rgb(95.068359%, 61.663818%, 42.861938%)" stroke-opacity="1" stroke-miterlimit="3.25" d="M 129.601562 41.375 L 129.601562 9.578125 "/>
<path fill-rule="evenodd" fill="rgb(95.068359%, 61.663818%, 42.861938%)" fill-opacity="1" d="M 126.875 10.535156 L 127.183594 10.382812 L 127.929688 10.050781 L 128.375 9.875 L 128.828125 9.71875 L 129.246094 9.613281 L 129.601562 9.578125 L 129.921875 9.613281 L 130.335938 9.71875 L 130.800781 9.875 L 131.277344 10.050781 L 132.089844 10.382812 L 132.433594 10.535156 L 129.601562 0.179688 Z M 126.875 10.535156 "/>
<path fill="none" stroke-width="1.2942" stroke-linecap="butt" stroke-linejoin="miter" stroke="rgb(95.068359%, 61.663818%, 42.861938%)" stroke-opacity="1" stroke-miterlimit="3.25" d="M 136.070312 41.375 L 141.046875 9.96875 "/>
<path fill-rule="evenodd" fill="rgb(95.068359%, 61.663818%, 42.861938%)" fill-opacity="1" d="M 138.203125 10.488281 L 138.535156 10.386719 L 139.320312 10.175781 L 139.789062 10.070312 L 140.257812 9.988281 L 140.691406 9.949219 L 141.046875 9.96875 L 141.355469 10.054688 L 141.75 10.226562 L 142.183594 10.449219 L 142.625 10.699219 L 143.375 11.152344 L 143.695312 11.355469 L 142.515625 0.6875 Z M 138.203125 10.488281 "/>
<path fill="none" stroke-width="1.2942" stroke-linecap="butt" stroke-linejoin="miter" stroke="rgb(95.068359%, 61.663818%, 42.861938%)" stroke-opacity="1" stroke-miterlimit="3.25" d="M 142.542969 41.375 L 152.367188 11.132812 "/>
<path fill-rule="evenodd" fill="rgb(95.068359%, 61.663818%, 42.861938%)" fill-opacity="1" d="M 149.480469 11.199219 L 149.824219 11.152344 L 150.632812 11.066406 L 151.113281 11.035156 L 151.589844 11.03125 L 152.019531 11.058594 L 152.367188 11.132812 L 152.660156 11.269531 L 153.023438 11.496094 L 153.417969 11.785156 L 153.816406 12.101562 L 154.484375 12.667969 L 154.769531 12.917969 L 155.273438 2.195312 Z M 149.480469 11.199219 "/>
<path fill="none" stroke-width="1.2942" stroke-linecap="butt" stroke-linejoin="miter" stroke="rgb(95.068359%, 61.663818%, 42.861938%)" stroke-opacity="1" stroke-miterlimit="3.25" d="M 149.011719 41.375 L 163.449219 13.042969 "/>
<path fill-rule="evenodd" fill="rgb(95.068359%, 61.663818%, 42.861938%)" fill-opacity="1" d="M 160.585938 12.660156 L 160.933594 12.664062 L 161.746094 12.707031 L 162.222656 12.75 L 162.695312 12.820312 L 163.117188 12.914062 L 163.449219 13.042969 L 163.71875 13.222656 L 164.039062 13.503906 L 164.382812 13.851562 L 164.726562 14.226562 L 165.300781 14.890625 L 165.539062 15.179688 L 167.714844 4.671875 Z M 160.585938 12.660156 "/>
<path fill="none" stroke-width="1.2942" stroke-linecap="butt" stroke-linejoin="miter" stroke="rgb(95.068359%, 61.663818%, 42.861938%)" stroke-opacity="1" stroke-miterlimit="3.25" d="M 155.484375 41.375 L 174.175781 15.652344 "/>
<path fill-rule="evenodd" fill="rgb(95.068359%, 61.663818%, 42.861938%)" fill-opacity="1" d="M 171.410156 14.824219 L 171.75 14.882812 L 172.542969 15.050781 L 173.011719 15.171875 L 173.464844 15.3125 L 173.867188 15.472656 L 174.175781 15.652344 L 174.410156 15.867188 L 174.683594 16.199219 L 174.972656 16.59375 L 175.253906 17.015625 L 175.714844 17.761719 L 175.90625 18.089844 L 179.699219 8.046875 Z M 171.410156 14.824219 "/>
<path fill="none" stroke-width="1.2942" stroke-linecap="butt" stroke-linejoin="miter" stroke="rgb(95.068359%, 61.663818%, 42.861938%)" stroke-opacity="1" stroke-miterlimit="3.25" d="M 161.953125 41.375 L 184.4375 18.890625 "/>
<path fill-rule="evenodd" fill="rgb(95.068359%, 61.663818%, 42.861938%)" fill-opacity="1" d="M 181.835938 17.640625 L 182.164062 17.753906 L 182.925781 18.042969 L 183.363281 18.234375 L 183.792969 18.445312 L 184.164062 18.667969 L 184.4375 18.890625 L 184.640625 19.144531 L 184.859375 19.511719 L 185.078125 19.949219 L 185.289062 20.410156 L 185.628906 21.21875 L 185.765625 21.570312 L 191.085938 12.246094 Z M 181.835938 17.640625 "/>
<path fill="none" stroke-width="1.2942" stroke-linecap="butt" stroke-linejoin="miter" stroke="rgb(95.068359%, 61.663818%, 42.861938%)" stroke-opacity="1" stroke-miterlimit="3.25" d="M 168.425781 41.375 L 194.152344 22.683594 "/>
<path fill-rule="evenodd" fill="rgb(95.068359%, 61.663818%, 42.861938%)" fill-opacity="1" d="M 191.777344 21.042969 L 192.082031 21.203125 L 192.785156 21.609375 L 193.191406 21.867188 L 193.582031 22.144531 L 193.914062 22.421875 L 194.152344 22.683594 L 194.308594 22.964844 L 194.46875 23.363281 L 194.617188 23.828125 L 194.753906 24.320312 L 194.964844 25.171875 L 195.042969 25.539062 L 201.753906 17.160156 Z M 191.777344 21.042969 "/>
<path fill="none" stroke-width="1.2942" stroke-linecap="butt" stroke-linejoin="miter" stroke="rgb(95.068359%, 61.663818%, 42.861938%)" stroke-opacity="1" stroke-miterlimit="3.25" d="M 174.898438 41.375 L 203.230469 26.941406 "/>
<path fill-rule="evenodd" fill="rgb(95.068359%, 61.663818%, 42.861938%)" fill-opacity="1" d="M 201.140625 24.945312 L 201.417969 25.152344 L 202.050781 25.664062 L 202.410156 25.984375 L 202.75 26.316406 L 203.035156 26.640625 L 203.230469 26.941406 L 203.34375 27.242188 L 203.433594 27.660156 L 203.511719 28.144531 L 203.570312 28.648438 L 203.640625 29.523438 L 203.664062 29.898438 L 211.601562 22.671875 Z M 201.140625 24.945312 "/>
<path fill="none" stroke-width="1.2942" stroke-linecap="butt" stroke-linejoin="miter" stroke="rgb(95.068359%, 61.663818%, 42.861938%)" stroke-opacity="1" stroke-miterlimit="3.25" d="M 181.367188 41.375 L 211.609375 31.550781 "/>
<path fill-rule="evenodd" fill="rgb(95.068359%, 61.663818%, 42.861938%)" fill-opacity="1" d="M 209.859375 29.253906 L 210.097656 29.5 L 210.644531 30.105469 L 210.949219 30.476562 L 211.234375 30.859375 L 211.464844 31.222656 L 211.609375 31.550781 L 211.671875 31.867188 L 211.699219 32.292969 L 211.699219 32.78125 L 211.679688 33.289062 L 211.613281 34.164062 L 211.574219 34.539062 L 220.546875 28.644531 Z M 209.859375 29.253906 "/>
<path fill="none" stroke-width="1.2942" stroke-linecap="butt" stroke-linejoin="miter" stroke="rgb(95.068359%, 61.663818%, 42.861938%)" stroke-opacity="1" stroke-miterlimit="3.25" d="M 187.839844 41.375 L 219.246094 36.402344 "/>
<path fill-rule="evenodd" fill="rgb(95.068359%, 61.663818%, 42.861938%)" fill-opacity="1" d="M 217.875 33.859375 L 218.074219 34.140625 L 218.519531 34.824219 L 218.761719 35.238281 L 218.984375 35.660156 L 219.152344 36.058594 L 219.246094 36.402344 L 219.257812 36.722656 L 219.21875 37.148438 L 219.140625 37.632812 L 219.042969 38.128906 L 218.839844 38.984375 L 218.746094 39.347656 L 228.527344 34.929688 Z M 217.875 33.859375 "/>
<path fill="none" stroke-width="1.2942" stroke-linecap="butt" stroke-linejoin="miter" stroke="rgb(95.068359%, 61.663818%, 42.861938%)" stroke-opacity="1" stroke-miterlimit="3.25" d="M 194.308594 41.375 L 226.109375 41.375 "/>
<path fill-rule="evenodd" fill="rgb(95.068359%, 61.663818%, 42.861938%)" fill-opacity="1" d="M 225.152344 38.652344 L 225.304688 38.960938 L 225.636719 39.703125 L 225.8125 40.152344 L 225.964844 40.601562 L 226.070312 41.023438 L 226.109375 41.375 L 226.070312 41.695312 L 225.964844 42.109375 L 225.8125 42.574219 L 225.636719 43.050781 L 225.304688 43.863281 L 225.152344 44.210938 L 235.503906 41.375 Z M 225.152344 38.652344 "/>
<path fill="none" stroke-width="1.2942" stroke-linecap="butt" stroke-linejoin="miter" stroke="rgb(95.068359%, 61.663818%, 42.861938%)" stroke-opacity="1" stroke-miterlimit="3.25" d="M 200.78125 41.375 L 232.1875 46.351562 "/>
<path fill-rule="evenodd" fill="rgb(95.068359%, 61.663818%, 42.861938%)" fill-opacity="1" d="M 231.667969 43.507812 L 231.769531 43.839844 L 231.984375 44.625 L 232.085938 45.09375 L 232.167969 45.5625 L 232.207031 45.996094 L 232.1875 46.351562 L 232.101562 46.660156 L 231.929688 47.054688 L 231.707031 47.488281 L 231.460938 47.929688 L 231.003906 48.679688 L 230.800781 49 L 241.46875 47.820312 Z M 231.667969 43.507812 "/>
<path fill="none" stroke-width="1.2942" stroke-linecap="butt" stroke-linejoin="miter" stroke="rgb(95.068359%, 61.663818%, 42.861938%)" stroke-opacity="1" stroke-miterlimit="3.25" d="M 207.253906 41.375 L 237.492188 51.203125 "/>
<path fill-rule="evenodd" fill="rgb(95.068359%, 61.663818%, 42.861938%)" fill-opacity="1" d="M 237.425781 48.316406 L 237.476562 48.65625 L 237.5625 49.464844 L 237.589844 49.945312 L 237.597656 50.421875 L 237.566406 50.855469 L 237.492188 51.203125 L 237.359375 51.496094 L 237.132812 51.855469 L 236.839844 52.25 L 236.527344 52.648438 L 235.960938 53.320312 L 235.707031 53.601562 L 246.429688 54.105469 Z M 237.425781 48.316406 "/>
<path fill="none" stroke-width="1.2942" stroke-linecap="butt" stroke-linejoin="miter" stroke="rgb(95.068359%, 61.663818%, 42.861938%)" stroke-opacity="1" stroke-miterlimit="3.25" d="M 213.722656 41.375 L 242.054688 55.8125 "/>
<path fill-rule="evenodd" fill="rgb(95.068359%, 61.663818%, 42.861938%)" fill-opacity="1" d="M 242.441406 52.949219 L 242.433594 53.296875 L 242.394531 54.109375 L 242.347656 54.585938 L 242.277344 55.058594 L 242.183594 55.480469 L 242.054688 55.8125 L 241.878906 56.082031 L 241.59375 56.402344 L 241.246094 56.746094 L 240.875 57.089844 L 240.210938 57.664062 L 239.917969 57.902344 L 250.429688 60.078125 Z M 242.441406 52.949219 "/>
<path fill="none" stroke-width="1.2942" stroke-linecap="butt" stroke-linejoin="miter" stroke="rgb(95.068359%, 61.663818%, 42.861938%)" stroke-opacity="1" stroke-miterlimit="3.25" d="M 220.195312 41.375 L 245.917969 60.066406 "/>
<path fill-rule="evenodd" fill="rgb(95.068359%, 61.663818%, 42.861938%)" fill-opacity="1" d="M 246.746094 57.300781 L 246.6875 57.640625 L 246.519531 58.4375 L 246.398438 58.902344 L 246.257812 59.355469 L 246.097656 59.757812 L 245.917969 60.066406 L 245.703125 60.304688 L 245.371094 60.574219 L 244.972656 60.863281 L 244.550781 61.144531 L 243.804688 61.605469 L 243.480469 61.796875 L 253.523438 65.589844 Z M 246.746094 57.300781 "/>
<path fill="none" stroke-width="1.2942" stroke-linecap="butt" stroke-linejoin="miter" stroke="rgb(95.068359%, 61.663818%, 42.861938%)" stroke-opacity="1" stroke-miterlimit="3.25" d="M 226.664062 41.375 L 249.148438 63.859375 "/>
<path fill-rule="evenodd" fill="rgb(95.068359%, 61.663818%, 42.861938%)" fill-opacity="1" d="M 250.398438 61.257812 L 250.289062 61.585938 L 249.996094 62.34375 L 249.804688 62.785156 L 249.59375 63.210938 L 249.375 63.585938 L 249.148438 63.859375 L 248.898438 64.0625 L 248.53125 64.277344 L 248.09375 64.5 L 247.628906 64.710938 L 246.820312 65.050781 L 246.46875 65.1875 L 255.792969 70.503906 Z M 250.398438 61.257812 "/>
<path fill="none" stroke-width="1.2942" stroke-linecap="butt" stroke-linejoin="miter" stroke="rgb(95.068359%, 61.663818%, 42.861938%)" stroke-opacity="1" stroke-miterlimit="3.25" d="M 233.136719 41.375 L 251.828125 67.101562 "/>
<path fill-rule="evenodd" fill="rgb(95.068359%, 61.663818%, 42.861938%)" fill-opacity="1" d="M 253.46875 64.726562 L 253.308594 65.03125 L 252.902344 65.738281 L 252.644531 66.140625 L 252.367188 66.53125 L 252.089844 66.863281 L 251.828125 67.101562 L 251.546875 67.257812 L 251.148438 67.417969 L 250.683594 67.566406 L 250.191406 67.703125 L 249.339844 67.914062 L 248.972656 67.992188 L 257.351562 74.703125 Z M 253.46875 64.726562 "/>
<path fill="none" stroke-width="1.2942" stroke-linecap="butt" stroke-linejoin="miter" stroke="rgb(95.068359%, 61.663818%, 42.861938%)" stroke-opacity="1" stroke-miterlimit="3.25" d="M 239.605469 41.375 L 254.042969 69.707031 "/>
<path fill-rule="evenodd" fill="rgb(95.068359%, 61.663818%, 42.861938%)" fill-opacity="1" d="M 256.035156 67.621094 L 255.828125 67.894531 L 255.316406 68.527344 L 255 68.890625 L 254.667969 69.230469 L 254.339844 69.515625 L 254.042969 69.707031 L 253.742188 69.820312 L 253.324219 69.914062 L 252.839844 69.988281 L 252.335938 70.046875 L 251.460938 70.121094 L 251.085938 70.140625 L 258.308594 78.082031 Z M 256.035156 67.621094 "/>
<path fill="none" stroke-width="1.2942" stroke-linecap="butt" stroke-linejoin="miter" stroke="rgb(95.068359%, 61.663818%, 42.861938%)" stroke-opacity="1" stroke-miterlimit="3.25" d="M 246.078125 41.375 L 255.902344 71.617188 "/>
<path fill-rule="evenodd" fill="rgb(95.068359%, 61.663818%, 42.861938%)" fill-opacity="1" d="M 258.199219 69.867188 L 257.953125 70.105469 L 257.347656 70.652344 L 256.976562 70.957031 L 256.59375 71.242188 L 256.230469 71.472656 L 255.902344 71.617188 L 255.589844 71.679688 L 255.160156 71.707031 L 254.671875 71.707031 L 254.164062 71.6875 L 253.289062 71.621094 L 252.914062 71.582031 L 258.808594 80.554688 Z M 258.199219 69.867188 "/>
<path fill="none" stroke-width="1.2942" stroke-linecap="butt" stroke-linejoin="miter" stroke="rgb(95.068359%, 61.663818%, 42.861938%)" stroke-opacity="1" stroke-miterlimit="3.25" d="M 252.550781 41.375 L 257.523438 72.78125 "/>
<g clip-path="url(#clip-1)">
<path fill-rule="evenodd" fill="rgb(95.068359%, 61.663818%, 42.861938%)" fill-opacity="1" d="M 260.066406 71.410156 L 259.78125 71.609375 L 259.101562 72.054688 L 258.6875 72.296875 L 258.265625 72.519531 L 257.867188 72.691406 L 257.523438 72.78125 L 257.203125 72.796875 L 256.777344 72.757812 L 256.292969 72.679688 L 255.792969 72.578125 L 254.941406 72.378906 L 254.574219 72.28125 L 258.992188 82.0625 Z M 260.066406 71.410156 "/>
</g>
<g clip-path="url(#clip-2)">
<path fill="none" stroke-width="1.2942" stroke-linecap="butt" stroke-linejoin="miter" stroke="rgb(95.068359%, 61.663818%, 42.861938%)" stroke-opacity="1" stroke-miterlimit="3.25" d="M 259.019531 41.375 L 259.019531 73.171875 "/>
</g>
<g clip-path="url(#clip-3)">
<path fill-rule="evenodd" fill="rgb(95.068359%, 61.663818%, 42.861938%)" fill-opacity="1" d="M 261.746094 72.21875 L 261.433594 72.371094 L 260.691406 72.703125 L 260.246094 72.878906 L 259.792969 73.03125 L 259.375 73.136719 L 259.019531 73.171875 L 258.699219 73.136719 L 258.285156 73.03125 L 257.820312 72.878906 L 257.34375 72.703125 L 256.53125 72.371094 L 256.1875 72.21875 L 259.019531 82.570312 Z M 261.746094 72.21875 "/>
</g>
<g clip-path="url(#clip-4)">
<path fill="none" stroke-width="0.36" stroke-linecap="butt" stroke-linejoin="miter" stroke="rgb(0%, 0%, 0%)" stroke-opacity="1" stroke-miterlimit="3.25" d="M 0.179688 82.570312 L 259.019531 82.570312 "/>
</g>
<g clip-path="url(#clip-5)">
<path fill="none" stroke-width="0.36" stroke-linecap="butt" stroke-linejoin="miter" stroke="rgb(0%, 0%, 0%)" stroke-opacity="1" stroke-miterlimit="3.25" d="M 129.601562 86.691406 L 129.601562 0.179688 "/>
</g>
</svg>
