<?xml version="1.0" encoding="UTF-8"?>
<svg xmlns="http://www.w3.org/2000/svg" xmlns:xlink="http://www.w3.org/1999/xlink" width="260pt" height="161pt" viewBox="0 0 260 161">
<defs>
<clipPath id="clip-0">
<path clip-rule="nonzero" d="M 0 149 L 259.199219 149 L 259.199219 153 L 0 153 Z M 0 149 "/>
</clipPath>
<clipPath id="clip-1">
<path clip-rule="nonzero" d="M 0 145 L 259.199219 145 L 259.199219 153 L 0 153 Z M 0 145 "/>
</clipPath>
<clipPath id="clip-2">
<path clip-rule="nonzero" d="M 0 138 L 259.199219 138 L 259.199219 156 L 0 156 Z M 0 138 "/>
</clipPath>
<clipPath id="clip-3">
<path clip-rule="nonzero" d="M 41 121 L 259.199219 121 L 259.199219 160.320312 L 41 160.320312 Z M 41 121 "/>
</clipPath>
<clipPath id="clip-4">
<path clip-rule="nonzero" d="M 111 90 L 259.199219 90 L 259.199219 160.320312 L 111 160.320312 Z M 111 90 "/>
</clipPath>
<clipPath id="clip-5">
<path clip-rule="nonzero" d="M 164 38 L 259.199219 38 L 259.199219 160.320312 L 164 160.320312 Z M 164 38 "/>
</clipPath>
<clipPath id="clip-6">
<path clip-rule="nonzero" d="M 209 0 L 257 0 L 257 160.320312 L 209 160.320312 Z M 209 0 "/>
</clipPath>
<clipPath id="clip-7">
<path clip-rule="nonzero" d="M 0 151 L 259.199219 151 L 259.199219 153 L 0 153 Z M 0 151 "/>
</clipPath>
<clipPath id="clip-8">
<path clip-rule="nonzero" d="M 129 0 L 130 0 L 130 160.558594 L 129 160.558594 Z M 129 0 "/>
</clipPath>
</defs>
<path fill="none" stroke-width="2.07072" stroke-linecap="square" stroke-linejoin="miter" stroke="rgb(0.518799%, 9.823608%, 34.983826%)" stroke-opacity="1" stroke-miterlimit="3.25" d="M 5.355469 151.796875 L 5.507812 151.796875 L 5.660156 151.792969 L 5.964844 151.792969 L 6.574219 151.785156 L 7.796875 151.773438 L 10.234375 151.75 L 15.523438 151.695312 L 20.460938 151.640625 L 25.300781 151.574219 L 30.550781 151.496094 L 35.449219 151.414062 L 40.761719 151.3125 L 45.976562 151.203125 L 50.839844 151.082031 L 56.113281 150.9375 L 61.035156 150.785156 L 65.863281 150.613281 L 71.097656 150.40625 L 75.984375 150.1875 L 81.28125 149.921875 L 86.480469 149.621094 L 91.328125 149.308594 L 96.589844 148.921875 L 101.496094 148.515625 L 106.816406 148.019531 L 112.039062 147.460938 L 116.910156 146.875 L 122.195312 146.160156 L 127.125 145.402344 L 131.960938 144.566406 L 137.207031 143.539062 L 142.101562 142.460938 L 147.40625 141.132812 L 152.613281 139.65625 L 157.472656 138.101562 L 162.742188 136.195312 L 167.660156 134.183594 L 172.480469 131.964844 L 177.710938 129.25 L 182.589844 126.382812 L 187.882812 122.871094 L 192.824219 119.164062 L 197.667969 115.070312 L 202.921875 110.050781 L 207.824219 104.761719 L 213.140625 98.273438 L 218.355469 91.039062 L 223.222656 83.417969 L 228.5 74.078125 L 233.425781 64.214844 L 238.253906 53.335938 L 243.496094 40.007812 L 248.386719 25.957031 L 248.46875 25.695312 L 248.554688 25.4375 L 248.726562 24.914062 L 249.066406 23.859375 L 249.75 21.730469 L 251.113281 17.359375 L 251.285156 16.804688 L 251.457031 16.246094 L 251.796875 15.121094 L 252.480469 12.84375 L 252.5625 12.558594 L 252.820312 11.691406 L 253.160156 10.53125 L 253.503906 9.359375 L 253.585938 9.066406 L 253.671875 8.769531 L 253.757812 8.476562 L 253.84375 8.179688 "/>
<g clip-path="url(#clip-0)">
<path fill="none" stroke-width="1.03536" stroke-linecap="square" stroke-linejoin="miter" stroke="rgb(13.330078%, 37.527466%, 37.939453%)" stroke-opacity="1" stroke-miterlimit="3.25" d="M 0.179688 151.839844 L 259.019531 149.609375 "/>
</g>
<g clip-path="url(#clip-1)">
<path fill="none" stroke-width="1.03536" stroke-linecap="square" stroke-linejoin="miter" stroke="rgb(13.330078%, 37.527466%, 37.939453%)" stroke-opacity="1" stroke-miterlimit="3.25" d="M 0.179688 152.273438 L 259.019531 146.210938 "/>
</g>
<g clip-path="url(#clip-2)">
<path fill="none" stroke-width="1.03536" stroke-linecap="square" stroke-linejoin="miter" stroke="rgb(13.330078%, 37.527466%, 37.939453%)" stroke-opacity="1" stroke-miterlimit="3.25" d="M 0.179688 155.121094 L 259.019531 138.640625 "/>
</g>
<g clip-path="url(#clip-3)">
<path fill="none" stroke-width="1.03536" stroke-linecap="square" stroke-linejoin="miter" stroke="rgb(13.330078%, 37.527466%, 37.939453%)" stroke-opacity="1" stroke-miterlimit="3.25" d="M 259.019531 122.585938 L 41.972656 160.152344 "/>
</g>
<g clip-path="url(#clip-4)">
<path fill="none" stroke-width="1.03536" stroke-linecap="square" stroke-linejoin="miter" stroke="rgb(13.330078%, 37.527466%, 37.939453%)" stroke-opacity="1" stroke-miterlimit="3.25" d="M 259.019531 91.261719 L 112.597656 160.152344 "/>
</g>
<g clip-path="url(#clip-5)">
<path fill="none" stroke-width="1.03536" stroke-linecap="square" stroke-linejoin="miter" stroke="rgb(13.330078%, 37.527466%, 37.939453%)" stroke-opacity="1" stroke-miterlimit="3.25" d="M 259.019531 39.601562 L 164.761719 160.152344 "/>
</g>
<g clip-path="url(#clip-6)">
<path fill="none" stroke-width="1.03536" stroke-linecap="square" stroke-linejoin="miter" stroke="rgb(13.330078%, 37.527466%, 37.939453%)" stroke-opacity="1" stroke-miterlimit="3.25" d="M 210.128906 160.152344 L 256.144531 0.179688 "/>
</g>
<g clip-path="url(#clip-7)">
<path fill="none" stroke-width="0.36" stroke-linecap="butt" stroke-linejoin="miter" stroke="rgb(0%, 0%, 0%)" stroke-opacity="1" stroke-miterlimit="3.25" d="M 0.179688 152.152344 L 259.019531 152.152344 "/>
</g>
<g clip-path="url(#clip-8)">
<path fill="none" stroke-width="0.36" stroke-linecap="butt" stroke-linejoin="miter" stroke="rgb(0%, 0%, 0%)" stroke-opacity="1" stroke-miterlimit="3.25" d="M 129.601562 160.152344 L 129.601562 0.179688 "/>
</g>
</svg>
