<?xml version="1.0" encoding="UTF-8"?>
<svg xmlns="http://www.w3.org/2000/svg" xmlns:xlink="http://www.w3.org/1999/xlink" width="260pt" height="137pt" viewBox="0 0 260 137">
<defs>
<clipPath id="clip-0">
<path clip-rule="nonzero" d="M 0 129 L 259.199219 129 L 259.199219 130 L 0 130 Z M 0 129 "/>
</clipPath>
<clipPath id="clip-1">
<path clip-rule="nonzero" d="M 129 0 L 130 0 L 130 136.320312 L 129 136.320312 Z M 129 0 "/>
</clipPath>
</defs>
<path fill="none" stroke-width="1.2942" stroke-linecap="square" stroke-linejoin="miter" stroke="rgb(0.518799%, 9.823608%, 34.983826%)" stroke-opacity="1" stroke-miterlimit="3.25" d="M 129.601562 -129.238281 L 129.601562 129.601562 "/>
<path fill-rule="evenodd" fill="rgb(95.068359%, 61.663818%, 42.861938%)" fill-opacity="1" d="M 130.246094 129.601562 C 130.246094 129.773438 130.179688 129.9375 130.058594 130.058594 C 129.9375 130.179688 129.773438 130.246094 129.601562 130.246094 C 129.429688 130.246094 129.265625 130.179688 129.140625 130.058594 C 129.019531 129.9375 128.953125 129.773438 128.953125 129.601562 C 128.953125 129.429688 129.019531 129.265625 129.140625 129.140625 C 129.265625 129.019531 129.429688 128.953125 129.601562 128.953125 C 129.773438 128.953125 129.9375 129.019531 130.058594 129.140625 C 130.179688 129.265625 130.246094 129.429688 130.246094 129.601562 Z M 130.246094 129.601562 "/>
<path fill-rule="evenodd" fill="rgb(95.068359%, 61.663818%, 42.861938%)" fill-opacity="1" d="M 130.246094 123.128906 C 130.246094 123.300781 130.179688 123.464844 130.058594 123.585938 C 129.9375 123.707031 129.773438 123.777344 129.601562 123.777344 C 129.429688 123.777344 129.265625 123.707031 129.140625 123.585938 C 129.019531 123.464844 128.953125 123.300781 128.953125 123.128906 C 128.953125 122.957031 129.019531 122.792969 129.140625 122.671875 C 129.265625 122.550781 129.429688 122.480469 129.601562 122.480469 C 129.773438 122.480469 129.9375 122.550781 130.058594 122.671875 C 130.179688 122.792969 130.246094 122.957031 130.246094 123.128906 Z M 130.246094 123.128906 "/>
<path fill-rule="evenodd" fill="rgb(95.068359%, 61.663818%, 42.861938%)" fill-opacity="1" d="M 126.875 127.011719 L 127.183594 126.859375 L 127.929688 126.527344 L 128.375 126.351562 L 128.828125 126.199219 L 129.246094 126.09375 L 129.601562 126.054688 L 129.921875 126.09375 L 130.335938 126.199219 L 130.800781 126.351562 L 131.277344 126.527344 L 132.089844 126.859375 L 132.433594 127.011719 L 129.601562 116.65625 Z M 126.875 127.011719 "/>
<path fill="none" stroke-width="1.2942" stroke-linecap="butt" stroke-linejoin="miter" stroke="rgb(95.068359%, 61.663818%, 42.861938%)" stroke-opacity="1" stroke-miterlimit="3.25" d="M 129.601562 116.65625 L 129.601562 113.113281 "/>
<path fill-rule="evenodd" fill="rgb(95.068359%, 61.663818%, 42.861938%)" fill-opacity="1" d="M 126.875 114.070312 L 127.183594 113.917969 L 127.929688 113.585938 L 128.375 113.410156 L 128.828125 113.257812 L 129.246094 113.152344 L 129.601562 113.113281 L 129.921875 113.152344 L 130.335938 113.257812 L 130.800781 113.410156 L 131.277344 113.585938 L 132.089844 113.917969 L 132.433594 114.070312 L 129.601562 103.714844 Z M 126.875 114.070312 "/>
<path fill="none" stroke-width="1.2942" stroke-linecap="butt" stroke-linejoin="miter" stroke="rgb(95.068359%, 61.663818%, 42.861938%)" stroke-opacity="1" stroke-miterlimit="3.25" d="M 129.601562 110.1875 L 129.601562 100.171875 "/>
<path fill-rule="evenodd" fill="rgb(95.068359%, 61.663818%, 42.861938%)" fill-opacity="1" d="M 126.875 101.128906 L 127.183594 100.976562 L 127.929688 100.644531 L 128.375 100.46875 L 128.828125 100.316406 L 129.246094 100.207031 L 129.601562 100.171875 L 129.921875 100.207031 L 130.335938 100.316406 L 130.800781 100.46875 L 131.277344 100.644531 L 132.089844 100.976562 L 132.433594 101.128906 L 129.601562 90.773438 Z M 126.875 101.128906 "/>
<path fill="none" stroke-width="1.2942" stroke-linecap="butt" stroke-linejoin="miter" stroke="rgb(95.068359%, 61.663818%, 42.861938%)" stroke-opacity="1" stroke-miterlimit="3.25" d="M 129.601562 103.714844 L 129.601562 87.230469 "/>
<path fill-rule="evenodd" fill="rgb(95.068359%, 61.663818%, 42.861938%)" fill-opacity="1" d="M 126.875 88.1875 L 127.183594 88.035156 L 127.929688 87.703125 L 128.375 87.523438 L 128.828125 87.371094 L 129.246094 87.265625 L 129.601562 87.230469 L 129.921875 87.265625 L 130.335938 87.371094 L 130.800781 87.523438 L 131.277344 87.703125 L 132.089844 88.035156 L 132.433594 88.1875 L 129.601562 77.832031 Z M 126.875 88.1875 "/>
<path fill="none" stroke-width="1.2942" stroke-linecap="butt" stroke-linejoin="miter" stroke="rgb(95.068359%, 61.663818%, 42.861938%)" stroke-opacity="1" stroke-miterlimit="3.25" d="M 129.601562 97.246094 L 129.601562 74.289062 "/>
<path fill-rule="evenodd" fill="rgb(95.068359%, 61.663818%, 42.861938%)" fill-opacity="1" d="M 126.875 75.242188 L 127.183594 75.09375 L 127.929688 74.757812 L 128.375 74.582031 L 128.828125 74.429688 L 129.246094 74.324219 L 129.601562 74.289062 L 129.921875 74.324219 L 130.335938 74.429688 L 130.800781 74.582031 L 131.277344 74.757812 L 132.089844 75.09375 L 132.433594 75.242188 L 129.601562 64.890625 Z M 126.875 75.242188 "/>
<path fill="none" stroke-width="1.2942" stroke-linecap="butt" stroke-linejoin="miter" stroke="rgb(95.068359%, 61.663818%, 42.861938%)" stroke-opacity="1" stroke-miterlimit="3.25" d="M 129.601562 90.773438 L 129.601562 61.347656 "/>
<path fill-rule="evenodd" fill="rgb(95.068359%, 61.663818%, 42.861938%)" fill-opacity="1" d="M 126.875 62.300781 L 127.183594 62.148438 L 127.929688 61.816406 L 128.375 61.640625 L 128.828125 61.488281 L 129.246094 61.382812 L 129.601562 61.347656 L 129.921875 61.382812 L 130.335938 61.488281 L 130.800781 61.640625 L 131.277344 61.816406 L 132.089844 62.148438 L 132.433594 62.300781 L 129.601562 51.949219 Z M 126.875 62.300781 "/>
<path fill="none" stroke-width="1.2942" stroke-linecap="butt" stroke-linejoin="miter" stroke="rgb(95.068359%, 61.663818%, 42.861938%)" stroke-opacity="1" stroke-miterlimit="3.25" d="M 129.601562 84.304688 L 129.601562 48.402344 "/>
<path fill-rule="evenodd" fill="rgb(95.068359%, 61.663818%, 42.861938%)" fill-opacity="1" d="M 126.875 49.359375 L 127.183594 49.207031 L 127.929688 48.875 L 128.375 48.699219 L 128.828125 48.546875 L 129.246094 48.441406 L 129.601562 48.402344 L 129.921875 48.441406 L 130.335938 48.546875 L 130.800781 48.699219 L 131.277344 48.875 L 132.089844 49.207031 L 132.433594 49.359375 L 129.601562 39.007812 Z M 126.875 49.359375 "/>
<path fill="none" stroke-width="1.2942" stroke-linecap="butt" stroke-linejoin="miter" stroke="rgb(95.068359%, 61.663818%, 42.861938%)" stroke-opacity="1" stroke-miterlimit="3.25" d="M 129.601562 77.832031 L 129.601562 35.460938 "/>
<path fill-rule="evenodd" fill="rgb(95.068359%, 61.663818%, 42.861938%)" fill-opacity="1" d="M 126.875 36.417969 L 127.183594 36.265625 L 127.929688 35.933594 L 128.375 35.757812 L 128.828125 35.605469 L 129.246094 35.5 L 129.601562 35.460938 L 129.921875 35.5 L 130.335938 35.605469 L 130.800781 35.757812 L 131.277344 35.933594 L 132.089844 36.265625 L 132.433594 36.417969 L 129.601562 26.0625 Z M 126.875 36.417969 "/>
<path fill="none" stroke-width="1.2942" stroke-linecap="butt" stroke-linejoin="miter" stroke="rgb(95.068359%, 61.663818%, 42.861938%)" stroke-opacity="1" stroke-miterlimit="3.25" d="M 129.601562 71.359375 L 129.601562 22.519531 "/>
<path fill-rule="evenodd" fill="rgb(95.068359%, 61.663818%, 42.861938%)" fill-opacity="1" d="M 126.875 23.476562 L 127.183594 23.324219 L 127.929688 22.992188 L 128.375 22.816406 L 128.828125 22.664062 L 129.246094 22.554688 L 129.601562 22.519531 L 129.921875 22.554688 L 130.335938 22.664062 L 130.800781 22.816406 L 131.277344 22.992188 L 132.089844 23.324219 L 132.433594 23.476562 L 129.601562 13.121094 Z M 126.875 23.476562 "/>
<path fill="none" stroke-width="1.2942" stroke-linecap="butt" stroke-linejoin="miter" stroke="rgb(95.068359%, 61.663818%, 42.861938%)" stroke-opacity="1" stroke-miterlimit="3.25" d="M 129.601562 64.890625 L 129.601562 9.578125 "/>
<path fill-rule="evenodd" fill="rgb(95.068359%, 61.663818%, 42.861938%)" fill-opacity="1" d="M 126.875 10.535156 L 127.183594 10.382812 L 127.929688 10.050781 L 128.375 9.875 L 128.828125 9.71875 L 129.246094 9.613281 L 129.601562 9.578125 L 129.921875 9.613281 L 130.335938 9.71875 L 130.800781 9.875 L 131.277344 10.050781 L 132.089844 10.382812 L 132.433594 10.535156 L 129.601562 0.179688 Z M 126.875 10.535156 "/>
<path fill="none" stroke-width="1.2942" stroke-linecap="butt" stroke-linejoin="miter" stroke="rgb(95.068359%, 61.663818%, 42.861938%)" stroke-opacity="1" stroke-miterlimit="3.25" d="M 129.601562 58.417969 L 129.601562 -3.363281 "/>
<path fill="none" stroke-width="1.2942" stroke-linecap="butt" stroke-linejoin="miter" stroke="rgb(95.068359%, 61.663818%, 42.861938%)" stroke-opacity="1" stroke-miterlimit="3.25" d="M 129.601562 51.949219 L 129.601562 -16.304688 "/>
<path fill="none" stroke-width="1.2942" stroke-linecap="butt" stroke-linejoin="miter" stroke="rgb(95.068359%, 61.663818%, 42.861938%)" stroke-opacity="1" stroke-miterlimit="3.25" d="M 129.601562 45.476562 L 129.601562 -29.246094 "/>
<path fill="none" stroke-width="1.2942" stroke-linecap="butt" stroke-linejoin="miter" stroke="rgb(95.068359%, 61.663818%, 42.861938%)" stroke-opacity="1" stroke-miterlimit="3.25" d="M 129.601562 39.007812 L 129.601562 -42.191406 "/>
<path fill="none" stroke-width="1.2942" stroke-linecap="butt" stroke-linejoin="miter" stroke="rgb(95.068359%, 61.663818%, 42.861938%)" stroke-opacity="1" stroke-miterlimit="3.25" d="M 129.601562 32.535156 L 129.601562 -55.132812 "/>
<path fill="none" stroke-width="1.2942" stroke-linecap="butt" stroke-linejoin="miter" stroke="rgb(95.068359%, 61.663818%, 42.861938%)" stroke-opacity="1" stroke-miterlimit="3.25" d="M 129.601562 26.0625 L 129.601562 -68.074219 "/>
<path fill="none" stroke-width="1.2942" stroke-linecap="butt" stroke-linejoin="miter" stroke="rgb(95.068359%, 61.663818%, 42.861938%)" stroke-opacity="1" stroke-miterlimit="3.25" d="M 129.601562 19.59375 L 129.601562 -81.015625 "/>
<path fill="none" stroke-width="1.2942" stroke-linecap="butt" stroke-linejoin="miter" stroke="rgb(95.068359%, 61.663818%, 42.861938%)" stroke-opacity="1" stroke-miterlimit="3.25" d="M 129.601562 13.121094 L 129.601562 -93.957031 "/>
<path fill="none" stroke-width="1.2942" stroke-linecap="butt" stroke-linejoin="miter" stroke="rgb(95.068359%, 61.663818%, 42.861938%)" stroke-opacity="1" stroke-miterlimit="3.25" d="M 129.601562 6.652344 L 129.601562 -106.898438 "/>
<path fill="none" stroke-width="1.2942" stroke-linecap="butt" stroke-linejoin="miter" stroke="rgb(95.068359%, 61.663818%, 42.861938%)" stroke-opacity="1" stroke-miterlimit="3.25" d="M 129.601562 0.179688 L 129.601562 -119.84375 "/>
<g clip-path="url(#clip-0)">
<path fill="none" stroke-width="0.36" stroke-linecap="butt" stroke-linejoin="miter" stroke="rgb(0%, 0%, 0%)" stroke-opacity="1" stroke-miterlimit="3.25" d="M 0.179688 129.601562 L 259.019531 129.601562 "/>
</g>
<g clip-path="url(#clip-1)">
<path fill="none" stroke-width="0.36" stroke-linecap="butt" stroke-linejoin="miter" stroke="rgb(0%, 0%, 0%)" stroke-opacity="1" stroke-miterlimit="3.25" d="M 129.601562 136.070312 L 129.601562 0.179688 "/>
</g>
</svg>
