<?xml version="1.0" encoding="UTF-8"?>
<svg xmlns="http://www.w3.org/2000/svg" xmlns:xlink="http://www.w3.org/1999/xlink" width="260pt" height="232pt" viewBox="0 0 260 232">
<path fill="none" stroke-width="3.1104" stroke-linecap="butt" stroke-linejoin="miter" stroke="rgb(95.068359%, 61.663818%, 42.861938%)" stroke-opacity="1" stroke-miterlimit="3.25" d="M 5.183594 219.449219 L 37.246094 219.449219 "/>
<path fill-rule="evenodd" fill="rgb(95.068359%, 61.663818%, 42.861938%)" fill-opacity="1" d="M 36.289062 216.722656 L 36.441406 217.03125 L 36.773438 217.777344 L 36.949219 218.222656 L 37.101562 218.675781 L 37.207031 219.097656 L 37.246094 219.449219 L 37.207031 219.769531 L 37.101562 220.1875 L 36.949219 220.652344 L 36.773438 221.128906 L 36.441406 221.941406 L 36.289062 222.289062 L 46.65625 219.449219 Z M 36.289062 216.722656 "/>
<path fill="none" stroke-width="3.1104" stroke-linecap="butt" stroke-linejoin="miter" stroke="rgb(95.068359%, 61.663818%, 42.861938%)" stroke-opacity="1" stroke-miterlimit="3.25" d="M 57.023438 219.449219 L 89.085938 219.449219 "/>
<path fill-rule="evenodd" fill="rgb(95.068359%, 61.663818%, 42.861938%)" fill-opacity="1" d="M 88.128906 216.722656 L 88.28125 217.03125 L 88.613281 217.777344 L 88.789062 218.222656 L 88.941406 218.675781 L 89.046875 219.097656 L 89.085938 219.449219 L 89.046875 219.769531 L 88.941406 220.1875 L 88.789062 220.652344 L 88.613281 221.128906 L 88.28125 221.941406 L 88.128906 222.289062 L 98.496094 219.449219 Z M 88.128906 216.722656 "/>
<path fill="none" stroke-width="3.1104" stroke-linecap="butt" stroke-linejoin="miter" stroke="rgb(95.068359%, 61.663818%, 42.861938%)" stroke-opacity="1" stroke-miterlimit="3.25" d="M 108.863281 219.449219 L 140.925781 219.449219 "/>
<path fill-rule="evenodd" fill="rgb(95.068359%, 61.663818%, 42.861938%)" fill-opacity="1" d="M 139.96875 216.722656 L 140.121094 217.03125 L 140.453125 217.777344 L 140.628906 218.222656 L 140.78125 218.675781 L 140.886719 219.097656 L 140.925781 219.449219 L 140.886719 219.769531 L 140.78125 220.1875 L 140.628906 220.652344 L 140.453125 221.128906 L 140.121094 221.941406 L 139.96875 222.289062 L 150.335938 219.449219 Z M 139.96875 216.722656 "/>
<path fill="none" stroke-width="3.1104" stroke-linecap="butt" stroke-linejoin="miter" stroke="rgb(95.068359%, 61.663818%, 42.861938%)" stroke-opacity="1" stroke-miterlimit="3.25" d="M 160.703125 219.449219 L 192.765625 219.449219 "/>
<path fill-rule="evenodd" fill="rgb(95.068359%, 61.663818%, 42.861938%)" fill-opacity="1" d="M 191.808594 216.722656 L 191.960938 217.03125 L 192.292969 217.777344 L 192.46875 218.222656 L 192.621094 218.675781 L 192.726562 219.097656 L 192.765625 219.449219 L 192.726562 219.769531 L 192.621094 220.1875 L 192.46875 220.652344 L 192.292969 221.128906 L 191.960938 221.941406 L 191.808594 222.289062 L 202.175781 219.449219 Z M 191.808594 216.722656 "/>
<path fill="none" stroke-width="3.1104" stroke-linecap="butt" stroke-linejoin="miter" stroke="rgb(95.068359%, 61.663818%, 42.861938%)" stroke-opacity="1" stroke-miterlimit="3.25" d="M 212.542969 219.449219 L 244.605469 219.449219 "/>
<path fill-rule="evenodd" fill="rgb(95.068359%, 61.663818%, 42.861938%)" fill-opacity="1" d="M 243.648438 216.722656 L 243.800781 217.03125 L 244.132812 217.777344 L 244.308594 218.222656 L 244.460938 218.675781 L 244.570312 219.097656 L 244.605469 219.449219 L 244.570312 219.769531 L 244.460938 220.1875 L 244.308594 220.652344 L 244.132812 221.128906 L 243.800781 221.941406 L 243.648438 222.289062 L 254.015625 219.449219 Z M 243.648438 216.722656 "/>
<path fill="none" stroke-width="3.1104" stroke-linecap="butt" stroke-linejoin="miter" stroke="rgb(95.068359%, 61.663818%, 42.861938%)" stroke-opacity="1" stroke-miterlimit="3.25" d="M 5.183594 177.976562 L 37.246094 177.976562 "/>
<path fill-rule="evenodd" fill="rgb(95.068359%, 61.663818%, 42.861938%)" fill-opacity="1" d="M 36.289062 175.25 L 36.441406 175.558594 L 36.773438 176.304688 L 36.949219 176.753906 L 37.101562 177.203125 L 37.207031 177.625 L 37.246094 177.976562 L 37.207031 178.300781 L 37.101562 178.714844 L 36.949219 179.179688 L 36.773438 179.65625 L 36.441406 180.46875 L 36.289062 180.816406 L 46.65625 177.976562 Z M 36.289062 175.25 "/>
<path fill="none" stroke-width="3.1104" stroke-linecap="butt" stroke-linejoin="miter" stroke="rgb(95.068359%, 61.663818%, 42.861938%)" stroke-opacity="1" stroke-miterlimit="3.25" d="M 57.023438 177.976562 L 89.085938 177.976562 "/>
<path fill-rule="evenodd" fill="rgb(95.068359%, 61.663818%, 42.861938%)" fill-opacity="1" d="M 88.128906 175.25 L 88.28125 175.558594 L 88.613281 176.304688 L 88.789062 176.753906 L 88.941406 177.203125 L 89.046875 177.625 L 89.085938 177.976562 L 89.046875 178.300781 L 88.941406 178.714844 L 88.789062 179.179688 L 88.613281 179.65625 L 88.28125 180.46875 L 88.128906 180.816406 L 98.496094 177.976562 Z M 88.128906 175.25 "/>
<path fill="none" stroke-width="3.1104" stroke-linecap="butt" stroke-linejoin="miter" stroke="rgb(95.068359%, 61.663818%, 42.861938%)" stroke-opacity="1" stroke-miterlimit="3.25" d="M 108.863281 177.976562 L 140.925781 177.976562 "/>
<path fill-rule="evenodd" fill="rgb(95.068359%, 61.663818%, 42.861938%)" fill-opacity="1" d="M 139.96875 175.25 L 140.121094 175.558594 L 140.453125 176.304688 L 140.628906 176.753906 L 140.78125 177.203125 L 140.886719 177.625 L 140.925781 177.976562 L 140.886719 178.300781 L 140.78125 178.714844 L 140.628906 179.179688 L 140.453125 179.65625 L 140.121094 180.46875 L 139.96875 180.816406 L 150.335938 177.976562 Z M 139.96875 175.25 "/>
<path fill="none" stroke-width="3.1104" stroke-linecap="butt" stroke-linejoin="miter" stroke="rgb(95.068359%, 61.663818%, 42.861938%)" stroke-opacity="1" stroke-miterlimit="3.25" d="M 160.703125 177.976562 L 192.765625 177.976562 "/>
<path fill-rule="evenodd" fill="rgb(95.068359%, 61.663818%, 42.861938%)" fill-opacity="1" d="M 191.808594 175.25 L 191.960938 175.558594 L 192.292969 176.304688 L 192.46875 176.753906 L 192.621094 177.203125 L 192.726562 177.625 L 192.765625 177.976562 L 192.726562 178.300781 L 192.621094 178.714844 L 192.46875 179.179688 L 192.292969 179.65625 L 191.960938 180.46875 L 191.808594 180.816406 L 202.175781 177.976562 Z M 191.808594 175.25 "/>
<path fill="none" stroke-width="3.1104" stroke-linecap="butt" stroke-linejoin="miter" stroke="rgb(95.068359%, 61.663818%, 42.861938%)" stroke-opacity="1" stroke-miterlimit="3.25" d="M 212.542969 177.976562 L 244.605469 177.976562 "/>
<path fill-rule="evenodd" fill="rgb(95.068359%, 61.663818%, 42.861938%)" fill-opacity="1" d="M 243.648438 175.25 L 243.800781 175.558594 L 244.132812 176.304688 L 244.308594 176.753906 L 244.460938 177.203125 L 244.570312 177.625 L 244.605469 177.976562 L 244.570312 178.300781 L 244.460938 178.714844 L 244.308594 179.179688 L 244.132812 179.65625 L 243.800781 180.46875 L 243.648438 180.816406 L 254.015625 177.976562 Z M 243.648438 175.25 "/>
<path fill="none" stroke-width="3.1104" stroke-linecap="butt" stroke-linejoin="miter" stroke="rgb(95.068359%, 61.663818%, 42.861938%)" stroke-opacity="1" stroke-miterlimit="3.25" d="M 5.183594 136.507812 L 37.246094 136.507812 "/>
<path fill-rule="evenodd" fill="rgb(95.068359%, 61.663818%, 42.861938%)" fill-opacity="1" d="M 36.289062 133.777344 L 36.441406 134.089844 L 36.773438 134.832031 L 36.949219 135.28125 L 37.101562 135.730469 L 37.207031 136.152344 L 37.246094 136.507812 L 37.207031 136.828125 L 37.101562 137.242188 L 36.949219 137.707031 L 36.773438 138.183594 L 36.441406 138.996094 L 36.289062 139.34375 L 46.65625 136.507812 Z M 36.289062 133.777344 "/>
<path fill="none" stroke-width="3.1104" stroke-linecap="butt" stroke-linejoin="miter" stroke="rgb(95.068359%, 61.663818%, 42.861938%)" stroke-opacity="1" stroke-miterlimit="3.25" d="M 57.023438 136.507812 L 89.085938 136.507812 "/>
<path fill-rule="evenodd" fill="rgb(95.068359%, 61.663818%, 42.861938%)" fill-opacity="1" d="M 88.128906 133.777344 L 88.28125 134.089844 L 88.613281 134.832031 L 88.789062 135.28125 L 88.941406 135.730469 L 89.046875 136.152344 L 89.085938 136.507812 L 89.046875 136.828125 L 88.941406 137.242188 L 88.789062 137.707031 L 88.613281 138.183594 L 88.28125 138.996094 L 88.128906 139.34375 L 98.496094 136.507812 Z M 88.128906 133.777344 "/>
<path fill="none" stroke-width="3.1104" stroke-linecap="butt" stroke-linejoin="miter" stroke="rgb(95.068359%, 61.663818%, 42.861938%)" stroke-opacity="1" stroke-miterlimit="3.25" d="M 108.863281 136.507812 L 140.925781 136.507812 "/>
<path fill-rule="evenodd" fill="rgb(95.068359%, 61.663818%, 42.861938%)" fill-opacity="1" d="M 139.96875 133.777344 L 140.121094 134.089844 L 140.453125 134.832031 L 140.628906 135.28125 L 140.78125 135.730469 L 140.886719 136.152344 L 140.925781 136.507812 L 140.886719 136.828125 L 140.78125 137.242188 L 140.628906 137.707031 L 140.453125 138.183594 L 140.121094 138.996094 L 139.96875 139.34375 L 150.335938 136.507812 Z M 139.96875 133.777344 "/>
<path fill="none" stroke-width="3.1104" stroke-linecap="butt" stroke-linejoin="miter" stroke="rgb(95.068359%, 61.663818%, 42.861938%)" stroke-opacity="1" stroke-miterlimit="3.25" d="M 160.703125 136.507812 L 192.765625 136.507812 "/>
<path fill-rule="evenodd" fill="rgb(95.068359%, 61.663818%, 42.861938%)" fill-opacity="1" d="M 191.808594 133.777344 L 191.960938 134.089844 L 192.292969 134.832031 L 192.46875 135.28125 L 192.621094 135.730469 L 192.726562 136.152344 L 192.765625 136.507812 L 192.726562 136.828125 L 192.621094 137.242188 L 192.46875 137.707031 L 192.292969 138.183594 L 191.960938 138.996094 L 191.808594 139.34375 L 202.175781 136.507812 Z M 191.808594 133.777344 "/>
<path fill="none" stroke-width="3.1104" stroke-linecap="butt" stroke-linejoin="miter" stroke="rgb(95.068359%, 61.663818%, 42.861938%)" stroke-opacity="1" stroke-miterlimit="3.25" d="M 212.542969 136.507812 L 244.605469 136.507812 "/>
<path fill-rule="evenodd" fill="rgb(95.068359%, 61.663818%, 42.861938%)" fill-opacity="1" d="M 243.648438 133.777344 L 243.800781 134.089844 L 244.132812 134.832031 L 244.308594 135.28125 L 244.460938 135.730469 L 244.570312 136.152344 L 244.605469 136.507812 L 244.570312 136.828125 L 244.460938 137.242188 L 244.308594 137.707031 L 244.132812 138.183594 L 243.800781 138.996094 L 243.648438 139.34375 L 254.015625 136.507812 Z M 243.648438 133.777344 "/>
<path fill="none" stroke-width="3.1104" stroke-linecap="butt" stroke-linejoin="miter" stroke="rgb(95.068359%, 61.663818%, 42.861938%)" stroke-opacity="1" stroke-miterlimit="3.25" d="M 5.183594 95.035156 L 37.246094 95.035156 "/>
<path fill-rule="evenodd" fill="rgb(95.068359%, 61.663818%, 42.861938%)" fill-opacity="1" d="M 36.289062 92.304688 L 36.441406 92.617188 L 36.773438 93.359375 L 36.949219 93.808594 L 37.101562 94.261719 L 37.207031 94.679688 L 37.246094 95.035156 L 37.207031 95.355469 L 37.101562 95.769531 L 36.949219 96.238281 L 36.773438 96.710938 L 36.441406 97.527344 L 36.289062 97.871094 L 46.65625 95.035156 Z M 36.289062 92.304688 "/>
<path fill="none" stroke-width="3.1104" stroke-linecap="butt" stroke-linejoin="miter" stroke="rgb(95.068359%, 61.663818%, 42.861938%)" stroke-opacity="1" stroke-miterlimit="3.25" d="M 57.023438 95.035156 L 89.085938 95.035156 "/>
<path fill-rule="evenodd" fill="rgb(95.068359%, 61.663818%, 42.861938%)" fill-opacity="1" d="M 88.128906 92.304688 L 88.28125 92.617188 L 88.613281 93.359375 L 88.789062 93.808594 L 88.941406 94.261719 L 89.046875 94.679688 L 89.085938 95.035156 L 89.046875 95.355469 L 88.941406 95.769531 L 88.789062 96.238281 L 88.613281 96.710938 L 88.28125 97.527344 L 88.128906 97.871094 L 98.496094 95.035156 Z M 88.128906 92.304688 "/>
<path fill="none" stroke-width="3.1104" stroke-linecap="butt" stroke-linejoin="miter" stroke="rgb(95.068359%, 61.663818%, 42.861938%)" stroke-opacity="1" stroke-miterlimit="3.25" d="M 108.863281 95.035156 L 140.925781 95.035156 "/>
<path fill-rule="evenodd" fill="rgb(95.068359%, 61.663818%, 42.861938%)" fill-opacity="1" d="M 139.96875 92.304688 L 140.121094 92.617188 L 140.453125 93.359375 L 140.628906 93.808594 L 140.78125 94.261719 L 140.886719 94.679688 L 140.925781 95.035156 L 140.886719 95.355469 L 140.78125 95.769531 L 140.628906 96.238281 L 140.453125 96.710938 L 140.121094 97.527344 L 139.96875 97.871094 L 150.335938 95.035156 Z M 139.96875 92.304688 "/>
<path fill="none" stroke-width="3.1104" stroke-linecap="butt" stroke-linejoin="miter" stroke="rgb(95.068359%, 61.663818%, 42.861938%)" stroke-opacity="1" stroke-miterlimit="3.25" d="M 160.703125 95.035156 L 192.765625 95.035156 "/>
<path fill-rule="evenodd" fill="rgb(95.068359%, 61.663818%, 42.861938%)" fill-opacity="1" d="M 191.808594 92.304688 L 191.960938 92.617188 L 192.292969 93.359375 L 192.46875 93.808594 L 192.621094 94.261719 L 192.726562 94.679688 L 192.765625 95.035156 L 192.726562 95.355469 L 192.621094 95.769531 L 192.46875 96.238281 L 192.292969 96.710938 L 191.960938 97.527344 L 191.808594 97.871094 L 202.175781 95.035156 Z M 191.808594 92.304688 "/>
<path fill="none" stroke-width="3.1104" stroke-linecap="butt" stroke-linejoin="miter" stroke="rgb(95.068359%, 61.663818%, 42.861938%)" stroke-opacity="1" stroke-miterlimit="3.25" d="M 212.542969 95.035156 L 244.605469 95.035156 "/>
<path fill-rule="evenodd" fill="rgb(95.068359%, 61.663818%, 42.861938%)" fill-opacity="1" d="M 243.648438 92.304688 L 243.800781 92.617188 L 244.132812 93.359375 L 244.308594 93.808594 L 244.460938 94.261719 L 244.570312 94.679688 L 244.605469 95.035156 L 244.570312 95.355469 L 244.460938 95.769531 L 244.308594 96.238281 L 244.132812 96.710938 L 243.800781 97.527344 L 243.648438 97.871094 L 254.015625 95.035156 Z M 243.648438 92.304688 "/>
<path fill="none" stroke-width="3.1104" stroke-linecap="butt" stroke-linejoin="miter" stroke="rgb(95.068359%, 61.663818%, 42.861938%)" stroke-opacity="1" stroke-miterlimit="3.25" d="M 5.183594 53.5625 L 37.246094 53.5625 "/>
<path fill-rule="evenodd" fill="rgb(95.068359%, 61.663818%, 42.861938%)" fill-opacity="1" d="M 36.289062 50.835938 L 36.441406 51.144531 L 36.773438 51.890625 L 36.949219 52.335938 L 37.101562 52.789062 L 37.207031 53.207031 L 37.246094 53.5625 L 37.207031 53.882812 L 37.101562 54.296875 L 36.949219 54.765625 L 36.773438 55.242188 L 36.441406 56.054688 L 36.289062 56.398438 L 46.65625 53.5625 Z M 36.289062 50.835938 "/>
<path fill="none" stroke-width="3.1104" stroke-linecap="butt" stroke-linejoin="miter" stroke="rgb(95.068359%, 61.663818%, 42.861938%)" stroke-opacity="1" stroke-miterlimit="3.25" d="M 57.023438 53.5625 L 89.085938 53.5625 "/>
<path fill-rule="evenodd" fill="rgb(95.068359%, 61.663818%, 42.861938%)" fill-opacity="1" d="M 88.128906 50.835938 L 88.28125 51.144531 L 88.613281 51.890625 L 88.789062 52.335938 L 88.941406 52.789062 L 89.046875 53.207031 L 89.085938 53.5625 L 89.046875 53.882812 L 88.941406 54.296875 L 88.789062 54.765625 L 88.613281 55.242188 L 88.28125 56.054688 L 88.128906 56.398438 L 98.496094 53.5625 Z M 88.128906 50.835938 "/>
<path fill="none" stroke-width="3.1104" stroke-linecap="butt" stroke-linejoin="miter" stroke="rgb(95.068359%, 61.663818%, 42.861938%)" stroke-opacity="1" stroke-miterlimit="3.25" d="M 108.863281 53.5625 L 140.925781 53.5625 "/>
<path fill-rule="evenodd" fill="rgb(95.068359%, 61.663818%, 42.861938%)" fill-opacity="1" d="M 139.96875 50.835938 L 140.121094 51.144531 L 140.453125 51.890625 L 140.628906 52.335938 L 140.78125 52.789062 L 140.886719 53.207031 L 140.925781 53.5625 L 140.886719 53.882812 L 140.78125 54.296875 L 140.628906 54.765625 L 140.453125 55.242188 L 140.121094 56.054688 L 139.96875 56.398438 L 150.335938 53.5625 Z M 139.96875 50.835938 "/>
<path fill="none" stroke-width="3.1104" stroke-linecap="butt" stroke-linejoin="miter" stroke="rgb(95.068359%, 61.663818%, 42.861938%)" stroke-opacity="1" stroke-miterlimit="3.25" d="M 160.703125 53.5625 L 192.765625 53.5625 "/>
<path fill-rule="evenodd" fill="rgb(95.068359%, 61.663818%, 42.861938%)" fill-opacity="1" d="M 191.808594 50.835938 L 191.960938 51.144531 L 192.292969 51.890625 L 192.46875 52.335938 L 192.621094 52.789062 L 192.726562 53.207031 L 192.765625 53.5625 L 192.726562 53.882812 L 192.621094 54.296875 L 192.46875 54.765625 L 192.292969 55.242188 L 191.960938 56.054688 L 191.808594 56.398438 L 202.175781 53.5625 Z M 191.808594 50.835938 "/>
<path fill="none" stroke-width="3.1104" stroke-linecap="butt" stroke-linejoin="miter" stroke="rgb(95.068359%, 61.663818%, 42.861938%)" stroke-opacity="1" stroke-miterlimit="3.25" d="M 212.542969 53.5625 L 244.605469 53.5625 "/>
<path fill-rule="evenodd" fill="rgb(95.068359%, 61.663818%, 42.861938%)" fill-opacity="1" d="M 243.648438 50.835938 L 243.800781 51.144531 L 244.132812 51.890625 L 244.308594 52.335938 L 244.460938 52.789062 L 244.570312 53.207031 L 244.605469 53.5625 L 244.570312 53.882812 L 244.460938 54.296875 L 244.308594 54.765625 L 244.132812 55.242188 L 243.800781 56.054688 L 243.648438 56.398438 L 254.015625 53.5625 Z M 243.648438 50.835938 "/>
<path fill="none" stroke-width="3.1104" stroke-linecap="butt" stroke-linejoin="miter" stroke="rgb(95.068359%, 61.663818%, 42.861938%)" stroke-opacity="1" stroke-miterlimit="3.25" d="M 5.183594 12.089844 L 37.246094 12.089844 "/>
<path fill-rule="evenodd" fill="rgb(95.068359%, 61.663818%, 42.861938%)" fill-opacity="1" d="M 36.289062 9.363281 L 36.441406 9.671875 L 36.773438 10.417969 L 36.949219 10.863281 L 37.101562 11.316406 L 37.207031 11.738281 L 37.246094 12.089844 L 37.207031 12.410156 L 37.101562 12.824219 L 36.949219 13.292969 L 36.773438 13.769531 L 36.441406 14.582031 L 36.289062 14.929688 L 46.65625 12.089844 Z M 36.289062 9.363281 "/>
<path fill="none" stroke-width="3.1104" stroke-linecap="butt" stroke-linejoin="miter" stroke="rgb(95.068359%, 61.663818%, 42.861938%)" stroke-opacity="1" stroke-miterlimit="3.25" d="M 57.023438 12.089844 L 89.085938 12.089844 "/>
<path fill-rule="evenodd" fill="rgb(95.068359%, 61.663818%, 42.861938%)" fill-opacity="1" d="M 88.128906 9.363281 L 88.28125 9.671875 L 88.613281 10.417969 L 88.789062 10.863281 L 88.941406 11.316406 L 89.046875 11.738281 L 89.085938 12.089844 L 89.046875 12.410156 L 88.941406 12.824219 L 88.789062 13.292969 L 88.613281 13.769531 L 88.28125 14.582031 L 88.128906 14.929688 L 98.496094 12.089844 Z M 88.128906 9.363281 "/>
<path fill="none" stroke-width="3.1104" stroke-linecap="butt" stroke-linejoin="miter" stroke="rgb(95.068359%, 61.663818%, 42.861938%)" stroke-opacity="1" stroke-miterlimit="3.25" d="M 108.863281 12.089844 L 140.925781 12.089844 "/>
<path fill-rule="evenodd" fill="rgb(95.068359%, 61.663818%, 42.861938%)" fill-opacity="1" d="M 139.96875 9.363281 L 140.121094 9.671875 L 140.453125 10.417969 L 140.628906 10.863281 L 140.78125 11.316406 L 140.886719 11.738281 L 140.925781 12.089844 L 140.886719 12.410156 L 140.78125 12.824219 L 140.628906 13.292969 L 140.453125 13.769531 L 140.121094 14.582031 L 139.96875 14.929688 L 150.335938 12.089844 Z M 139.96875 9.363281 "/>
<path fill="none" stroke-width="3.1104" stroke-linecap="butt" stroke-linejoin="miter" stroke="rgb(95.068359%, 61.663818%, 42.861938%)" stroke-opacity="1" stroke-miterlimit="3.25" d="M 160.703125 12.089844 L 192.765625 12.089844 "/>
<path fill-rule="evenodd" fill="rgb(95.068359%, 61.663818%, 42.861938%)" fill-opacity="1" d="M 191.808594 9.363281 L 191.960938 9.671875 L 192.292969 10.417969 L 192.46875 10.863281 L 192.621094 11.316406 L 192.726562 11.738281 L 192.765625 12.089844 L 192.726562 12.410156 L 192.621094 12.824219 L 192.46875 13.292969 L 192.292969 13.769531 L 191.960938 14.582031 L 191.808594 14.929688 L 202.175781 12.089844 Z M 191.808594 9.363281 "/>
<path fill="none" stroke-width="3.1104" stroke-linecap="butt" stroke-linejoin="miter" stroke="rgb(95.068359%, 61.663818%, 42.861938%)" stroke-opacity="1" stroke-miterlimit="3.25" d="M 212.542969 12.089844 L 244.605469 12.089844 "/>
<path fill-rule="evenodd" fill="rgb(95.068359%, 61.663818%, 42.861938%)" fill-opacity="1" d="M 243.648438 9.363281 L 243.800781 9.671875 L 244.132812 10.417969 L 244.308594 10.863281 L 244.460938 11.316406 L 244.570312 11.738281 L 244.605469 12.089844 L 244.570312 12.410156 L 244.460938 12.824219 L 244.308594 13.292969 L 244.132812 13.769531 L 243.800781 14.582031 L 243.648438 14.929688 L 254.015625 12.089844 Z M 243.648438 9.363281 "/>
<path fill="none" stroke-width="1.296" stroke-linecap="square" stroke-linejoin="miter" stroke="rgb(0%, 0%, 0%)" stroke-opacity="1" stroke-miterlimit="3.25" d="M 212.542969 115.769531 C 212.542969 143.269531 201.621094 169.640625 182.175781 189.082031 C 162.734375 208.527344 136.363281 219.449219 108.863281 219.449219 C 81.367188 219.449219 54.996094 208.527344 35.550781 189.082031 C 16.105469 169.640625 5.183594 143.269531 5.183594 115.769531 C 5.183594 88.273438 16.105469 61.902344 35.550781 42.457031 C 54.996094 23.015625 81.367188 12.089844 108.863281 12.089844 C 136.363281 12.089844 162.734375 23.015625 182.175781 42.457031 C 201.621094 61.902344 212.542969 88.273438 212.542969 115.769531 Z M 212.542969 115.769531 "/>
<path fill-rule="evenodd" fill="rgb(30.236816%, 45.027161%, 30.012512%)" fill-opacity="1" d="M 214.097656 115.769531 C 214.097656 116.183594 213.933594 116.578125 213.644531 116.871094 C 213.351562 117.160156 212.957031 117.324219 212.542969 117.324219 C 212.132812 117.324219 211.734375 117.160156 211.445312 116.871094 C 211.152344 116.578125 210.988281 116.183594 210.988281 115.769531 C 210.988281 115.359375 211.152344 114.960938 211.445312 114.671875 C 211.734375 114.378906 212.132812 114.214844 212.542969 114.214844 C 212.957031 114.214844 213.351562 114.378906 213.644531 114.671875 C 213.933594 114.960938 214.097656 115.359375 214.097656 115.769531 Z M 214.097656 115.769531 "/>
<path fill="none" stroke-width="3.1104" stroke-linecap="butt" stroke-linejoin="miter" stroke="rgb(30.236816%, 45.027161%, 30.012512%)" stroke-opacity="1" stroke-miterlimit="3.25" d="M 207.46875 83.730469 L 208.523438 86.96875 "/>
<path fill-rule="evenodd" fill="rgb(30.236816%, 45.027161%, 30.012512%)" fill-opacity="1" d="M 210.820312 85.214844 L 210.574219 85.457031 L 209.96875 86.003906 L 209.597656 86.308594 L 209.214844 86.59375 L 208.847656 86.824219 L 208.523438 86.96875 L 208.207031 87.035156 L 207.777344 87.0625 L 207.289062 87.058594 L 206.78125 87.039062 L 205.902344 86.972656 L 205.527344 86.9375 L 211.429688 95.921875 Z M 210.820312 85.214844 "/>
<path fill="none" stroke-width="3.1104" stroke-linecap="butt" stroke-linejoin="miter" stroke="rgb(30.236816%, 45.027161%, 30.012512%)" stroke-opacity="1" stroke-miterlimit="3.25" d="M 192.742188 54.828125 L 201.539062 66.9375 "/>
<path fill-rule="evenodd" fill="rgb(30.236816%, 45.027161%, 30.012512%)" fill-opacity="1" d="M 203.183594 64.558594 L 203.023438 64.863281 L 202.617188 65.570312 L 202.355469 65.976562 L 202.082031 66.367188 L 201.804688 66.699219 L 201.539062 66.9375 L 201.257812 67.09375 L 200.859375 67.253906 L 200.394531 67.402344 L 199.902344 67.539062 L 199.050781 67.75 L 198.679688 67.828125 L 207.070312 74.550781 Z M 203.183594 64.558594 "/>
<path fill="none" stroke-width="3.1104" stroke-linecap="butt" stroke-linejoin="miter" stroke="rgb(30.236816%, 45.027161%, 30.012512%)" stroke-opacity="1" stroke-miterlimit="3.25" d="M 169.804688 31.890625 L 189.335938 46.082031 "/>
<path fill-rule="evenodd" fill="rgb(30.236816%, 45.027161%, 30.012512%)" fill-opacity="1" d="M 190.164062 43.3125 L 190.105469 43.652344 L 189.9375 44.449219 L 189.816406 44.914062 L 189.675781 45.371094 L 189.515625 45.773438 L 189.335938 46.082031 L 189.117188 46.320312 L 188.789062 46.59375 L 188.390625 46.878906 L 187.96875 47.160156 L 187.21875 47.625 L 186.894531 47.8125 L 196.949219 51.613281 Z M 190.164062 43.3125 "/>
<path fill="none" stroke-width="3.1104" stroke-linecap="butt" stroke-linejoin="miter" stroke="rgb(30.236816%, 45.027161%, 30.012512%)" stroke-opacity="1" stroke-miterlimit="3.25" d="M 140.902344 17.164062 L 169.464844 26.445312 "/>
<path fill-rule="evenodd" fill="rgb(30.236816%, 45.027161%, 30.012512%)" fill-opacity="1" d="M 169.398438 23.554688 L 169.445312 23.898438 L 169.53125 24.707031 L 169.5625 25.1875 L 169.566406 25.664062 L 169.539062 26.097656 L 169.464844 26.445312 L 169.332031 26.738281 L 169.101562 27.101562 L 168.8125 27.496094 L 168.496094 27.894531 L 167.929688 28.566406 L 167.675781 28.847656 L 178.414062 29.351562 Z M 169.398438 23.554688 "/>
<path fill="none" stroke-width="3.1104" stroke-linecap="butt" stroke-linejoin="miter" stroke="rgb(30.236816%, 45.027161%, 30.012512%)" stroke-opacity="1" stroke-miterlimit="3.25" d="M 108.863281 12.089844 L 140.925781 12.089844 "/>
<path fill-rule="evenodd" fill="rgb(30.236816%, 45.027161%, 30.012512%)" fill-opacity="1" d="M 139.96875 9.363281 L 140.121094 9.671875 L 140.453125 10.417969 L 140.628906 10.863281 L 140.78125 11.316406 L 140.886719 11.738281 L 140.925781 12.089844 L 140.886719 12.410156 L 140.78125 12.824219 L 140.628906 13.292969 L 140.453125 13.769531 L 140.121094 14.582031 L 139.96875 14.929688 L 150.335938 12.089844 Z M 139.96875 9.363281 "/>
<path fill="none" stroke-width="3.1104" stroke-linecap="butt" stroke-linejoin="miter" stroke="rgb(30.236816%, 45.027161%, 30.012512%)" stroke-opacity="1" stroke-miterlimit="3.25" d="M 76.824219 17.164062 L 105.386719 7.886719 "/>
<path fill-rule="evenodd" fill="rgb(30.236816%, 45.027161%, 30.012512%)" fill-opacity="1" d="M 103.632812 5.585938 L 103.875 5.832031 L 104.421875 6.4375 L 104.726562 6.808594 L 105.011719 7.191406 L 105.242188 7.558594 L 105.386719 7.886719 L 105.449219 8.199219 L 105.476562 8.628906 L 105.476562 9.121094 L 105.457031 9.625 L 105.390625 10.503906 L 105.351562 10.878906 L 114.335938 4.976562 Z M 103.632812 5.585938 "/>
<path fill="none" stroke-width="3.1104" stroke-linecap="butt" stroke-linejoin="miter" stroke="rgb(30.236816%, 45.027161%, 30.012512%)" stroke-opacity="1" stroke-miterlimit="3.25" d="M 47.921875 31.890625 L 67.453125 17.703125 "/>
<path fill-rule="evenodd" fill="rgb(30.236816%, 45.027161%, 30.012512%)" fill-opacity="1" d="M 65.074219 16.058594 L 65.378906 16.21875 L 66.085938 16.625 L 66.492188 16.882812 L 66.882812 17.160156 L 67.214844 17.4375 L 67.453125 17.703125 L 67.613281 17.984375 L 67.769531 18.382812 L 67.917969 18.847656 L 68.058594 19.335938 L 68.265625 20.191406 L 68.347656 20.558594 L 75.066406 12.171875 Z M 65.074219 16.058594 "/>
<path fill="none" stroke-width="3.1104" stroke-linecap="butt" stroke-linejoin="miter" stroke="rgb(30.236816%, 45.027161%, 30.012512%)" stroke-opacity="1" stroke-miterlimit="3.25" d="M 24.984375 54.828125 L 33.78125 42.722656 "/>
<path fill-rule="evenodd" fill="rgb(30.236816%, 45.027161%, 30.012512%)" fill-opacity="1" d="M 31.011719 41.890625 L 31.351562 41.953125 L 32.148438 42.121094 L 32.617188 42.238281 L 33.070312 42.382812 L 33.472656 42.542969 L 33.78125 42.722656 L 34.019531 42.9375 L 34.292969 43.269531 L 34.582031 43.667969 L 34.863281 44.089844 L 35.324219 44.835938 L 35.515625 45.164062 L 39.3125 35.109375 Z M 31.011719 41.890625 "/>
<path fill="none" stroke-width="3.1104" stroke-linecap="butt" stroke-linejoin="miter" stroke="rgb(30.236816%, 45.027161%, 30.012512%)" stroke-opacity="1" stroke-miterlimit="3.25" d="M 10.257812 83.730469 L 11.308594 80.492188 "/>
<path fill-rule="evenodd" fill="rgb(30.236816%, 45.027161%, 30.012512%)" fill-opacity="1" d="M 8.417969 80.5625 L 8.761719 80.511719 L 9.574219 80.425781 L 10.054688 80.394531 L 10.53125 80.390625 L 10.960938 80.417969 L 11.308594 80.492188 L 11.605469 80.628906 L 11.964844 80.855469 L 12.363281 81.144531 L 12.761719 81.460938 L 13.429688 82.027344 L 13.714844 82.28125 L 14.21875 71.542969 Z M 8.417969 80.5625 "/>
<path fill-rule="evenodd" fill="rgb(30.236816%, 45.027161%, 30.012512%)" fill-opacity="1" d="M 6.738281 115.769531 C 6.738281 116.183594 6.574219 116.578125 6.285156 116.871094 C 5.992188 117.160156 5.597656 117.324219 5.183594 117.324219 C 4.773438 117.324219 4.375 117.160156 4.085938 116.871094 C 3.792969 116.578125 3.628906 116.183594 3.628906 115.769531 C 3.628906 115.359375 3.792969 114.960938 4.085938 114.671875 C 4.375 114.378906 4.773438 114.214844 5.183594 114.214844 C 5.597656 114.214844 5.992188 114.378906 6.285156 114.671875 C 6.574219 114.960938 6.738281 115.359375 6.738281 115.769531 Z M 6.738281 115.769531 "/>
<path fill="none" stroke-width="3.1104" stroke-linecap="butt" stroke-linejoin="miter" stroke="rgb(30.236816%, 45.027161%, 30.012512%)" stroke-opacity="1" stroke-miterlimit="3.25" d="M 10.257812 147.808594 L 11.308594 151.046875 "/>
<path fill-rule="evenodd" fill="rgb(30.236816%, 45.027161%, 30.012512%)" fill-opacity="1" d="M 13.609375 149.292969 L 13.363281 149.535156 L 12.757812 150.082031 L 12.386719 150.386719 L 12.003906 150.671875 L 11.636719 150.902344 L 11.308594 151.046875 L 10.996094 151.113281 L 10.566406 151.140625 L 10.074219 151.136719 L 9.570312 151.117188 L 8.691406 151.050781 L 8.316406 151.015625 L 14.21875 159.996094 Z M 13.609375 149.292969 "/>
<path fill="none" stroke-width="3.1104" stroke-linecap="butt" stroke-linejoin="miter" stroke="rgb(30.236816%, 45.027161%, 30.012512%)" stroke-opacity="1" stroke-miterlimit="3.25" d="M 24.984375 176.710938 L 33.78125 188.820312 "/>
<path fill-rule="evenodd" fill="rgb(30.236816%, 45.027161%, 30.012512%)" fill-opacity="1" d="M 35.425781 186.441406 L 35.265625 186.746094 L 34.859375 187.453125 L 34.601562 187.859375 L 34.324219 188.25 L 34.046875 188.582031 L 33.78125 188.820312 L 33.5 188.976562 L 33.101562 189.136719 L 32.636719 189.285156 L 32.144531 189.421875 L 31.292969 189.632812 L 30.921875 189.714844 L 39.3125 196.433594 Z M 35.425781 186.441406 "/>
<path fill="none" stroke-width="3.1104" stroke-linecap="butt" stroke-linejoin="miter" stroke="rgb(30.236816%, 45.027161%, 30.012512%)" stroke-opacity="1" stroke-miterlimit="3.25" d="M 47.921875 199.648438 L 67.453125 213.839844 "/>
<path fill-rule="evenodd" fill="rgb(30.236816%, 45.027161%, 30.012512%)" fill-opacity="1" d="M 68.28125 211.070312 L 68.222656 211.410156 L 68.054688 212.207031 L 67.933594 212.671875 L 67.792969 213.128906 L 67.632812 213.53125 L 67.453125 213.839844 L 67.234375 214.078125 L 66.90625 214.351562 L 66.507812 214.636719 L 66.082031 214.917969 L 65.335938 215.382812 L 65.011719 215.570312 L 75.066406 219.371094 Z M 68.28125 211.070312 "/>
<path fill="none" stroke-width="3.1104" stroke-linecap="butt" stroke-linejoin="miter" stroke="rgb(30.236816%, 45.027161%, 30.012512%)" stroke-opacity="1" stroke-miterlimit="3.25" d="M 76.824219 214.375 L 105.386719 223.65625 "/>
<path fill-rule="evenodd" fill="rgb(30.236816%, 45.027161%, 30.012512%)" fill-opacity="1" d="M 105.320312 220.765625 L 105.367188 221.109375 L 105.453125 221.917969 L 105.484375 222.398438 L 105.488281 222.875 L 105.460938 223.308594 L 105.386719 223.65625 L 105.253906 223.949219 L 105.023438 224.3125 L 104.734375 224.707031 L 104.417969 225.105469 L 103.851562 225.777344 L 103.597656 226.058594 L 114.335938 226.5625 Z M 105.320312 220.765625 "/>
<path fill="none" stroke-width="3.1104" stroke-linecap="butt" stroke-linejoin="miter" stroke="rgb(30.236816%, 45.027161%, 30.012512%)" stroke-opacity="1" stroke-miterlimit="3.25" d="M 108.863281 219.449219 L 140.925781 219.449219 "/>
<path fill-rule="evenodd" fill="rgb(30.236816%, 45.027161%, 30.012512%)" fill-opacity="1" d="M 139.96875 216.722656 L 140.121094 217.03125 L 140.453125 217.777344 L 140.628906 218.222656 L 140.78125 218.675781 L 140.886719 219.097656 L 140.925781 219.449219 L 140.886719 219.769531 L 140.78125 220.1875 L 140.628906 220.652344 L 140.453125 221.128906 L 140.121094 221.941406 L 139.96875 222.289062 L 150.335938 219.449219 Z M 139.96875 216.722656 "/>
<path fill="none" stroke-width="3.1104" stroke-linecap="butt" stroke-linejoin="miter" stroke="rgb(30.236816%, 45.027161%, 30.012512%)" stroke-opacity="1" stroke-miterlimit="3.25" d="M 140.902344 214.375 L 169.464844 205.097656 "/>
<path fill-rule="evenodd" fill="rgb(30.236816%, 45.027161%, 30.012512%)" fill-opacity="1" d="M 167.710938 202.796875 L 167.953125 203.042969 L 168.496094 203.648438 L 168.804688 204.019531 L 169.089844 204.402344 L 169.320312 204.769531 L 169.464844 205.097656 L 169.527344 205.410156 L 169.554688 205.839844 L 169.554688 206.332031 L 169.535156 206.835938 L 169.46875 207.714844 L 169.429688 208.089844 L 178.414062 202.1875 Z M 167.710938 202.796875 "/>
<path fill="none" stroke-width="3.1104" stroke-linecap="butt" stroke-linejoin="miter" stroke="rgb(30.236816%, 45.027161%, 30.012512%)" stroke-opacity="1" stroke-miterlimit="3.25" d="M 169.804688 199.648438 L 189.335938 185.460938 "/>
<path fill-rule="evenodd" fill="rgb(30.236816%, 45.027161%, 30.012512%)" fill-opacity="1" d="M 186.957031 183.816406 L 187.261719 183.976562 L 187.96875 184.382812 L 188.375 184.640625 L 188.765625 184.917969 L 189.097656 185.195312 L 189.335938 185.460938 L 189.496094 185.742188 L 189.652344 186.140625 L 189.804688 186.605469 L 189.941406 187.09375 L 190.148438 187.949219 L 190.230469 188.316406 L 196.949219 179.929688 Z M 186.957031 183.816406 "/>
<path fill="none" stroke-width="3.1104" stroke-linecap="butt" stroke-linejoin="miter" stroke="rgb(30.236816%, 45.027161%, 30.012512%)" stroke-opacity="1" stroke-miterlimit="3.25" d="M 192.742188 176.710938 L 201.539062 164.605469 "/>
<path fill-rule="evenodd" fill="rgb(30.236816%, 45.027161%, 30.012512%)" fill-opacity="1" d="M 198.769531 163.773438 L 199.109375 163.835938 L 199.90625 164.003906 L 200.375 164.125 L 200.828125 164.265625 L 201.230469 164.425781 L 201.539062 164.605469 L 201.777344 164.824219 L 202.050781 165.152344 L 202.339844 165.550781 L 202.621094 165.972656 L 203.082031 166.71875 L 203.273438 167.046875 L 207.070312 156.992188 Z M 198.769531 163.773438 "/>
<path fill="none" stroke-width="3.1104" stroke-linecap="butt" stroke-linejoin="miter" stroke="rgb(30.236816%, 45.027161%, 30.012512%)" stroke-opacity="1" stroke-miterlimit="3.25" d="M 207.46875 147.808594 L 208.523438 144.570312 "/>
<path fill-rule="evenodd" fill="rgb(30.236816%, 45.027161%, 30.012512%)" fill-opacity="1" d="M 205.632812 144.636719 L 205.972656 144.589844 L 206.785156 144.503906 L 207.265625 144.472656 L 207.742188 144.46875 L 208.171875 144.496094 L 208.523438 144.570312 L 208.816406 144.707031 L 209.175781 144.933594 L 209.574219 145.222656 L 209.972656 145.539062 L 210.640625 146.105469 L 210.925781 146.359375 L 211.429688 135.621094 Z M 205.632812 144.636719 "/>
<path fill-rule="evenodd" fill="rgb(30.236816%, 45.027161%, 30.012512%)" fill-opacity="1" d="M 214.097656 115.769531 C 214.097656 116.183594 213.933594 116.578125 213.644531 116.871094 C 213.351562 117.160156 212.957031 117.324219 212.542969 117.324219 C 212.132812 117.324219 211.734375 117.160156 211.445312 116.871094 C 211.152344 116.578125 210.988281 116.183594 210.988281 115.769531 C 210.988281 115.359375 211.152344 114.960938 211.445312 114.671875 C 211.734375 114.378906 212.132812 114.214844 212.542969 114.214844 C 212.957031 114.214844 213.351562 114.378906 213.644531 114.671875 C 213.933594 114.960938 214.097656 115.359375 214.097656 115.769531 Z M 214.097656 115.769531 "/>
</svg>
