<?xml version="1.0" encoding="UTF-8"?>
<svg xmlns="http://www.w3.org/2000/svg" xmlns:xlink="http://www.w3.org/1999/xlink" width="260pt" height="87pt" viewBox="0 0 260 87">
<defs>
<clipPath id="clip-0">
<path clip-rule="nonzero" d="M 0 40 L 259.199219 40 L 259.199219 43 L 0 43 Z M 0 40 "/>
</clipPath>
<clipPath id="clip-1">
<path clip-rule="nonzero" d="M 227 40 L 259.199219 40 L 259.199219 43 L 227 43 Z M 227 40 "/>
</clipPath>
<clipPath id="clip-2">
<path clip-rule="nonzero" d="M 0 82 L 259.199219 82 L 259.199219 83 L 0 83 Z M 0 82 "/>
</clipPath>
<clipPath id="clip-3">
<path clip-rule="nonzero" d="M 129 0 L 130 0 L 130 86.878906 L 129 86.878906 Z M 129 0 "/>
</clipPath>
</defs>
<g clip-path="url(#clip-0)">
<path fill="none" stroke-width="1.2942" stroke-linecap="square" stroke-linejoin="miter" stroke="rgb(0.518799%, 9.823608%, 34.983826%)" stroke-opacity="1" stroke-miterlimit="3.25" d="M 0.179688 41.375 L 259.019531 41.375 "/>
</g>
<path fill="none" stroke-width="1.2942" stroke-linecap="butt" stroke-linejoin="miter" stroke="rgb(95.068359%, 61.663818%, 42.861938%)" stroke-opacity="1" stroke-miterlimit="3.25" d="M 0.179688 41.375 L -31.617188 41.375 "/>
<path fill="none" stroke-width="1.2942" stroke-linecap="butt" stroke-linejoin="miter" stroke="rgb(95.068359%, 61.663818%, 42.861938%)" stroke-opacity="1" stroke-miterlimit="3.25" d="M 6.652344 41.375 L -24.753906 36.402344 "/>
<path fill="none" stroke-width="1.2942" stroke-linecap="butt" stroke-linejoin="miter" stroke="rgb(95.068359%, 61.663818%, 42.861938%)" stroke-opacity="1" stroke-miterlimit="3.25" d="M 13.121094 41.375 L -17.121094 31.550781 "/>
<path fill="none" stroke-width="1.2942" stroke-linecap="butt" stroke-linejoin="miter" stroke="rgb(95.068359%, 61.663818%, 42.861938%)" stroke-opacity="1" stroke-miterlimit="3.25" d="M 19.59375 41.375 L -8.738281 26.941406 "/>
<path fill="none" stroke-width="1.2942" stroke-linecap="butt" stroke-linejoin="miter" stroke="rgb(95.068359%, 61.663818%, 42.861938%)" stroke-opacity="1" stroke-miterlimit="3.25" d="M 26.0625 41.375 L 0.339844 22.683594 "/>
<path fill-rule="evenodd" fill="rgb(95.068359%, 61.663818%, 42.861938%)" fill-opacity="1" d="M -0.488281 25.453125 L -0.429688 25.113281 L -0.261719 24.316406 L -0.140625 23.847656 L 0 23.394531 L 0.160156 22.992188 L 0.339844 22.683594 L 0.558594 22.449219 L 0.886719 22.175781 L 1.285156 21.886719 L 1.707031 21.605469 L 2.453125 21.144531 L 2.777344 20.953125 L -7.265625 17.160156 Z M -0.488281 25.453125 "/>
<path fill="none" stroke-width="1.2942" stroke-linecap="butt" stroke-linejoin="miter" stroke="rgb(95.068359%, 61.663818%, 42.861938%)" stroke-opacity="1" stroke-miterlimit="3.25" d="M 32.535156 41.375 L 10.050781 18.890625 "/>
<path fill-rule="evenodd" fill="rgb(95.068359%, 61.663818%, 42.861938%)" fill-opacity="1" d="M 8.800781 21.492188 L 8.910156 21.167969 L 9.203125 20.40625 L 9.394531 19.964844 L 9.605469 19.539062 L 9.828125 19.167969 L 10.050781 18.890625 L 10.304688 18.691406 L 10.671875 18.472656 L 11.109375 18.25 L 11.570312 18.039062 L 12.378906 17.699219 L 12.730469 17.5625 L 3.40625 12.246094 Z M 8.800781 21.492188 "/>
<path fill="none" stroke-width="1.2942" stroke-linecap="butt" stroke-linejoin="miter" stroke="rgb(95.068359%, 61.663818%, 42.861938%)" stroke-opacity="1" stroke-miterlimit="3.25" d="M 39.007812 41.375 L 20.316406 15.652344 "/>
<path fill-rule="evenodd" fill="rgb(95.068359%, 61.663818%, 42.861938%)" fill-opacity="1" d="M 18.671875 18.027344 L 18.835938 17.71875 L 19.242188 17.015625 L 19.5 16.609375 L 19.773438 16.21875 L 20.050781 15.886719 L 20.316406 15.652344 L 20.597656 15.492188 L 20.992188 15.335938 L 21.460938 15.183594 L 21.949219 15.046875 L 22.800781 14.839844 L 23.167969 14.757812 L 14.792969 8.046875 Z M 18.671875 18.027344 "/>
<path fill="none" stroke-width="1.2942" stroke-linecap="butt" stroke-linejoin="miter" stroke="rgb(95.068359%, 61.663818%, 42.861938%)" stroke-opacity="1" stroke-miterlimit="3.25" d="M 45.476562 41.375 L 31.042969 13.042969 "/>
<path fill-rule="evenodd" fill="rgb(95.068359%, 61.663818%, 42.861938%)" fill-opacity="1" d="M 29.046875 15.132812 L 29.253906 14.855469 L 29.765625 14.222656 L 30.085938 13.863281 L 30.417969 13.523438 L 30.742188 13.238281 L 31.042969 13.042969 L 31.34375 12.929688 L 31.761719 12.835938 L 32.246094 12.761719 L 32.75 12.703125 L 33.621094 12.628906 L 34 12.609375 L 26.773438 4.671875 Z M 29.046875 15.132812 "/>
<path fill="none" stroke-width="1.2942" stroke-linecap="butt" stroke-linejoin="miter" stroke="rgb(95.068359%, 61.663818%, 42.861938%)" stroke-opacity="1" stroke-miterlimit="3.25" d="M 51.949219 41.375 L 42.121094 11.132812 "/>
<path fill-rule="evenodd" fill="rgb(95.068359%, 61.663818%, 42.861938%)" fill-opacity="1" d="M 39.824219 12.886719 L 40.074219 12.644531 L 40.679688 12.097656 L 41.050781 11.792969 L 41.429688 11.507812 L 41.796875 11.277344 L 42.121094 11.132812 L 42.4375 11.070312 L 42.863281 11.042969 L 43.355469 11.042969 L 43.863281 11.066406 L 44.738281 11.128906 L 45.113281 11.167969 L 39.21875 2.195312 Z M 39.824219 12.886719 "/>
<path fill="none" stroke-width="1.2942" stroke-linecap="butt" stroke-linejoin="miter" stroke="rgb(95.068359%, 61.663818%, 42.861938%)" stroke-opacity="1" stroke-miterlimit="3.25" d="M 58.417969 41.375 L 53.445312 9.96875 "/>
<path fill-rule="evenodd" fill="rgb(95.068359%, 61.663818%, 42.861938%)" fill-opacity="1" d="M 50.902344 11.339844 L 51.183594 11.140625 L 51.867188 10.695312 L 52.28125 10.453125 L 52.703125 10.230469 L 53.101562 10.0625 L 53.445312 9.96875 L 53.765625 9.957031 L 54.191406 9.996094 L 54.675781 10.074219 L 55.171875 10.171875 L 56.027344 10.375 L 56.394531 10.46875 L 51.972656 0.6875 Z M 50.902344 11.339844 "/>
<path fill="none" stroke-width="1.2942" stroke-linecap="butt" stroke-linejoin="miter" stroke="rgb(95.068359%, 61.663818%, 42.861938%)" stroke-opacity="1" stroke-miterlimit="3.25" d="M 64.890625 41.375 L 64.890625 9.578125 "/>
<path fill-rule="evenodd" fill="rgb(95.068359%, 61.663818%, 42.861938%)" fill-opacity="1" d="M 62.164062 10.535156 L 62.476562 10.382812 L 63.21875 10.050781 L 63.664062 9.875 L 64.117188 9.71875 L 64.535156 9.613281 L 64.890625 9.578125 L 65.210938 9.613281 L 65.625 9.71875 L 66.089844 9.875 L 66.566406 10.050781 L 67.378906 10.382812 L 67.722656 10.535156 L 64.890625 0.179688 Z M 62.164062 10.535156 "/>
<path fill="none" stroke-width="1.2942" stroke-linecap="butt" stroke-linejoin="miter" stroke="rgb(95.068359%, 61.663818%, 42.861938%)" stroke-opacity="1" stroke-miterlimit="3.25" d="M 71.359375 41.375 L 76.335938 9.96875 "/>
<path fill-rule="evenodd" fill="rgb(95.068359%, 61.663818%, 42.861938%)" fill-opacity="1" d="M 73.496094 10.488281 L 73.824219 10.386719 L 74.609375 10.175781 L 75.078125 10.070312 L 75.550781 9.988281 L 75.980469 9.949219 L 76.335938 9.96875 L 76.644531 10.054688 L 77.039062 10.226562 L 77.472656 10.449219 L 77.917969 10.699219 L 78.667969 11.152344 L 78.984375 11.355469 L 77.804688 0.6875 Z M 73.496094 10.488281 "/>
<path fill="none" stroke-width="1.2942" stroke-linecap="butt" stroke-linejoin="miter" stroke="rgb(95.068359%, 61.663818%, 42.861938%)" stroke-opacity="1" stroke-miterlimit="3.25" d="M 77.832031 41.375 L 87.65625 11.132812 "/>
<path fill-rule="evenodd" fill="rgb(95.068359%, 61.663818%, 42.861938%)" fill-opacity="1" d="M 84.769531 11.199219 L 85.113281 11.152344 L 85.921875 11.066406 L 86.402344 11.035156 L 86.878906 11.03125 L 87.308594 11.058594 L 87.65625 11.132812 L 87.953125 11.269531 L 88.3125 11.496094 L 88.707031 11.785156 L 89.105469 12.101562 L 89.777344 12.667969 L 90.058594 12.917969 L 90.5625 2.195312 Z M 84.769531 11.199219 "/>
<path fill="none" stroke-width="1.2942" stroke-linecap="butt" stroke-linejoin="miter" stroke="rgb(95.068359%, 61.663818%, 42.861938%)" stroke-opacity="1" stroke-miterlimit="3.25" d="M 84.304688 41.375 L 98.738281 13.042969 "/>
<path fill-rule="evenodd" fill="rgb(95.068359%, 61.663818%, 42.861938%)" fill-opacity="1" d="M 95.878906 12.660156 L 96.222656 12.664062 L 97.035156 12.707031 L 97.515625 12.75 L 97.984375 12.820312 L 98.40625 12.914062 L 98.738281 13.042969 L 99.007812 13.222656 L 99.328125 13.503906 L 99.675781 13.851562 L 100.019531 14.226562 L 100.589844 14.890625 L 100.828125 15.179688 L 103.003906 4.671875 Z M 95.878906 12.660156 "/>
<path fill="none" stroke-width="1.2942" stroke-linecap="butt" stroke-linejoin="miter" stroke="rgb(95.068359%, 61.663818%, 42.861938%)" stroke-opacity="1" stroke-miterlimit="3.25" d="M 90.773438 41.375 L 109.464844 15.652344 "/>
<path fill-rule="evenodd" fill="rgb(95.068359%, 61.663818%, 42.861938%)" fill-opacity="1" d="M 106.699219 14.824219 L 107.039062 14.882812 L 107.835938 15.050781 L 108.300781 15.171875 L 108.753906 15.3125 L 109.15625 15.472656 L 109.464844 15.652344 L 109.703125 15.867188 L 109.972656 16.199219 L 110.261719 16.59375 L 110.542969 17.015625 L 111.003906 17.761719 L 111.195312 18.089844 L 114.988281 8.046875 Z M 106.699219 14.824219 "/>
<path fill="none" stroke-width="1.2942" stroke-linecap="butt" stroke-linejoin="miter" stroke="rgb(95.068359%, 61.663818%, 42.861938%)" stroke-opacity="1" stroke-miterlimit="3.25" d="M 97.246094 41.375 L 119.730469 18.890625 "/>
<path fill-rule="evenodd" fill="rgb(95.068359%, 61.663818%, 42.861938%)" fill-opacity="1" d="M 117.128906 17.640625 L 117.453125 17.753906 L 118.214844 18.042969 L 118.65625 18.234375 L 119.082031 18.445312 L 119.453125 18.667969 L 119.730469 18.890625 L 119.929688 19.144531 L 120.148438 19.511719 L 120.371094 19.949219 L 120.582031 20.410156 L 120.921875 21.21875 L 121.058594 21.570312 L 126.375 12.246094 Z M 117.128906 17.640625 "/>
<path fill="none" stroke-width="1.2942" stroke-linecap="butt" stroke-linejoin="miter" stroke="rgb(95.068359%, 61.663818%, 42.861938%)" stroke-opacity="1" stroke-miterlimit="3.25" d="M 103.714844 41.375 L 129.441406 22.683594 "/>
<path fill-rule="evenodd" fill="rgb(95.068359%, 61.663818%, 42.861938%)" fill-opacity="1" d="M 127.066406 21.042969 L 127.371094 21.203125 L 128.078125 21.609375 L 128.480469 21.867188 L 128.871094 22.144531 L 129.203125 22.421875 L 129.441406 22.683594 L 129.597656 22.964844 L 129.757812 23.363281 L 129.90625 23.828125 L 130.042969 24.320312 L 130.253906 25.171875 L 130.332031 25.539062 L 137.042969 17.160156 Z M 127.066406 21.042969 "/>
<path fill="none" stroke-width="1.2942" stroke-linecap="butt" stroke-linejoin="miter" stroke="rgb(95.068359%, 61.663818%, 42.861938%)" stroke-opacity="1" stroke-miterlimit="3.25" d="M 110.1875 41.375 L 138.519531 26.941406 "/>
<path fill-rule="evenodd" fill="rgb(95.068359%, 61.663818%, 42.861938%)" fill-opacity="1" d="M 136.429688 24.945312 L 136.707031 25.152344 L 137.339844 25.664062 L 137.699219 25.984375 L 138.039062 26.316406 L 138.324219 26.640625 L 138.519531 26.941406 L 138.632812 27.242188 L 138.726562 27.660156 L 138.800781 28.144531 L 138.859375 28.648438 L 138.933594 29.523438 L 138.953125 29.898438 L 146.894531 22.671875 Z M 136.429688 24.945312 "/>
<path fill="none" stroke-width="1.2942" stroke-linecap="butt" stroke-linejoin="miter" stroke="rgb(95.068359%, 61.663818%, 42.861938%)" stroke-opacity="1" stroke-miterlimit="3.25" d="M 116.65625 41.375 L 146.898438 31.550781 "/>
<path fill-rule="evenodd" fill="rgb(95.068359%, 61.663818%, 42.861938%)" fill-opacity="1" d="M 145.148438 29.253906 L 145.390625 29.5 L 145.933594 30.105469 L 146.242188 30.476562 L 146.523438 30.859375 L 146.753906 31.222656 L 146.898438 31.550781 L 146.964844 31.867188 L 146.992188 32.292969 L 146.988281 32.78125 L 146.96875 33.289062 L 146.902344 34.164062 L 146.867188 34.539062 L 155.835938 28.644531 Z M 145.148438 29.253906 "/>
<path fill="none" stroke-width="1.2942" stroke-linecap="butt" stroke-linejoin="miter" stroke="rgb(95.068359%, 61.663818%, 42.861938%)" stroke-opacity="1" stroke-miterlimit="3.25" d="M 123.128906 41.375 L 154.535156 36.402344 "/>
<path fill-rule="evenodd" fill="rgb(95.068359%, 61.663818%, 42.861938%)" fill-opacity="1" d="M 153.164062 33.859375 L 153.363281 34.140625 L 153.808594 34.824219 L 154.050781 35.238281 L 154.273438 35.660156 L 154.445312 36.058594 L 154.535156 36.402344 L 154.550781 36.722656 L 154.507812 37.148438 L 154.429688 37.632812 L 154.332031 38.128906 L 154.128906 38.984375 L 154.035156 39.347656 L 163.816406 34.929688 Z M 153.164062 33.859375 "/>
<path fill="none" stroke-width="1.2942" stroke-linecap="butt" stroke-linejoin="miter" stroke="rgb(95.068359%, 61.663818%, 42.861938%)" stroke-opacity="1" stroke-miterlimit="3.25" d="M 129.601562 41.375 L 161.398438 41.375 "/>
<path fill-rule="evenodd" fill="rgb(95.068359%, 61.663818%, 42.861938%)" fill-opacity="1" d="M 160.441406 38.652344 L 160.59375 38.960938 L 160.925781 39.703125 L 161.101562 40.152344 L 161.253906 40.601562 L 161.359375 41.023438 L 161.398438 41.375 L 161.359375 41.695312 L 161.253906 42.109375 L 161.101562 42.574219 L 160.925781 43.050781 L 160.59375 43.863281 L 160.441406 44.210938 L 170.796875 41.375 Z M 160.441406 38.652344 "/>
<path fill="none" stroke-width="1.2942" stroke-linecap="butt" stroke-linejoin="miter" stroke="rgb(95.068359%, 61.663818%, 42.861938%)" stroke-opacity="1" stroke-miterlimit="3.25" d="M 136.070312 41.375 L 167.476562 46.351562 "/>
<path fill-rule="evenodd" fill="rgb(95.068359%, 61.663818%, 42.861938%)" fill-opacity="1" d="M 166.960938 43.507812 L 167.0625 43.839844 L 167.273438 44.625 L 167.378906 45.09375 L 167.457031 45.5625 L 167.496094 45.996094 L 167.476562 46.351562 L 167.390625 46.660156 L 167.222656 47.054688 L 166.996094 47.488281 L 166.75 47.929688 L 166.292969 48.679688 L 166.089844 49 L 176.757812 47.820312 Z M 166.960938 43.507812 "/>
<path fill="none" stroke-width="1.2942" stroke-linecap="butt" stroke-linejoin="miter" stroke="rgb(95.068359%, 61.663818%, 42.861938%)" stroke-opacity="1" stroke-miterlimit="3.25" d="M 142.542969 41.375 L 172.785156 51.203125 "/>
<path fill-rule="evenodd" fill="rgb(95.068359%, 61.663818%, 42.861938%)" fill-opacity="1" d="M 172.714844 48.316406 L 172.765625 48.65625 L 172.851562 49.464844 L 172.882812 49.945312 L 172.886719 50.421875 L 172.859375 50.855469 L 172.785156 51.203125 L 172.648438 51.496094 L 172.421875 51.855469 L 172.132812 52.25 L 171.816406 52.648438 L 171.25 53.320312 L 171 53.601562 L 181.722656 54.105469 Z M 172.714844 48.316406 "/>
<path fill="none" stroke-width="1.2942" stroke-linecap="butt" stroke-linejoin="miter" stroke="rgb(95.068359%, 61.663818%, 42.861938%)" stroke-opacity="1" stroke-miterlimit="3.25" d="M 149.011719 41.375 L 177.34375 55.8125 "/>
<path fill-rule="evenodd" fill="rgb(95.068359%, 61.663818%, 42.861938%)" fill-opacity="1" d="M 177.730469 52.949219 L 177.726562 53.296875 L 177.683594 54.109375 L 177.636719 54.585938 L 177.570312 55.058594 L 177.472656 55.480469 L 177.34375 55.8125 L 177.167969 56.082031 L 176.882812 56.402344 L 176.535156 56.746094 L 176.164062 57.089844 L 175.5 57.664062 L 175.207031 57.902344 L 185.71875 60.078125 Z M 177.730469 52.949219 "/>
<path fill="none" stroke-width="1.2942" stroke-linecap="butt" stroke-linejoin="miter" stroke="rgb(95.068359%, 61.663818%, 42.861938%)" stroke-opacity="1" stroke-miterlimit="3.25" d="M 155.484375 41.375 L 181.207031 60.066406 "/>
<path fill-rule="evenodd" fill="rgb(95.068359%, 61.663818%, 42.861938%)" fill-opacity="1" d="M 182.039062 57.300781 L 181.976562 57.640625 L 181.808594 58.4375 L 181.691406 58.902344 L 181.546875 59.355469 L 181.386719 59.757812 L 181.207031 60.066406 L 180.992188 60.304688 L 180.660156 60.574219 L 180.265625 60.863281 L 179.84375 61.144531 L 179.097656 61.605469 L 178.769531 61.796875 L 188.8125 65.589844 Z M 182.039062 57.300781 "/>
<path fill="none" stroke-width="1.2942" stroke-linecap="butt" stroke-linejoin="miter" stroke="rgb(95.068359%, 61.663818%, 42.861938%)" stroke-opacity="1" stroke-miterlimit="3.25" d="M 161.953125 41.375 L 184.4375 63.859375 "/>
<path fill-rule="evenodd" fill="rgb(95.068359%, 61.663818%, 42.861938%)" fill-opacity="1" d="M 185.691406 61.257812 L 185.578125 61.585938 L 185.289062 62.34375 L 185.097656 62.785156 L 184.886719 63.210938 L 184.664062 63.585938 L 184.4375 63.859375 L 184.1875 64.0625 L 183.820312 64.277344 L 183.382812 64.5 L 182.921875 64.710938 L 182.113281 65.050781 L 181.761719 65.1875 L 191.085938 70.503906 Z M 185.691406 61.257812 "/>
<path fill="none" stroke-width="1.2942" stroke-linecap="butt" stroke-linejoin="miter" stroke="rgb(95.068359%, 61.663818%, 42.861938%)" stroke-opacity="1" stroke-miterlimit="3.25" d="M 168.425781 41.375 L 187.117188 67.101562 "/>
<path fill-rule="evenodd" fill="rgb(95.068359%, 61.663818%, 42.861938%)" fill-opacity="1" d="M 188.757812 64.726562 L 188.597656 65.03125 L 188.191406 65.738281 L 187.933594 66.140625 L 187.65625 66.53125 L 187.382812 66.863281 L 187.117188 67.101562 L 186.835938 67.257812 L 186.4375 67.417969 L 185.972656 67.566406 L 185.484375 67.703125 L 184.628906 67.914062 L 184.261719 67.992188 L 192.640625 74.703125 Z M 188.757812 64.726562 "/>
<path fill="none" stroke-width="1.2942" stroke-linecap="butt" stroke-linejoin="miter" stroke="rgb(95.068359%, 61.663818%, 42.861938%)" stroke-opacity="1" stroke-miterlimit="3.25" d="M 174.898438 41.375 L 189.332031 69.707031 "/>
<path fill-rule="evenodd" fill="rgb(95.068359%, 61.663818%, 42.861938%)" fill-opacity="1" d="M 191.328125 67.621094 L 191.121094 67.894531 L 190.609375 68.527344 L 190.289062 68.890625 L 189.957031 69.230469 L 189.632812 69.515625 L 189.332031 69.707031 L 189.03125 69.820312 L 188.613281 69.914062 L 188.128906 69.988281 L 187.625 70.046875 L 186.75 70.121094 L 186.375 70.140625 L 193.597656 78.082031 Z M 191.328125 67.621094 "/>
<path fill="none" stroke-width="1.2942" stroke-linecap="butt" stroke-linejoin="miter" stroke="rgb(95.068359%, 61.663818%, 42.861938%)" stroke-opacity="1" stroke-miterlimit="3.25" d="M 181.367188 41.375 L 191.195312 71.617188 "/>
<path fill-rule="evenodd" fill="rgb(95.068359%, 61.663818%, 42.861938%)" fill-opacity="1" d="M 193.488281 69.867188 L 193.242188 70.105469 L 192.636719 70.652344 L 192.265625 70.957031 L 191.886719 71.242188 L 191.519531 71.472656 L 191.195312 71.617188 L 190.878906 71.679688 L 190.453125 71.707031 L 189.960938 71.707031 L 189.453125 71.6875 L 188.578125 71.621094 L 188.203125 71.582031 L 194.097656 80.554688 Z M 193.488281 69.867188 "/>
<path fill="none" stroke-width="1.2942" stroke-linecap="butt" stroke-linejoin="miter" stroke="rgb(95.068359%, 61.663818%, 42.861938%)" stroke-opacity="1" stroke-miterlimit="3.25" d="M 187.839844 41.375 L 192.8125 72.78125 "/>
<path fill-rule="evenodd" fill="rgb(95.068359%, 61.663818%, 42.861938%)" fill-opacity="1" d="M 195.355469 71.410156 L 195.074219 71.609375 L 194.390625 72.054688 L 193.976562 72.296875 L 193.554688 72.519531 L 193.15625 72.691406 L 192.8125 72.78125 L 192.492188 72.796875 L 192.066406 72.757812 L 191.582031 72.679688 L 191.085938 72.578125 L 190.230469 72.378906 L 189.863281 72.28125 L 194.285156 82.0625 Z M 195.355469 71.410156 "/>
<path fill="none" stroke-width="1.2942" stroke-linecap="butt" stroke-linejoin="miter" stroke="rgb(95.068359%, 61.663818%, 42.861938%)" stroke-opacity="1" stroke-miterlimit="3.25" d="M 194.308594 41.375 L 194.308594 73.171875 "/>
<path fill-rule="evenodd" fill="rgb(95.068359%, 61.663818%, 42.861938%)" fill-opacity="1" d="M 197.035156 72.21875 L 196.726562 72.371094 L 195.980469 72.703125 L 195.535156 72.878906 L 195.082031 73.03125 L 194.664062 73.136719 L 194.308594 73.171875 L 193.988281 73.136719 L 193.574219 73.03125 L 193.109375 72.878906 L 192.632812 72.703125 L 191.820312 72.371094 L 191.476562 72.21875 L 194.308594 82.570312 Z M 197.035156 72.21875 "/>
<path fill="none" stroke-width="1.2942" stroke-linecap="butt" stroke-linejoin="miter" stroke="rgb(95.068359%, 61.663818%, 42.861938%)" stroke-opacity="1" stroke-miterlimit="3.25" d="M 200.78125 41.375 L 195.808594 72.78125 "/>
<path fill-rule="evenodd" fill="rgb(95.068359%, 61.663818%, 42.861938%)" fill-opacity="1" d="M 198.648438 72.265625 L 198.316406 72.367188 L 197.53125 72.578125 L 197.0625 72.683594 L 196.59375 72.761719 L 196.160156 72.800781 L 195.808594 72.78125 L 195.496094 72.695312 L 195.105469 72.527344 L 194.667969 72.300781 L 194.226562 72.054688 L 193.476562 71.597656 L 193.15625 71.394531 L 194.335938 82.0625 Z M 198.648438 72.265625 "/>
<path fill="none" stroke-width="1.2942" stroke-linecap="butt" stroke-linejoin="miter" stroke="rgb(95.068359%, 61.663818%, 42.861938%)" stroke-opacity="1" stroke-miterlimit="3.25" d="M 207.253906 41.375 L 197.425781 71.617188 "/>
<path fill-rule="evenodd" fill="rgb(95.068359%, 61.663818%, 42.861938%)" fill-opacity="1" d="M 200.3125 71.550781 L 199.972656 71.597656 L 199.160156 71.683594 L 198.679688 71.714844 L 198.207031 71.71875 L 197.773438 71.691406 L 197.425781 71.617188 L 197.132812 71.484375 L 196.773438 71.253906 L 196.375 70.964844 L 195.976562 70.652344 L 195.308594 70.082031 L 195.027344 69.832031 L 194.523438 80.554688 Z M 200.3125 71.550781 "/>
<path fill="none" stroke-width="1.2942" stroke-linecap="butt" stroke-linejoin="miter" stroke="rgb(95.068359%, 61.663818%, 42.861938%)" stroke-opacity="1" stroke-miterlimit="3.25" d="M 213.722656 41.375 L 199.289062 69.707031 "/>
<path fill-rule="evenodd" fill="rgb(95.068359%, 61.663818%, 42.861938%)" fill-opacity="1" d="M 202.148438 70.09375 L 201.804688 70.085938 L 200.992188 70.046875 L 200.511719 70 L 200.039062 69.933594 L 199.617188 69.835938 L 199.289062 69.707031 L 199.019531 69.53125 L 198.699219 69.246094 L 198.351562 68.898438 L 198.007812 68.527344 L 197.433594 67.863281 L 197.195312 67.570312 L 195.019531 78.082031 Z M 202.148438 70.09375 "/>
<path fill="none" stroke-width="1.2942" stroke-linecap="butt" stroke-linejoin="miter" stroke="rgb(95.068359%, 61.663818%, 42.861938%)" stroke-opacity="1" stroke-miterlimit="3.25" d="M 220.195312 41.375 L 201.503906 67.101562 "/>
<path fill-rule="evenodd" fill="rgb(95.068359%, 61.663818%, 42.861938%)" fill-opacity="1" d="M 204.269531 67.929688 L 203.929688 67.871094 L 203.132812 67.703125 L 202.667969 67.582031 L 202.214844 67.441406 L 201.8125 67.277344 L 201.503906 67.101562 L 201.265625 66.882812 L 200.992188 66.554688 L 200.707031 66.15625 L 200.425781 65.734375 L 199.964844 64.988281 L 199.773438 64.660156 L 195.980469 74.703125 Z M 204.269531 67.929688 "/>
<path fill="none" stroke-width="1.2942" stroke-linecap="butt" stroke-linejoin="miter" stroke="rgb(95.068359%, 61.663818%, 42.861938%)" stroke-opacity="1" stroke-miterlimit="3.25" d="M 226.664062 41.375 L 204.179688 63.859375 "/>
<path fill-rule="evenodd" fill="rgb(95.068359%, 61.663818%, 42.861938%)" fill-opacity="1" d="M 206.78125 65.109375 L 206.457031 65 L 205.695312 64.707031 L 205.253906 64.515625 L 204.828125 64.304688 L 204.457031 64.085938 L 204.179688 63.859375 L 203.980469 63.609375 L 203.761719 63.238281 L 203.539062 62.800781 L 203.328125 62.339844 L 202.988281 61.53125 L 202.851562 61.179688 L 197.535156 70.503906 Z M 206.78125 65.109375 "/>
<path fill="none" stroke-width="1.2942" stroke-linecap="butt" stroke-linejoin="miter" stroke="rgb(95.068359%, 61.663818%, 42.861938%)" stroke-opacity="1" stroke-miterlimit="3.25" d="M 233.136719 41.375 L 207.410156 60.066406 "/>
<path fill-rule="evenodd" fill="rgb(95.068359%, 61.663818%, 42.861938%)" fill-opacity="1" d="M 209.785156 61.707031 L 209.480469 61.546875 L 208.773438 61.140625 L 208.371094 60.882812 L 207.980469 60.609375 L 207.648438 60.332031 L 207.410156 60.066406 L 207.253906 59.785156 L 207.09375 59.386719 L 206.945312 58.921875 L 206.808594 58.433594 L 206.597656 57.582031 L 206.519531 57.210938 L 199.808594 65.589844 Z M 209.785156 61.707031 "/>
<path fill="none" stroke-width="1.2942" stroke-linecap="butt" stroke-linejoin="miter" stroke="rgb(95.068359%, 61.663818%, 42.861938%)" stroke-opacity="1" stroke-miterlimit="3.25" d="M 239.605469 41.375 L 211.273438 55.8125 "/>
<path fill-rule="evenodd" fill="rgb(95.068359%, 61.663818%, 42.861938%)" fill-opacity="1" d="M 213.363281 57.804688 L 213.085938 57.597656 L 212.453125 57.085938 L 212.09375 56.769531 L 211.753906 56.4375 L 211.46875 56.109375 L 211.273438 55.8125 L 211.164062 55.511719 L 211.070312 55.09375 L 210.992188 54.609375 L 210.933594 54.105469 L 210.863281 53.230469 L 210.839844 52.851562 L 202.902344 60.078125 Z M 213.363281 57.804688 "/>
<path fill="none" stroke-width="1.2942" stroke-linecap="butt" stroke-linejoin="miter" stroke="rgb(95.068359%, 61.663818%, 42.861938%)" stroke-opacity="1" stroke-miterlimit="3.25" d="M 246.078125 41.375 L 215.835938 51.203125 "/>
<path fill-rule="evenodd" fill="rgb(95.068359%, 61.663818%, 42.861938%)" fill-opacity="1" d="M 217.585938 53.496094 L 217.347656 53.25 L 216.800781 52.644531 L 216.496094 52.273438 L 216.210938 51.894531 L 215.980469 51.527344 L 215.835938 51.203125 L 215.773438 50.886719 L 215.746094 50.460938 L 215.746094 49.96875 L 215.765625 49.460938 L 215.832031 48.585938 L 215.871094 48.210938 L 206.898438 54.105469 Z M 217.585938 53.496094 "/>
<path fill="none" stroke-width="1.2942" stroke-linecap="butt" stroke-linejoin="miter" stroke="rgb(95.068359%, 61.663818%, 42.861938%)" stroke-opacity="1" stroke-miterlimit="3.25" d="M 252.550781 41.375 L 221.144531 46.351562 "/>
<path fill-rule="evenodd" fill="rgb(95.068359%, 61.663818%, 42.861938%)" fill-opacity="1" d="M 222.511719 48.890625 L 222.316406 48.609375 L 221.871094 47.925781 L 221.625 47.511719 L 221.40625 47.089844 L 221.234375 46.695312 L 221.144531 46.351562 L 221.128906 46.027344 L 221.167969 45.601562 L 221.246094 45.117188 L 221.347656 44.621094 L 221.546875 43.765625 L 221.644531 43.402344 L 211.859375 47.820312 Z M 222.511719 48.890625 "/>
<g clip-path="url(#clip-1)">
<path fill="none" stroke-width="1.2942" stroke-linecap="butt" stroke-linejoin="miter" stroke="rgb(95.068359%, 61.663818%, 42.861938%)" stroke-opacity="1" stroke-miterlimit="3.25" d="M 259.019531 41.375 L 227.222656 41.375 "/>
</g>
<path fill-rule="evenodd" fill="rgb(95.068359%, 61.663818%, 42.861938%)" fill-opacity="1" d="M 228.179688 44.101562 L 228.027344 43.789062 L 227.695312 43.046875 L 227.519531 42.601562 L 227.363281 42.148438 L 227.257812 41.730469 L 227.222656 41.375 L 227.257812 41.054688 L 227.363281 40.640625 L 227.519531 40.175781 L 227.695312 39.699219 L 228.027344 38.886719 L 228.179688 38.542969 L 217.824219 41.375 Z M 228.179688 44.101562 "/>
<g clip-path="url(#clip-2)">
<path fill="none" stroke-width="0.36" stroke-linecap="butt" stroke-linejoin="miter" stroke="rgb(0%, 0%, 0%)" stroke-opacity="1" stroke-miterlimit="3.25" d="M 0.179688 82.570312 L 259.019531 82.570312 "/>
</g>
<g clip-path="url(#clip-3)">
<path fill="none" stroke-width="0.36" stroke-linecap="butt" stroke-linejoin="miter" stroke="rgb(0%, 0%, 0%)" stroke-opacity="1" stroke-miterlimit="3.25" d="M 129.601562 86.691406 L 129.601562 0.179688 "/>
</g>
</svg>
