<?xml version="1.0" encoding="UTF-8"?>
<svg xmlns="http://www.w3.org/2000/svg" xmlns:xlink="http://www.w3.org/1999/xlink" width="260pt" height="259pt" viewBox="0 0 260 259">
<path fill-rule="evenodd" fill="rgb(0%, 0%, 0%)" fill-opacity="1" d="M 130.601562 129.394531 C 130.601562 129.65625 130.496094 129.914062 130.308594 130.101562 C 130.121094 130.289062 129.863281 130.394531 129.601562 130.394531 C 129.335938 130.394531 129.082031 130.289062 128.894531 130.101562 C 128.707031 129.914062 128.601562 129.65625 128.601562 129.394531 C 128.601562 129.128906 128.707031 128.875 128.894531 128.683594 C 129.082031 128.496094 129.335938 128.394531 129.601562 128.394531 C 129.863281 128.394531 130.121094 128.496094 130.308594 128.683594 C 130.496094 128.875 130.601562 129.128906 130.601562 129.394531 Z M 130.601562 129.394531 "/>
<path fill="none" stroke-width="0.36" stroke-linecap="square" stroke-linejoin="miter" stroke="rgb(0%, 0%, 0%)" stroke-opacity="1" stroke-miterlimit="3.25" d="M 135.820312 129.394531 C 135.820312 131.042969 135.164062 132.625 134 133.792969 C 132.832031 134.957031 131.25 135.613281 129.601562 135.613281 C 127.949219 135.613281 126.367188 134.957031 125.203125 133.792969 C 124.035156 132.625 123.378906 131.042969 123.378906 129.394531 C 123.378906 127.742188 124.035156 126.160156 125.203125 124.992188 C 126.367188 123.828125 127.949219 123.171875 129.601562 123.171875 C 131.25 123.171875 132.832031 123.828125 134 124.992188 C 135.164062 126.160156 135.820312 127.742188 135.820312 129.394531 Z M 135.820312 129.394531 "/>
<path fill="none" stroke-width="0.36" stroke-linecap="square" stroke-linejoin="miter" stroke="rgb(0%, 0%, 0%)" stroke-opacity="1" stroke-miterlimit="3.25" d="M 142.042969 129.394531 C 142.042969 132.691406 140.730469 135.855469 138.398438 138.191406 C 136.0625 140.523438 132.898438 141.835938 129.601562 141.835938 C 126.300781 141.835938 123.136719 140.523438 120.800781 138.191406 C 118.46875 135.855469 117.160156 132.691406 117.160156 129.394531 C 117.160156 126.09375 118.46875 122.929688 120.800781 120.59375 C 123.136719 118.261719 126.300781 116.949219 129.601562 116.949219 C 132.898438 116.949219 136.0625 118.261719 138.398438 120.59375 C 140.730469 122.929688 142.042969 126.09375 142.042969 129.394531 Z M 142.042969 129.394531 "/>
<path fill="none" stroke-width="0.36" stroke-linecap="square" stroke-linejoin="miter" stroke="rgb(0%, 0%, 0%)" stroke-opacity="1" stroke-miterlimit="3.25" d="M 148.261719 129.394531 C 148.261719 134.34375 146.296875 139.089844 142.796875 142.589844 C 139.296875 146.089844 134.550781 148.054688 129.601562 148.054688 C 124.652344 148.054688 119.902344 146.089844 116.402344 142.589844 C 112.902344 139.089844 110.9375 134.34375 110.9375 129.394531 C 110.9375 124.441406 112.902344 119.695312 116.402344 116.195312 C 119.902344 112.695312 124.652344 110.730469 129.601562 110.730469 C 134.550781 110.730469 139.296875 112.695312 142.796875 116.195312 C 146.296875 119.695312 148.261719 124.441406 148.261719 129.394531 Z M 148.261719 129.394531 "/>
<path fill="none" stroke-width="0.36" stroke-linecap="square" stroke-linejoin="miter" stroke="rgb(0%, 0%, 0%)" stroke-opacity="1" stroke-miterlimit="3.25" d="M 154.484375 129.394531 C 154.484375 135.992188 151.863281 142.320312 147.195312 146.988281 C 142.527344 151.652344 136.199219 154.277344 129.601562 154.277344 C 123 154.277344 116.671875 151.652344 112.003906 146.988281 C 107.339844 142.320312 104.71875 135.992188 104.71875 129.394531 C 104.71875 122.792969 107.339844 116.464844 112.003906 111.796875 C 116.671875 107.132812 123 104.507812 129.601562 104.507812 C 136.199219 104.507812 142.527344 107.132812 147.195312 111.796875 C 151.863281 116.464844 154.484375 122.792969 154.484375 129.394531 Z M 154.484375 129.394531 "/>
<path fill="none" stroke-width="0.36" stroke-linecap="square" stroke-linejoin="miter" stroke="rgb(0%, 0%, 0%)" stroke-opacity="1" stroke-miterlimit="3.25" d="M 160.703125 129.394531 C 160.703125 137.640625 157.425781 145.554688 151.59375 151.386719 C 145.761719 157.21875 137.847656 160.496094 129.601562 160.496094 C 121.351562 160.496094 113.4375 157.21875 107.605469 151.386719 C 101.773438 145.554688 98.496094 137.640625 98.496094 129.394531 C 98.496094 121.144531 101.773438 113.230469 107.605469 107.398438 C 113.4375 101.566406 121.351562 98.289062 129.601562 98.289062 C 137.847656 98.289062 145.761719 101.566406 151.59375 107.398438 C 157.425781 113.230469 160.703125 121.144531 160.703125 129.394531 Z M 160.703125 129.394531 "/>
<path fill="none" stroke-width="0.36" stroke-linecap="square" stroke-linejoin="miter" stroke="rgb(0%, 0%, 0%)" stroke-opacity="1" stroke-miterlimit="3.25" d="M 166.925781 129.394531 C 166.925781 139.292969 162.992188 148.785156 155.992188 155.785156 C 148.992188 162.785156 139.5 166.71875 129.601562 166.71875 C 119.699219 166.71875 110.207031 162.785156 103.207031 155.785156 C 96.207031 148.785156 92.273438 139.292969 92.273438 129.394531 C 92.273438 119.492188 96.207031 110 103.207031 103 C 110.207031 96 119.699219 92.066406 129.601562 92.066406 C 139.5 92.066406 148.992188 96 155.992188 103 C 162.992188 110 166.925781 119.492188 166.925781 129.394531 Z M 166.925781 129.394531 "/>
<path fill="none" stroke-width="0.36" stroke-linecap="square" stroke-linejoin="miter" stroke="rgb(0%, 0%, 0%)" stroke-opacity="1" stroke-miterlimit="3.25" d="M 173.144531 129.394531 C 173.144531 140.941406 168.558594 152.019531 160.390625 160.183594 C 152.226562 168.351562 141.148438 172.9375 129.601562 172.9375 C 118.050781 172.9375 106.976562 168.351562 98.808594 160.183594 C 90.640625 152.019531 86.054688 140.941406 86.054688 129.394531 C 86.054688 117.84375 90.640625 106.769531 98.808594 98.601562 C 106.976562 90.433594 118.050781 85.847656 129.601562 85.847656 C 141.148438 85.847656 152.226562 90.433594 160.390625 98.601562 C 168.558594 106.769531 173.144531 117.84375 173.144531 129.394531 Z M 173.144531 129.394531 "/>
<path fill="none" stroke-width="0.36" stroke-linecap="square" stroke-linejoin="miter" stroke="rgb(0%, 0%, 0%)" stroke-opacity="1" stroke-miterlimit="3.25" d="M 179.367188 129.394531 C 179.367188 142.589844 174.125 155.25 164.789062 164.582031 C 155.457031 173.914062 142.800781 179.160156 129.601562 179.160156 C 116.402344 179.160156 103.742188 173.914062 94.410156 164.582031 C 85.078125 155.25 79.832031 142.589844 79.832031 129.394531 C 79.832031 116.195312 85.078125 103.535156 94.410156 94.203125 C 103.742188 84.871094 116.402344 79.625 129.601562 79.625 C 142.800781 79.625 155.457031 84.871094 164.789062 94.203125 C 174.125 103.535156 179.367188 116.195312 179.367188 129.394531 Z M 179.367188 129.394531 "/>
<path fill="none" stroke-width="0.36" stroke-linecap="square" stroke-linejoin="miter" stroke="rgb(0%, 0%, 0%)" stroke-opacity="1" stroke-miterlimit="3.25" d="M 185.585938 129.394531 C 185.585938 144.242188 179.6875 158.480469 169.1875 168.980469 C 158.6875 179.480469 144.449219 185.378906 129.601562 185.378906 C 114.75 185.378906 100.511719 179.480469 90.011719 168.980469 C 79.511719 158.480469 73.613281 144.242188 73.613281 129.394531 C 73.613281 114.542969 79.511719 100.304688 90.011719 89.804688 C 100.511719 79.304688 114.75 73.40625 129.601562 73.40625 C 144.449219 73.40625 158.6875 79.304688 169.1875 89.804688 C 179.6875 100.304688 185.585938 114.542969 185.585938 129.394531 Z M 185.585938 129.394531 "/>
<path fill="none" stroke-width="0.36" stroke-linecap="square" stroke-linejoin="miter" stroke="rgb(0%, 0%, 0%)" stroke-opacity="1" stroke-miterlimit="3.25" d="M 191.808594 129.394531 C 191.808594 145.890625 185.253906 161.714844 173.585938 173.378906 C 161.921875 185.046875 146.097656 191.601562 129.601562 191.601562 C 113.101562 191.601562 97.277344 185.046875 85.613281 173.378906 C 73.945312 161.714844 67.390625 145.890625 67.390625 129.394531 C 67.390625 112.894531 73.945312 97.070312 85.613281 85.40625 C 97.277344 73.738281 113.101562 67.183594 129.601562 67.183594 C 146.097656 67.183594 161.921875 73.738281 173.585938 85.40625 C 185.253906 97.070312 191.808594 112.894531 191.808594 129.394531 Z M 191.808594 129.394531 "/>
<path fill="none" stroke-width="0.36" stroke-linecap="square" stroke-linejoin="miter" stroke="rgb(0%, 0%, 0%)" stroke-opacity="1" stroke-miterlimit="3.25" d="M 198.027344 129.394531 C 198.027344 147.542969 190.820312 164.945312 177.988281 177.777344 C 165.152344 190.613281 147.75 197.820312 129.601562 197.820312 C 111.453125 197.820312 94.046875 190.613281 81.214844 177.777344 C 68.378906 164.945312 61.171875 147.542969 61.171875 129.394531 C 61.171875 111.246094 68.378906 93.839844 81.214844 81.007812 C 94.046875 68.171875 111.453125 60.964844 129.601562 60.964844 C 147.75 60.964844 165.152344 68.171875 177.988281 81.007812 C 190.820312 93.839844 198.027344 111.246094 198.027344 129.394531 Z M 198.027344 129.394531 "/>
<path fill="none" stroke-width="0.36" stroke-linecap="square" stroke-linejoin="miter" stroke="rgb(0%, 0%, 0%)" stroke-opacity="1" stroke-miterlimit="3.25" d="M 204.25 129.394531 C 204.25 149.191406 196.382812 168.179688 182.386719 182.179688 C 168.386719 196.175781 149.398438 204.042969 129.601562 204.042969 C 109.800781 204.042969 90.8125 196.175781 76.816406 182.179688 C 62.816406 168.179688 54.949219 149.191406 54.949219 129.394531 C 54.949219 109.59375 62.816406 90.605469 76.816406 76.605469 C 90.8125 62.609375 109.800781 54.742188 129.601562 54.742188 C 149.398438 54.742188 168.386719 62.609375 182.386719 76.605469 C 196.382812 90.605469 204.25 109.59375 204.25 129.394531 Z M 204.25 129.394531 "/>
<path fill="none" stroke-width="0.36" stroke-linecap="square" stroke-linejoin="miter" stroke="rgb(0%, 0%, 0%)" stroke-opacity="1" stroke-miterlimit="3.25" d="M 210.46875 129.394531 C 210.46875 150.839844 201.949219 171.410156 186.785156 186.578125 C 171.617188 201.742188 151.046875 210.261719 129.601562 210.261719 C 108.152344 210.261719 87.582031 201.742188 72.414062 186.578125 C 57.25 171.410156 48.730469 150.839844 48.730469 129.394531 C 48.730469 107.945312 57.25 87.375 72.414062 72.207031 C 87.582031 57.042969 108.152344 48.523438 129.601562 48.523438 C 151.046875 48.523438 171.617188 57.042969 186.785156 72.207031 C 201.949219 87.375 210.46875 107.945312 210.46875 129.394531 Z M 210.46875 129.394531 "/>
<path fill="none" stroke-width="0.36" stroke-linecap="square" stroke-linejoin="miter" stroke="rgb(0%, 0%, 0%)" stroke-opacity="1" stroke-miterlimit="3.25" d="M 216.691406 129.394531 C 216.691406 152.492188 207.515625 174.644531 191.183594 190.976562 C 174.851562 207.308594 152.699219 216.484375 129.601562 216.484375 C 106.503906 216.484375 84.351562 207.308594 68.015625 190.976562 C 51.683594 174.644531 42.507812 152.492188 42.507812 129.394531 C 42.507812 106.292969 51.683594 84.144531 68.015625 67.808594 C 84.351562 51.476562 106.503906 42.300781 129.601562 42.300781 C 152.699219 42.300781 174.851562 51.476562 191.183594 67.808594 C 207.515625 84.144531 216.691406 106.292969 216.691406 129.394531 Z M 216.691406 129.394531 "/>
<path fill="none" stroke-width="0.36" stroke-linecap="square" stroke-linejoin="miter" stroke="rgb(0%, 0%, 0%)" stroke-opacity="1" stroke-miterlimit="3.25" d="M 222.910156 129.394531 C 222.910156 154.140625 213.082031 177.875 195.582031 195.375 C 178.082031 212.875 154.347656 222.703125 129.601562 222.703125 C 104.851562 222.703125 81.117188 212.875 63.617188 195.375 C 46.117188 177.875 36.289062 154.140625 36.289062 129.394531 C 36.289062 104.644531 46.117188 80.910156 63.617188 63.410156 C 81.117188 45.910156 104.851562 36.082031 129.601562 36.082031 C 154.347656 36.082031 178.082031 45.910156 195.582031 63.410156 C 213.082031 80.910156 222.910156 104.644531 222.910156 129.394531 Z M 222.910156 129.394531 "/>
<path fill="none" stroke-width="0.36" stroke-linecap="square" stroke-linejoin="miter" stroke="rgb(0%, 0%, 0%)" stroke-opacity="1" stroke-miterlimit="3.25" d="M 229.132812 129.394531 C 229.132812 155.789062 218.644531 181.105469 199.980469 199.773438 C 181.3125 218.4375 155.996094 228.925781 129.601562 228.925781 C 103.203125 228.925781 77.886719 218.4375 59.21875 199.773438 C 40.554688 181.105469 30.066406 155.789062 30.066406 129.394531 C 30.066406 102.996094 40.554688 77.679688 59.21875 59.011719 C 77.886719 40.347656 103.203125 29.859375 129.601562 29.859375 C 155.996094 29.859375 181.3125 40.347656 199.980469 59.011719 C 218.644531 77.679688 229.132812 102.996094 229.132812 129.394531 Z M 229.132812 129.394531 "/>
<path fill="none" stroke-width="0.36" stroke-linecap="square" stroke-linejoin="miter" stroke="rgb(0%, 0%, 0%)" stroke-opacity="1" stroke-miterlimit="3.25" d="M 235.355469 129.394531 C 235.355469 157.441406 224.210938 184.339844 204.378906 204.171875 C 184.546875 224.003906 157.648438 235.144531 129.601562 235.144531 C 101.550781 235.144531 74.652344 224.003906 54.820312 204.171875 C 34.988281 184.339844 23.847656 157.441406 23.847656 129.394531 C 23.847656 101.34375 34.988281 74.445312 54.820312 54.613281 C 74.652344 34.78125 101.550781 23.640625 129.601562 23.640625 C 157.648438 23.640625 184.546875 34.78125 204.378906 54.613281 C 224.210938 74.445312 235.355469 101.34375 235.355469 129.394531 Z M 235.355469 129.394531 "/>
<path fill="none" stroke-width="0.36" stroke-linecap="square" stroke-linejoin="miter" stroke="rgb(0%, 0%, 0%)" stroke-opacity="1" stroke-miterlimit="3.25" d="M 241.574219 129.394531 C 241.574219 159.089844 229.777344 187.570312 208.777344 208.570312 C 187.777344 229.570312 159.296875 241.367188 129.601562 241.367188 C 99.902344 241.367188 71.421875 229.570312 50.421875 208.570312 C 29.421875 187.570312 17.625 159.089844 17.625 129.394531 C 17.625 99.695312 29.421875 71.214844 50.421875 50.214844 C 71.421875 29.214844 99.902344 17.417969 129.601562 17.417969 C 159.296875 17.417969 187.777344 29.214844 208.777344 50.214844 C 229.777344 71.214844 241.574219 99.695312 241.574219 129.394531 Z M 241.574219 129.394531 "/>
<path fill="none" stroke-width="0.36" stroke-linecap="square" stroke-linejoin="miter" stroke="rgb(0%, 0%, 0%)" stroke-opacity="1" stroke-miterlimit="3.25" d="M 247.796875 129.394531 C 247.796875 160.738281 235.34375 190.804688 213.175781 212.96875 C 191.011719 235.136719 160.949219 247.585938 129.601562 247.585938 C 98.253906 247.585938 68.1875 235.136719 46.023438 212.96875 C 23.859375 190.804688 11.40625 160.738281 11.40625 129.394531 C 11.40625 98.046875 23.859375 67.980469 46.023438 45.816406 C 68.1875 23.648438 98.253906 11.199219 129.601562 11.199219 C 160.949219 11.199219 191.011719 23.648438 213.175781 45.816406 C 235.34375 67.980469 247.796875 98.046875 247.796875 129.394531 Z M 247.796875 129.394531 "/>
<path fill="none" stroke-width="0.36" stroke-linecap="square" stroke-linejoin="miter" stroke="rgb(0%, 0%, 0%)" stroke-opacity="1" stroke-miterlimit="3.25" d="M 254.015625 129.394531 C 254.015625 162.390625 240.90625 194.035156 217.574219 217.367188 C 194.242188 240.699219 162.597656 253.808594 129.601562 253.808594 C 96.601562 253.808594 64.957031 240.699219 41.625 217.367188 C 18.292969 194.035156 5.183594 162.390625 5.183594 129.394531 C 5.183594 96.394531 18.292969 64.75 41.625 41.417969 C 64.957031 18.085938 96.601562 4.976562 129.601562 4.976562 C 162.597656 4.976562 194.242188 18.085938 217.574219 41.417969 C 240.90625 64.75 254.015625 96.394531 254.015625 129.394531 Z M 254.015625 129.394531 "/>
</svg>
