<?xml version="1.0" encoding="UTF-8"?>
<svg xmlns="http://www.w3.org/2000/svg" xmlns:xlink="http://www.w3.org/1999/xlink" width="260pt" height="142pt" viewBox="0 0 260 142">
<defs>
<clipPath id="clip-0">
<path clip-rule="nonzero" d="M 0 123 L 259.199219 123 L 259.199219 125 L 0 125 Z M 0 123 "/>
</clipPath>
</defs>
<path fill="none" stroke-width="1.44" stroke-linecap="square" stroke-linejoin="miter" stroke="rgb(0.518799%, 9.823608%, 34.983826%)" stroke-opacity="1" stroke-miterlimit="3.25" d="M 13.121094 7.601562 L 13.550781 7.890625 L 13.976562 8.175781 L 14.828125 8.742188 L 16.519531 9.878906 L 19.847656 12.132812 L 26.308594 16.570312 L 39.4375 25.882812 L 50.644531 34.199219 L 60.691406 41.996094 L 70.582031 50.050781 L 78.914062 57.195312 L 87.015625 64.527344 L 94.082031 71.3125 L 99.925781 77.273438 L 105.496094 83.332031 L 110.023438 88.609375 L 113.875 93.425781 L 117.441406 98.257812 L 120.238281 102.390625 L 122.75 106.464844 L 124.730469 110.050781 L 126.195312 113.03125 L 127.414062 115.859375 L 127.429688 115.898438 L 127.445312 115.933594 L 127.476562 116.011719 L 127.535156 116.160156 L 127.648438 116.457031 L 127.867188 117.035156 L 128.253906 118.121094 L 128.300781 118.261719 L 128.34375 118.402344 L 128.433594 118.671875 L 128.601562 119.195312 L 128.882812 120.164062 L 128.890625 120.191406 L 128.898438 120.222656 L 128.914062 120.277344 L 128.941406 120.386719 L 129 120.601562 L 129.101562 121.011719 L 129.109375 121.035156 L 129.113281 121.0625 L 129.125 121.109375 L 129.148438 121.207031 L 129.191406 121.394531 L 129.269531 121.753906 L 129.277344 121.773438 L 129.28125 121.792969 L 129.289062 121.835938 L 129.304688 121.914062 L 129.335938 122.066406 L 129.390625 122.355469 L 129.394531 122.371094 L 129.394531 122.390625 L 129.402344 122.425781 L 129.414062 122.492188 L 129.4375 122.621094 L 129.476562 122.867188 L 129.476562 122.882812 L 129.480469 122.898438 L 129.484375 122.929688 L 129.496094 122.988281 L 129.511719 123.105469 L 129.511719 123.121094 L 129.515625 123.132812 L 129.519531 123.164062 L 129.527344 123.214844 L 129.539062 123.320312 L 129.539062 123.332031 L 129.542969 123.34375 L 129.542969 123.367188 L 129.550781 123.417969 L 129.558594 123.507812 L 129.574219 123.667969 L 129.574219 123.675781 L 129.578125 123.683594 L 129.578125 123.703125 L 129.582031 123.734375 L 129.585938 123.792969 L 129.585938 123.820312 L 129.589844 123.847656 L 129.59375 123.898438 L 129.59375 123.949219 L 129.597656 123.960938 L 129.597656 124.054688 L 129.601562 124.058594 L 129.601562 124.082031 L 129.601562 123.96875 L 129.605469 123.960938 L 129.605469 123.941406 L 129.609375 123.894531 L 129.609375 123.839844 L 129.613281 123.78125 L 129.617188 123.773438 L 129.617188 123.75 L 129.621094 123.71875 L 129.625 123.644531 L 129.628906 123.636719 L 129.628906 123.609375 L 129.640625 123.492188 L 129.644531 123.484375 L 129.644531 123.453125 L 129.652344 123.410156 L 129.660156 123.320312 L 129.664062 123.308594 L 129.664062 123.296875 L 129.667969 123.273438 L 129.671875 123.222656 L 129.6875 123.121094 L 129.71875 122.902344 L 129.722656 122.886719 L 129.722656 122.871094 L 129.726562 122.839844 L 129.761719 122.640625 L 129.8125 122.347656 L 129.816406 122.328125 L 129.820312 122.3125 L 129.824219 122.273438 L 129.839844 122.195312 L 129.871094 122.03125 L 129.941406 121.6875 L 129.949219 121.667969 L 129.953125 121.644531 L 129.960938 121.601562 L 129.980469 121.511719 L 130.023438 121.328125 L 130.117188 120.9375 L 130.339844 120.085938 L 130.371094 119.976562 L 130.402344 119.871094 L 130.464844 119.652344 L 130.601562 119.195312 L 130.914062 118.21875 L 130.960938 118.078125 L 131.011719 117.9375 L 131.109375 117.652344 L 131.324219 117.058594 L 131.8125 115.792969 L 132.949219 113.152344 L 134.386719 110.207031 L 136.363281 106.617188 L 138.636719 102.890625 L 141.625 98.449219 L 144.949219 93.921875 L 148.753906 89.121094 L 153.539062 83.515625 L 158.671875 77.910156 L 165.007812 71.421875 L 172.0625 64.640625 L 179.4375 57.941406 L 188.351562 50.277344 L 197.574219 42.742188 L 207.507812 34.996094 L 219.332031 26.199219 L 231.390625 17.613281 L 231.609375 17.460938 L 231.832031 17.308594 L 232.269531 17 L 233.15625 16.386719 L 234.941406 15.152344 L 238.570312 12.664062 L 239.03125 12.351562 L 239.488281 12.039062 L 240.414062 11.410156 L 242.28125 10.148438 L 242.515625 9.988281 L 242.753906 9.832031 L 243.222656 9.515625 L 244.167969 8.878906 L 244.40625 8.71875 L 244.644531 8.5625 L 245.597656 7.921875 L 245.839844 7.761719 L 246.078125 7.601562 "/>
<path fill="none" stroke-width="0.36" stroke-linecap="butt" stroke-linejoin="miter" stroke="rgb(0%, 0%, 0%)" stroke-opacity="1" stroke-miterlimit="3.25" d="M 13.121094 124.082031 L 13.121094 121.335938 "/>
<path fill-rule="evenodd" fill="rgb(0%, 0%, 0%)" fill-opacity="1" d="M 7.316406 133.351562 L 13.195312 133.351562 L 13.195312 133.996094 L 7.316406 133.996094 Z M 7.316406 133.351562 "/>
<path fill-rule="evenodd" fill="rgb(0%, 0%, 0%)" fill-opacity="1" d="M 18.402344 136.625 L 18.402344 136.453125 C 17.496094 136.441406 17.3125 136.324219 17.3125 135.773438 L 17.3125 128.886719 L 17.21875 128.863281 L 15.152344 129.90625 L 15.152344 130.066406 C 15.289062 130.011719 15.417969 129.964844 15.460938 129.941406 C 15.667969 129.863281 15.863281 129.816406 15.980469 129.816406 C 16.21875 129.816406 16.324219 129.988281 16.324219 130.355469 L 16.324219 135.554688 C 16.324219 135.9375 16.230469 136.199219 16.046875 136.300781 C 15.875 136.40625 15.714844 136.441406 15.234375 136.453125 L 15.234375 136.625 Z M 18.402344 136.625 "/>
<path fill="none" stroke-width="0.36" stroke-linecap="butt" stroke-linejoin="miter" stroke="rgb(0%, 0%, 0%)" stroke-opacity="1" stroke-miterlimit="3.25" d="M 129.601562 124.082031 L 129.601562 121.335938 "/>
<path fill="none" stroke-width="0.36" stroke-linecap="butt" stroke-linejoin="miter" stroke="rgb(0%, 0%, 0%)" stroke-opacity="1" stroke-miterlimit="3.25" d="M 246.078125 124.082031 L 246.078125 121.335938 "/>
<path fill-rule="evenodd" fill="rgb(0%, 0%, 0%)" fill-opacity="1" d="M 247.734375 136.625 L 247.734375 136.453125 C 246.828125 136.441406 246.644531 136.324219 246.644531 135.773438 L 246.644531 128.886719 L 246.554688 128.863281 L 244.488281 129.90625 L 244.488281 130.066406 C 244.625 130.011719 244.75 129.964844 244.796875 129.941406 C 245.003906 129.863281 245.199219 129.816406 245.3125 129.816406 C 245.554688 129.816406 245.65625 129.988281 245.65625 130.355469 L 245.65625 135.554688 C 245.65625 135.9375 245.566406 136.199219 245.382812 136.300781 C 245.210938 136.40625 245.050781 136.441406 244.566406 136.453125 L 244.566406 136.625 Z M 247.734375 136.625 "/>
<g clip-path="url(#clip-0)">
<path fill="none" stroke-width="0.36" stroke-linecap="butt" stroke-linejoin="miter" stroke="rgb(0%, 0%, 0%)" stroke-opacity="1" stroke-miterlimit="3.25" d="M 0.179688 124.082031 L 259.019531 124.082031 "/>
</g>
<path fill="none" stroke-width="0.36" stroke-linecap="butt" stroke-linejoin="miter" stroke="rgb(0%, 0%, 0%)" stroke-opacity="1" stroke-miterlimit="3.25" d="M 129.601562 124.082031 L 132.34375 124.082031 "/>
<path fill="none" stroke-width="0.36" stroke-linecap="butt" stroke-linejoin="miter" stroke="rgb(0%, 0%, 0%)" stroke-opacity="1" stroke-miterlimit="3.25" d="M 129.601562 7.601562 L 132.34375 7.601562 "/>
<path fill-rule="evenodd" fill="rgb(0%, 0%, 0%)" fill-opacity="1" d="M 125.511719 10.382812 L 125.511719 10.210938 C 124.605469 10.199219 124.421875 10.085938 124.421875 9.535156 L 124.421875 2.644531 L 124.328125 2.621094 L 122.261719 3.667969 L 122.261719 3.824219 C 122.402344 3.769531 122.527344 3.722656 122.574219 3.699219 C 122.78125 3.621094 122.976562 3.574219 123.089844 3.574219 C 123.332031 3.574219 123.433594 3.746094 123.433594 4.113281 L 123.433594 9.316406 C 123.433594 9.695312 123.34375 9.957031 123.160156 10.0625 C 122.988281 10.164062 122.824219 10.199219 122.34375 10.210938 L 122.34375 10.382812 Z M 125.511719 10.382812 "/>
<path fill="none" stroke-width="0.36" stroke-linecap="butt" stroke-linejoin="miter" stroke="rgb(0%, 0%, 0%)" stroke-opacity="1" stroke-miterlimit="3.25" d="M 129.601562 130.550781 L 129.601562 1.132812 "/>
</svg>
