<?xml version="1.0" encoding="UTF-8"?>
<svg xmlns="http://www.w3.org/2000/svg" xmlns:xlink="http://www.w3.org/1999/xlink" width="260pt" height="144pt" viewBox="0 0 260 144">
<defs>
<clipPath id="clip-0">
<path clip-rule="nonzero" d="M 2 53 L 259.199219 53 L 259.199219 54 L 2 54 Z M 2 53 "/>
</clipPath>
</defs>
<path fill="none" stroke-width="1.44" stroke-linecap="square" stroke-linejoin="miter" stroke="rgb(0.518799%, 9.823608%, 34.983826%)" stroke-opacity="1" stroke-miterlimit="3.25" d="M 14.945312 7.316406 L 15.410156 7.472656 L 15.871094 7.632812 L 16.796875 7.945312 L 18.640625 8.574219 L 22.289062 9.824219 L 29.453125 12.308594 L 43.230469 17.203125 L 70.679688 27.476562 L 93.414062 36.648438 L 113.105469 45.246094 L 131.695312 54.132812 L 146.5625 62.011719 L 160.117188 70.097656 L 170.972656 77.582031 L 171.117188 77.6875 L 171.257812 77.792969 L 172.089844 78.425781 L 173.171875 79.261719 L 175.25 80.917969 L 179.039062 84.152344 L 179.28125 84.371094 L 179.515625 84.585938 L 179.988281 85.015625 L 180.898438 85.867188 L 182.621094 87.550781 L 182.726562 87.65625 L 182.828125 87.761719 L 183.03125 87.96875 L 183.433594 88.382812 L 184.214844 89.207031 L 185.675781 90.835938 L 185.753906 90.929688 L 185.835938 91.023438 L 185.996094 91.210938 L 186.3125 91.585938 L 186.921875 92.328125 L 188.058594 93.796875 L 188.125 93.886719 L 188.195312 93.976562 L 188.328125 94.160156 L 188.585938 94.519531 L 189.089844 95.238281 L 190.011719 96.65625 L 190.0625 96.742188 L 190.117188 96.828125 L 190.222656 97 L 190.425781 97.339844 L 190.816406 98.019531 L 190.863281 98.105469 L 190.910156 98.1875 L 191.179688 98.691406 L 191.519531 99.359375 L 191.5625 99.445312 L 191.679688 99.691406 L 191.835938 100.023438 L 192.128906 100.675781 L 192.199219 100.839844 L 192.265625 101.003906 L 192.398438 101.324219 L 192.640625 101.96875 L 192.703125 102.140625 L 192.765625 102.316406 L 192.882812 102.660156 L 192.992188 103.003906 L 193.09375 103.34375 L 193.117188 103.429688 L 193.140625 103.511719 L 193.1875 103.683594 L 193.277344 104.019531 L 193.4375 104.691406 L 193.457031 104.773438 L 193.472656 104.855469 L 193.507812 105.023438 L 193.585938 105.433594 L 193.597656 105.515625 L 193.625 105.679688 L 193.675781 106.007812 L 193.6875 106.089844 L 193.699219 106.167969 L 193.71875 106.332031 L 193.730469 106.414062 L 193.738281 106.492188 L 193.757812 106.65625 L 193.765625 106.734375 L 193.773438 106.816406 L 193.789062 106.976562 L 193.792969 107.054688 L 193.800781 107.136719 L 193.8125 107.296875 L 193.835938 107.742188 L 193.839844 107.8125 L 193.839844 107.886719 L 193.84375 107.960938 L 193.84375 108.035156 L 193.847656 108.109375 L 193.847656 108.617188 L 193.84375 108.691406 L 193.84375 108.761719 L 193.839844 108.835938 L 193.839844 108.90625 L 193.835938 108.980469 L 193.832031 109.050781 L 193.832031 109.125 L 193.828125 109.195312 L 193.824219 109.269531 L 193.816406 109.339844 L 193.8125 109.410156 L 193.808594 109.484375 L 193.796875 109.625 L 193.792969 109.695312 L 193.785156 109.765625 L 193.773438 109.910156 L 193.734375 110.261719 L 193.722656 110.332031 L 193.664062 110.753906 L 193.652344 110.820312 L 193.617188 111.03125 L 193.566406 111.308594 L 193.550781 111.375 L 193.539062 111.445312 L 193.507812 111.582031 L 193.449219 111.855469 L 193.410156 112.003906 L 193.375 112.148438 L 193.296875 112.441406 L 193.277344 112.515625 L 193.253906 112.589844 L 193.210938 112.734375 L 193.121094 113.023438 L 193.074219 113.164062 L 193.027344 113.308594 L 192.925781 113.59375 L 192.703125 114.160156 L 192.675781 114.230469 L 192.644531 114.300781 L 192.585938 114.441406 L 192.460938 114.71875 L 192.199219 115.269531 L 192.164062 115.335938 L 192.128906 115.40625 L 192.058594 115.542969 L 191.910156 115.8125 L 191.601562 116.347656 L 191.523438 116.480469 L 191.445312 116.609375 L 191.28125 116.867188 L 190.9375 117.378906 L 190.890625 117.441406 L 190.847656 117.507812 L 190.757812 117.632812 L 190.574219 117.882812 L 190.191406 118.382812 L 190.140625 118.445312 L 190.09375 118.507812 L 189.992188 118.628906 L 189.789062 118.875 L 189.367188 119.359375 L 188.46875 120.304688 L 188.359375 120.414062 L 188.246094 120.519531 L 188.023438 120.738281 L 187.5625 121.164062 L 186.597656 121.996094 L 186.472656 122.097656 L 186.34375 122.199219 L 186.089844 122.402344 L 185.570312 122.804688 L 184.484375 123.589844 L 184.410156 123.640625 L 184.332031 123.695312 L 184.179688 123.796875 L 183.871094 124.003906 L 183.242188 124.414062 L 181.9375 125.207031 L 181.855469 125.253906 L 181.769531 125.304688 L 181.601562 125.402344 L 181.261719 125.59375 L 180.570312 125.972656 L 179.144531 126.710938 L 179.0625 126.75 L 178.976562 126.792969 L 178.804688 126.875 L 178.460938 127.042969 L 177.761719 127.371094 L 176.332031 128.007812 L 176.242188 128.046875 L 176.148438 128.085938 L 175.964844 128.164062 L 175.597656 128.316406 L 174.855469 128.621094 L 173.332031 129.207031 L 173.121094 129.285156 L 172.914062 129.359375 L 172.488281 129.511719 L 171.636719 129.8125 L 169.890625 130.390625 L 169.78125 130.425781 L 169.667969 130.460938 L 169.449219 130.53125 L 169 130.667969 L 168.101562 130.9375 L 166.269531 131.457031 L 166.15625 131.488281 L 166.039062 131.519531 L 165.8125 131.582031 L 165.355469 131.703125 L 164.429688 131.9375 L 162.554688 132.390625 L 162.4375 132.417969 L 162.316406 132.445312 L 162.082031 132.5 L 161.605469 132.605469 L 160.644531 132.816406 L 158.703125 133.210938 L 158.589844 133.234375 L 158.472656 133.257812 L 158.246094 133.300781 L 157.785156 133.386719 L 156.863281 133.554688 L 155 133.875 L 154.765625 133.914062 L 154.53125 133.949219 L 154.058594 134.023438 L 153.113281 134.167969 L 151.207031 134.4375 L 151.078125 134.457031 L 150.945312 134.472656 L 150.6875 134.507812 L 150.164062 134.574219 L 149.117188 134.703125 L 148.988281 134.71875 L 148.855469 134.734375 L 148.59375 134.765625 L 148.066406 134.824219 L 147.011719 134.9375 L 146.878906 134.953125 L 146.746094 134.964844 L 146.480469 134.992188 L 145.949219 135.042969 L 144.882812 135.144531 L 144.351562 135.191406 L 143.816406 135.238281 L 142.742188 135.320312 L 142.617188 135.332031 L 142.492188 135.339844 L 142.242188 135.359375 L 141.738281 135.394531 L 140.730469 135.460938 L 140.480469 135.476562 L 140.226562 135.492188 L 139.722656 135.519531 L 138.710938 135.574219 L 138.585938 135.582031 L 138.457031 135.585938 L 138.203125 135.597656 L 137.699219 135.621094 L 137.570312 135.628906 L 137.445312 135.632812 L 137.191406 135.644531 L 136.683594 135.664062 L 136.554688 135.667969 L 136.429688 135.671875 L 136.175781 135.683594 L 135.667969 135.699219 L 135.539062 135.703125 L 135.414062 135.707031 L 135.15625 135.714844 L 134.648438 135.726562 L 134.398438 135.734375 L 134.148438 135.738281 L 134.023438 135.742188 L 133.898438 135.742188 L 133.652344 135.75 L 133.527344 135.75 L 133.402344 135.753906 L 133.152344 135.757812 L 133.027344 135.757812 L 132.902344 135.761719 L 132.652344 135.765625 L 132.402344 135.765625 L 132.277344 135.769531 L 132.027344 135.769531 L 131.902344 135.773438 L 131.527344 135.773438 L 131.402344 135.777344 L 129.777344 135.777344 L 129.652344 135.773438 L 129.152344 135.773438 L 129.027344 135.769531 L 128.902344 135.769531 L 128.652344 135.765625 L 128.402344 135.765625 L 128.152344 135.761719 L 128.027344 135.757812 L 127.902344 135.757812 L 127.652344 135.753906 L 127.402344 135.746094 L 127.152344 135.742188 L 126.65625 135.730469 L 126.519531 135.726562 L 126.382812 135.726562 L 125.574219 135.703125 L 125.300781 135.695312 L 125.03125 135.683594 L 124.492188 135.664062 L 124.355469 135.660156 L 124.222656 135.65625 L 123.414062 135.621094 L 122.335938 135.570312 L 122.199219 135.5625 L 122.066406 135.558594 L 121.257812 135.511719 L 120.1875 135.449219 L 120.050781 135.4375 L 119.652344 135.414062 L 119.117188 135.375 L 118.050781 135.296875 L 117.925781 135.285156 L 117.800781 135.277344 L 117.550781 135.257812 L 117.054688 135.214844 L 116.066406 135.128906 L 115.941406 135.117188 L 115.820312 135.105469 L 115.574219 135.082031 L 115.078125 135.035156 L 114.097656 134.9375 L 113.972656 134.921875 L 113.851562 134.910156 L 113.605469 134.882812 L 113.117188 134.832031 L 112.140625 134.71875 L 110.203125 134.476562 L 110.074219 134.460938 L 109.945312 134.441406 L 109.683594 134.40625 L 109.164062 134.335938 L 108.125 134.1875 L 106.070312 133.867188 L 105.945312 133.847656 L 105.816406 133.824219 L 105.054688 133.695312 L 104.042969 133.519531 L 102.046875 133.140625 L 101.925781 133.113281 L 101.5625 133.042969 L 101.078125 132.941406 L 100.117188 132.738281 L 98.21875 132.3125 L 98.097656 132.285156 L 97.980469 132.253906 L 97.746094 132.199219 L 97.28125 132.085938 L 96.351562 131.855469 L 94.527344 131.371094 L 94.421875 131.339844 L 94.316406 131.3125 L 94.105469 131.253906 L 93.6875 131.132812 L 92.859375 130.890625 L 91.226562 130.390625 L 91.125 130.359375 L 91.023438 130.324219 L 90.824219 130.261719 L 90.421875 130.128906 L 89.628906 129.863281 L 88.074219 129.3125 L 87.96875 129.273438 L 87.867188 129.234375 L 87.660156 129.160156 L 87.25 129.003906 L 86.433594 128.6875 L 84.84375 128.03125 L 84.746094 127.992188 L 84.648438 127.949219 L 84.457031 127.863281 L 84.070312 127.695312 L 83.308594 127.351562 L 81.828125 126.636719 L 81.742188 126.59375 L 81.660156 126.550781 L 81.492188 126.46875 L 81.15625 126.296875 L 80.5 125.945312 L 79.21875 125.230469 L 79.140625 125.183594 L 79.066406 125.140625 L 78.910156 125.046875 L 78.601562 124.863281 L 77.996094 124.488281 L 76.828125 123.722656 L 76.757812 123.675781 L 76.691406 123.628906 L 76.550781 123.53125 L 76.277344 123.339844 L 75.738281 122.949219 L 74.707031 122.148438 L 74.582031 122.046875 L 74.460938 121.945312 L 74.214844 121.738281 L 73.734375 121.324219 L 72.824219 120.476562 L 72.355469 120.007812 L 71.90625 119.527344 L 71.796875 119.410156 L 71.6875 119.289062 L 71.476562 119.042969 L 71.0625 118.554688 L 71.015625 118.492188 L 70.964844 118.429688 L 70.671875 118.054688 L 70.300781 117.546875 L 69.617188 116.515625 L 69.578125 116.453125 L 69.542969 116.394531 L 69.46875 116.269531 L 69.324219 116.023438 L 69.050781 115.527344 L 68.988281 115.402344 L 68.921875 115.273438 L 68.796875 115.023438 L 68.5625 114.511719 L 68.535156 114.449219 L 68.507812 114.382812 L 68.453125 114.253906 L 68.347656 113.996094 L 68.292969 113.863281 L 68.246094 113.734375 L 68.148438 113.472656 L 68.101562 113.339844 L 68.058594 113.207031 L 67.96875 112.945312 L 67.8125 112.410156 L 67.773438 112.261719 L 67.734375 112.117188 L 67.664062 111.820312 L 67.644531 111.746094 L 67.628906 111.675781 L 67.597656 111.527344 L 67.535156 111.226562 L 67.523438 111.152344 L 67.507812 111.078125 L 67.484375 110.925781 L 67.46875 110.851562 L 67.457031 110.777344 L 67.433594 110.625 L 67.421875 110.550781 L 67.414062 110.472656 L 67.394531 110.324219 L 67.382812 110.246094 L 67.375 110.171875 L 67.355469 110.015625 L 67.347656 109.941406 L 67.339844 109.863281 L 67.335938 109.785156 L 67.328125 109.710938 L 67.320312 109.632812 L 67.316406 109.554688 L 67.304688 109.402344 L 67.296875 109.324219 L 67.28125 109.011719 L 67.28125 108.933594 L 67.273438 108.777344 L 67.273438 108.621094 L 67.269531 108.542969 L 67.269531 108.148438 L 67.273438 108.066406 L 67.273438 107.988281 L 67.277344 107.910156 L 67.277344 107.828125 L 67.28125 107.75 L 67.285156 107.667969 L 67.289062 107.589844 L 67.292969 107.507812 L 67.300781 107.359375 L 67.308594 107.285156 L 67.3125 107.207031 L 67.316406 107.132812 L 67.324219 107.058594 L 67.335938 106.90625 L 67.34375 106.832031 L 67.351562 106.753906 L 67.367188 106.601562 L 67.402344 106.296875 L 67.414062 106.222656 L 67.421875 106.144531 L 67.445312 105.992188 L 67.492188 105.683594 L 67.515625 105.527344 L 67.542969 105.375 L 67.601562 105.0625 L 67.632812 104.90625 L 67.667969 104.75 L 67.738281 104.433594 L 67.777344 104.277344 L 67.8125 104.117188 L 67.898438 103.800781 L 67.917969 103.71875 L 67.941406 103.640625 L 67.984375 103.480469 L 68.078125 103.160156 L 68.285156 102.511719 L 68.339844 102.355469 L 68.394531 102.195312 L 68.511719 101.875 L 68.761719 101.226562 L 68.792969 101.144531 L 68.828125 101.0625 L 68.894531 100.902344 L 69.035156 100.574219 L 69.332031 99.914062 L 69.488281 99.585938 L 69.652344 99.25 L 69.996094 98.582031 L 70.761719 97.222656 L 70.820312 97.128906 L 70.875 97.035156 L 70.988281 96.847656 L 71.21875 96.472656 L 71.707031 95.71875 L 72.769531 94.1875 L 72.910156 93.992188 L 73.054688 93.800781 L 73.347656 93.410156 L 73.957031 92.628906 L 75.269531 91.039062 L 75.347656 90.945312 L 75.921875 90.289062 L 76.605469 89.53125 L 78.058594 87.996094 L 81.304688 84.855469 L 81.421875 84.746094 L 81.542969 84.636719 L 81.78125 84.421875 L 82.265625 83.984375 L 83.261719 83.109375 L 85.355469 81.335938 L 89.984375 77.699219 L 90.132812 77.585938 L 90.589844 77.246094 L 91.207031 76.789062 L 92.46875 75.875 L 95.101562 74.015625 L 100.808594 70.21875 L 113.09375 62.835938 L 128.933594 54.378906 L 146.214844 46.070312 L 165.617188 37.527344 L 189.546875 27.824219 L 214.710938 18.355469 L 215.171875 18.1875 L 215.636719 18.019531 L 216.570312 17.679688 L 218.445312 17.003906 L 222.234375 15.640625 L 229.988281 12.898438 L 230.972656 12.554688 L 231.960938 12.207031 L 233.949219 11.515625 L 237.964844 10.121094 L 238.472656 9.949219 L 238.980469 9.773438 L 239.996094 9.425781 L 242.039062 8.722656 L 244.617188 7.84375 L 245.136719 7.667969 L 245.652344 7.492188 L 246.175781 7.316406 "/>
<path fill="none" stroke-width="0.36" stroke-linecap="butt" stroke-linejoin="miter" stroke="rgb(0%, 0%, 0%)" stroke-opacity="1" stroke-miterlimit="3.25" d="M 7.234375 53.5625 L 7.234375 50.691406 "/>
<path fill-rule="evenodd" fill="rgb(0%, 0%, 0%)" fill-opacity="1" d="M 1.433594 62.832031 L 7.308594 62.832031 L 7.308594 63.476562 L 1.433594 63.476562 Z M 1.433594 62.832031 "/>
<path fill-rule="evenodd" fill="rgb(0%, 0%, 0%)" fill-opacity="1" d="M 13.367188 63.589844 C 13.367188 62.121094 12.527344 61.191406 11.207031 61.191406 C 10.703125 61.191406 10.460938 61.269531 9.738281 61.707031 C 10.046875 59.972656 11.332031 58.734375 13.136719 58.433594 L 13.113281 58.25 C 11.804688 58.367188 11.136719 58.585938 10.300781 59.171875 C 9.058594 60.054688 8.382812 61.363281 8.382812 62.902344 C 8.382812 63.898438 8.691406 64.910156 9.1875 65.484375 C 9.621094 65.992188 10.242188 66.265625 10.953125 66.265625 C 12.378906 66.265625 13.367188 65.175781 13.367188 63.589844 Z M 12.332031 63.980469 C 12.332031 65.246094 11.886719 65.945312 11.082031 65.945312 C 10.070312 65.945312 9.449219 64.867188 9.449219 63.085938 C 9.449219 62.5 9.542969 62.179688 9.773438 62.007812 C 10.011719 61.824219 10.371094 61.71875 10.769531 61.71875 C 11.757812 61.71875 12.332031 62.546875 12.332031 63.980469 Z M 12.332031 63.980469 "/>
<path fill="none" stroke-width="0.36" stroke-linecap="butt" stroke-linejoin="miter" stroke="rgb(0%, 0%, 0%)" stroke-opacity="1" stroke-miterlimit="3.25" d="M 48.34375 53.5625 L 48.34375 50.691406 "/>
<path fill-rule="evenodd" fill="rgb(0%, 0%, 0%)" fill-opacity="1" d="M 42.539062 62.832031 L 48.417969 62.832031 L 48.417969 63.476562 L 42.539062 63.476562 Z M 42.539062 62.832031 "/>
<path fill-rule="evenodd" fill="rgb(0%, 0%, 0%)" fill-opacity="1" d="M 54.519531 64.1875 L 54.519531 63.453125 L 53.347656 63.453125 L 53.347656 58.34375 L 52.84375 58.34375 L 49.238281 63.453125 L 49.238281 64.1875 L 52.464844 64.1875 L 52.464844 66.105469 L 53.347656 66.105469 L 53.347656 64.1875 Z M 52.453125 63.453125 L 49.695312 63.453125 L 52.453125 59.515625 Z M 52.453125 63.453125 "/>
<path fill="none" stroke-width="0.36" stroke-linecap="butt" stroke-linejoin="miter" stroke="rgb(0%, 0%, 0%)" stroke-opacity="1" stroke-miterlimit="3.25" d="M 89.453125 53.5625 L 89.453125 50.691406 "/>
<path fill-rule="evenodd" fill="rgb(0%, 0%, 0%)" fill-opacity="1" d="M 83.648438 62.832031 L 89.527344 62.832031 L 89.527344 63.476562 L 83.648438 63.476562 Z M 83.648438 62.832031 "/>
<path fill-rule="evenodd" fill="rgb(0%, 0%, 0%)" fill-opacity="1" d="M 95.660156 64.53125 L 95.511719 64.476562 C 95.085938 65.128906 94.9375 65.234375 94.421875 65.234375 L 91.675781 65.234375 L 93.605469 63.210938 C 94.628906 62.144531 95.074219 61.269531 95.074219 60.375 C 95.074219 59.226562 94.144531 58.34375 92.953125 58.34375 C 92.320312 58.34375 91.722656 58.597656 91.296875 59.054688 C 90.929688 59.445312 90.757812 59.8125 90.5625 60.628906 L 90.804688 60.6875 C 91.265625 59.5625 91.675781 59.191406 92.46875 59.191406 C 93.433594 59.191406 94.089844 59.847656 94.089844 60.8125 C 94.089844 61.707031 93.558594 62.773438 92.597656 63.796875 L 90.550781 65.96875 L 90.550781 66.105469 L 95.027344 66.105469 Z M 95.660156 64.53125 "/>
<path fill="none" stroke-width="0.36" stroke-linecap="butt" stroke-linejoin="miter" stroke="rgb(0%, 0%, 0%)" stroke-opacity="1" stroke-miterlimit="3.25" d="M 130.558594 53.5625 L 130.558594 50.691406 "/>
<path fill="none" stroke-width="0.36" stroke-linecap="butt" stroke-linejoin="miter" stroke="rgb(0%, 0%, 0%)" stroke-opacity="1" stroke-miterlimit="3.25" d="M 171.667969 53.5625 L 171.667969 50.691406 "/>
<path fill-rule="evenodd" fill="rgb(0%, 0%, 0%)" fill-opacity="1" d="M 174.253906 64.53125 L 174.105469 64.476562 C 173.679688 65.128906 173.53125 65.234375 173.015625 65.234375 L 170.269531 65.234375 L 172.199219 63.210938 C 173.222656 62.144531 173.667969 61.269531 173.667969 60.375 C 173.667969 59.226562 172.738281 58.34375 171.542969 58.34375 C 170.914062 58.34375 170.316406 58.597656 169.890625 59.054688 C 169.523438 59.445312 169.351562 59.8125 169.15625 60.628906 L 169.398438 60.6875 C 169.855469 59.5625 170.269531 59.191406 171.0625 59.191406 C 172.027344 59.191406 172.683594 59.847656 172.683594 60.8125 C 172.683594 61.707031 172.152344 62.777344 171.1875 63.796875 L 169.144531 65.96875 L 169.144531 66.105469 L 173.621094 66.105469 Z M 174.253906 64.53125 "/>
<path fill="none" stroke-width="0.36" stroke-linecap="butt" stroke-linejoin="miter" stroke="rgb(0%, 0%, 0%)" stroke-opacity="1" stroke-miterlimit="3.25" d="M 212.773438 53.5625 L 212.773438 50.691406 "/>
<path fill-rule="evenodd" fill="rgb(0%, 0%, 0%)" fill-opacity="1" d="M 215.328125 64.1875 L 215.328125 63.453125 L 214.15625 63.453125 L 214.15625 58.34375 L 213.652344 58.34375 L 210.046875 63.453125 L 210.046875 64.1875 L 213.273438 64.1875 L 213.273438 66.105469 L 214.15625 66.105469 L 214.15625 64.1875 Z M 213.261719 63.453125 L 210.503906 63.453125 L 213.261719 59.515625 Z M 213.261719 63.453125 "/>
<path fill="none" stroke-width="0.36" stroke-linecap="butt" stroke-linejoin="miter" stroke="rgb(0%, 0%, 0%)" stroke-opacity="1" stroke-miterlimit="3.25" d="M 253.882812 53.5625 L 253.882812 50.691406 "/>
<path fill-rule="evenodd" fill="rgb(0%, 0%, 0%)" fill-opacity="1" d="M 256.390625 63.589844 C 256.390625 62.121094 255.550781 61.191406 254.230469 61.191406 C 253.726562 61.191406 253.484375 61.269531 252.761719 61.707031 C 253.070312 59.972656 254.355469 58.734375 256.160156 58.433594 L 256.136719 58.25 C 254.828125 58.367188 254.160156 58.585938 253.324219 59.171875 C 252.082031 60.054688 251.40625 61.363281 251.40625 62.902344 C 251.40625 63.902344 251.714844 64.910156 252.210938 65.484375 C 252.644531 65.992188 253.265625 66.265625 253.976562 66.265625 C 255.402344 66.265625 256.390625 65.175781 256.390625 63.589844 Z M 255.355469 63.980469 C 255.355469 65.246094 254.910156 65.945312 254.105469 65.945312 C 253.09375 65.945312 252.472656 64.867188 252.472656 63.085938 C 252.472656 62.5 252.566406 62.179688 252.796875 62.007812 C 253.035156 61.824219 253.394531 61.71875 253.792969 61.71875 C 254.78125 61.71875 255.355469 62.546875 255.355469 63.980469 Z M 255.355469 63.980469 "/>
<g clip-path="url(#clip-0)">
<path fill="none" stroke-width="0.36" stroke-linecap="butt" stroke-linejoin="miter" stroke="rgb(0%, 0%, 0%)" stroke-opacity="1" stroke-miterlimit="3.25" d="M 2.097656 53.5625 L 259.019531 53.5625 "/>
</g>
<path fill="none" stroke-width="0.36" stroke-linecap="butt" stroke-linejoin="miter" stroke="rgb(0%, 0%, 0%)" stroke-opacity="1" stroke-miterlimit="3.25" d="M 130.558594 135.777344 L 133.429688 135.777344 "/>
<path fill-rule="evenodd" fill="rgb(0%, 0%, 0%)" fill-opacity="1" d="M 115.359375 135.285156 L 121.238281 135.285156 L 121.238281 135.929688 L 115.359375 135.929688 Z M 115.359375 135.285156 "/>
<path fill-rule="evenodd" fill="rgb(0%, 0%, 0%)" fill-opacity="1" d="M 127.339844 136.640625 L 127.339844 135.902344 L 126.167969 135.902344 L 126.167969 130.796875 L 125.660156 130.796875 L 122.054688 135.902344 L 122.054688 136.640625 L 125.28125 136.640625 L 125.28125 138.558594 L 126.167969 138.558594 L 126.167969 136.640625 Z M 125.269531 135.902344 L 122.515625 135.902344 L 125.269531 131.964844 Z M 125.269531 135.902344 "/>
<path fill="none" stroke-width="0.36" stroke-linecap="butt" stroke-linejoin="miter" stroke="rgb(0%, 0%, 0%)" stroke-opacity="1" stroke-miterlimit="3.25" d="M 130.558594 94.671875 L 133.429688 94.671875 "/>
<path fill-rule="evenodd" fill="rgb(0%, 0%, 0%)" fill-opacity="1" d="M 115.359375 94.175781 L 121.238281 94.175781 L 121.238281 94.820312 L 115.359375 94.820312 Z M 115.359375 94.175781 "/>
<path fill-rule="evenodd" fill="rgb(0%, 0%, 0%)" fill-opacity="1" d="M 127.371094 95.875 L 127.222656 95.820312 C 126.796875 96.472656 126.648438 96.578125 126.132812 96.578125 L 123.386719 96.578125 L 125.316406 94.554688 C 126.339844 93.488281 126.785156 92.617188 126.785156 91.71875 C 126.785156 90.570312 125.859375 89.6875 124.664062 89.6875 C 124.03125 89.6875 123.433594 89.941406 123.011719 90.398438 C 122.640625 90.789062 122.46875 91.15625 122.273438 91.972656 L 122.515625 92.03125 C 122.976562 90.90625 123.386719 90.539062 124.179688 90.539062 C 125.144531 90.539062 125.800781 91.191406 125.800781 92.15625 C 125.800781 93.050781 125.269531 94.121094 124.308594 95.140625 L 122.261719 97.3125 L 122.261719 97.449219 L 126.742188 97.449219 Z M 127.371094 95.875 "/>
<path fill="none" stroke-width="0.36" stroke-linecap="butt" stroke-linejoin="miter" stroke="rgb(0%, 0%, 0%)" stroke-opacity="1" stroke-miterlimit="3.25" d="M 130.558594 53.5625 L 133.429688 53.5625 "/>
<path fill="none" stroke-width="0.36" stroke-linecap="butt" stroke-linejoin="miter" stroke="rgb(0%, 0%, 0%)" stroke-opacity="1" stroke-miterlimit="3.25" d="M 130.558594 12.457031 L 133.429688 12.457031 "/>
<path fill-rule="evenodd" fill="rgb(0%, 0%, 0%)" fill-opacity="1" d="M 127.402344 13.660156 L 127.253906 13.605469 C 126.828125 14.257812 126.679688 14.363281 126.160156 14.363281 L 123.417969 14.363281 L 125.347656 12.339844 C 126.367188 11.273438 126.816406 10.398438 126.816406 9.503906 C 126.816406 8.355469 125.886719 7.472656 124.691406 7.472656 C 124.058594 7.472656 123.460938 7.726562 123.039062 8.183594 C 122.671875 8.574219 122.5 8.941406 122.304688 9.757812 L 122.542969 9.816406 C 123.003906 8.691406 123.417969 8.320312 124.210938 8.320312 C 125.175781 8.320312 125.828125 8.976562 125.828125 9.941406 C 125.828125 10.835938 125.300781 11.90625 124.335938 12.925781 L 122.292969 15.097656 L 122.292969 15.234375 L 126.769531 15.234375 Z M 127.402344 13.660156 "/>
<path fill="none" stroke-width="0.36" stroke-linecap="butt" stroke-linejoin="miter" stroke="rgb(0%, 0%, 0%)" stroke-opacity="1" stroke-miterlimit="3.25" d="M 130.558594 142.914062 L 130.558594 0.179688 "/>
</svg>
