<?xml version="1.0" encoding="UTF-8"?>
<svg xmlns="http://www.w3.org/2000/svg" xmlns:xlink="http://www.w3.org/1999/xlink" width="360pt" height="187pt" viewBox="0 0 360 187">
<path fill="none" stroke-width="1.8" stroke-linecap="square" stroke-linejoin="miter" stroke="rgb(0%, 0%, 0%)" stroke-opacity="1" stroke-miterlimit="3.25" d="M 7.199219 179.710938 L 352.800781 179.710938 "/>
<path fill="none" stroke-width="1.8" stroke-linecap="square" stroke-linejoin="miter" stroke="rgb(33.332825%, 33.332825%, 33.332825%)" stroke-opacity="1" stroke-miterlimit="3.25" d="M 266.398438 179.710938 L 266.398438 6.910156 "/>
<path fill="none" stroke-width="1.8" stroke-linecap="square" stroke-linejoin="miter" stroke="rgb(33.332825%, 33.332825%, 33.332825%)" stroke-opacity="1" stroke-miterlimit="3.25" d="M 136.800781 179.710938 C 136.800781 162.527344 129.972656 146.042969 117.820312 133.890625 C 105.667969 121.738281 89.1875 114.910156 72 114.910156 C 54.8125 114.910156 38.332031 121.738281 26.179688 133.890625 C 14.027344 146.042969 7.199219 162.527344 7.199219 179.710938 "/>
<path fill="none" stroke-width="1.8" stroke-linecap="square" stroke-linejoin="miter" stroke="rgb(33.332825%, 33.332825%, 33.332825%)" stroke-opacity="1" stroke-miterlimit="3.25" d="M 266.398438 179.710938 C 266.398438 145.339844 252.746094 112.375 228.441406 88.070312 C 204.136719 63.765625 171.171875 50.113281 136.800781 50.113281 C 102.429688 50.113281 69.464844 63.765625 45.160156 88.070312 C 20.855469 112.375 7.199219 145.339844 7.199219 179.710938 "/>
</svg>
